<?xml version="1.0" encoding="UTF-8" ?>
<svg version="1.1" width="96" height="13" xmlns="http://www.w3.org/2000/svg" shape-rendering="crispEdges">
<rect x="2" y="0" width="1" height="1" fill="#000000" />
<rect x="3" y="0" width="1" height="1" fill="#000000" />
<rect x="4" y="0" width="1" height="1" fill="#000000" />
<rect x="5" y="0" width="1" height="1" fill="#000000" />
<rect x="6" y="0" width="1" height="1" fill="#000000" />
<rect x="9" y="0" width="1" height="1" fill="#000000" />
<rect x="10" y="0" width="1" height="1" fill="#000000" />
<rect x="11" y="0" width="1" height="1" fill="#000000" />
<rect x="12" y="0" width="1" height="1" fill="#000000" />
<rect x="13" y="0" width="1" height="1" fill="#000000" />
<rect x="18" y="0" width="1" height="1" fill="#000000" />
<rect x="19" y="0" width="1" height="1" fill="#000000" />
<rect x="20" y="0" width="1" height="1" fill="#000000" />
<rect x="21" y="0" width="1" height="1" fill="#000000" />
<rect x="33" y="0" width="1" height="1" fill="#000000" />
<rect x="34" y="0" width="1" height="1" fill="#000000" />
<rect x="35" y="0" width="1" height="1" fill="#000000" />
<rect x="36" y="0" width="1" height="1" fill="#000000" />
<rect x="39" y="0" width="1" height="1" fill="#000000" />
<rect x="40" y="0" width="1" height="1" fill="#E17474" />
<rect x="41" y="0" width="1" height="1" fill="#000000" />
<rect x="43" y="0" width="1" height="1" fill="#000000" />
<rect x="44" y="0" width="1" height="1" fill="#000000" />
<rect x="45" y="0" width="1" height="1" fill="#000000" />
<rect x="46" y="0" width="1" height="1" fill="#000000" />
<rect x="47" y="0" width="1" height="1" fill="#000000" />
<rect x="48" y="0" width="1" height="1" fill="#E17474" />
<rect x="49" y="0" width="1" height="1" fill="#E17474" />
<rect x="50" y="0" width="1" height="1" fill="#000000" />
<rect x="51" y="0" width="1" height="1" fill="#000000" />
<rect x="57" y="0" width="1" height="1" fill="#E17474" />
<rect x="59" y="0" width="1" height="1" fill="#000000" />
<rect x="60" y="0" width="1" height="1" fill="#E17474" />
<rect x="61" y="0" width="1" height="1" fill="#E17474" />
<rect x="62" y="0" width="1" height="1" fill="#E17474" />
<rect x="63" y="0" width="1" height="1" fill="#E17474" />
<rect x="64" y="0" width="1" height="1" fill="#E17474" />
<rect x="65" y="0" width="1" height="1" fill="#000000" />
<rect x="66" y="0" width="1" height="1" fill="#000000" />
<rect x="77" y="0" width="1" height="1" fill="#000000" />
<rect x="78" y="0" width="1" height="1" fill="#000000" />
<rect x="79" y="0" width="1" height="1" fill="#E17474" />
<rect x="80" y="0" width="1" height="1" fill="#E17474" />
<rect x="1" y="1" width="1" height="1" fill="#000000" />
<rect x="2" y="1" width="1" height="1" fill="#000000" />
<rect x="3" y="1" width="1" height="1" fill="#E17474" />
<rect x="4" y="1" width="1" height="1" fill="#E17474" />
<rect x="5" y="1" width="1" height="1" fill="#E17474" />
<rect x="6" y="1" width="1" height="1" fill="#000000" />
<rect x="7" y="1" width="1" height="1" fill="#000000" />
<rect x="8" y="1" width="1" height="1" fill="#000000" />
<rect x="9" y="1" width="1" height="1" fill="#000000" />
<rect x="10" y="1" width="1" height="1" fill="#E17474" />
<rect x="11" y="1" width="1" height="1" fill="#E17474" />
<rect x="12" y="1" width="1" height="1" fill="#E17474" />
<rect x="13" y="1" width="1" height="1" fill="#000000" />
<rect x="14" y="1" width="1" height="1" fill="#000000" />
<rect x="17" y="1" width="1" height="1" fill="#000000" />
<rect x="18" y="1" width="1" height="1" fill="#000000" />
<rect x="19" y="1" width="1" height="1" fill="#E17474" />
<rect x="20" y="1" width="1" height="1" fill="#E17474" />
<rect x="21" y="1" width="1" height="1" fill="#000000" />
<rect x="22" y="1" width="1" height="1" fill="#000000" />
<rect x="25" y="1" width="1" height="1" fill="#000000" />
<rect x="26" y="1" width="1" height="1" fill="#000000" />
<rect x="27" y="1" width="1" height="1" fill="#000000" />
<rect x="28" y="1" width="1" height="1" fill="#000000" />
<rect x="29" y="1" width="1" height="1" fill="#000000" />
<rect x="32" y="1" width="1" height="1" fill="#000000" />
<rect x="33" y="1" width="1" height="1" fill="#000000" />
<rect x="34" y="1" width="1" height="1" fill="#E17474" />
<rect x="35" y="1" width="1" height="1" fill="#E17474" />
<rect x="36" y="1" width="1" height="1" fill="#000000" />
<rect x="39" y="1" width="1" height="1" fill="#000000" />
<rect x="40" y="1" width="1" height="1" fill="#000000" />
<rect x="41" y="1" width="1" height="1" fill="#000000" />
<rect x="43" y="1" width="1" height="1" fill="#000000" />
<rect x="44" y="1" width="1" height="1" fill="#E17474" />
<rect x="45" y="1" width="1" height="1" fill="#E17474" />
<rect x="46" y="1" width="1" height="1" fill="#E17474" />
<rect x="47" y="1" width="1" height="1" fill="#000000" />
<rect x="48" y="1" width="1" height="1" fill="#000000" />
<rect x="49" y="1" width="1" height="1" fill="#000000" />
<rect x="50" y="1" width="1" height="1" fill="#000000" />
<rect x="54" y="1" width="1" height="1" fill="#E17474" />
<rect x="60" y="1" width="1" height="1" fill="#000000" />
<rect x="61" y="1" width="1" height="1" fill="#000000" />
<rect x="62" y="1" width="1" height="1" fill="#E17474" />
<rect x="63" y="1" width="1" height="1" fill="#E17474" />
<rect x="64" y="1" width="1" height="1" fill="#000000" />
<rect x="65" y="1" width="1" height="1" fill="#000000" />
<rect x="70" y="1" width="1" height="1" fill="#E17474" />
<rect x="79" y="1" width="1" height="1" fill="#000000" />
<rect x="0" y="2" width="1" height="1" fill="#000000" />
<rect x="1" y="2" width="1" height="1" fill="#000000" />
<rect x="2" y="2" width="1" height="1" fill="#E17474" />
<rect x="3" y="2" width="1" height="1" fill="#E17474" />
<rect x="4" y="2" width="1" height="1" fill="#E17474" />
<rect x="5" y="2" width="1" height="1" fill="#E17474" />
<rect x="6" y="2" width="1" height="1" fill="#E17474" />
<rect x="7" y="2" width="1" height="1" fill="#000000" />
<rect x="8" y="2" width="1" height="1" fill="#000000" />
<rect x="9" y="2" width="1" height="1" fill="#E17474" />
<rect x="10" y="2" width="1" height="1" fill="#E17474" />
<rect x="11" y="2" width="1" height="1" fill="#E17474" />
<rect x="12" y="2" width="1" height="1" fill="#E17474" />
<rect x="13" y="2" width="1" height="1" fill="#E17474" />
<rect x="14" y="2" width="1" height="1" fill="#000000" />
<rect x="15" y="2" width="1" height="1" fill="#000000" />
<rect x="16" y="2" width="1" height="1" fill="#000000" />
<rect x="17" y="2" width="1" height="1" fill="#000000" />
<rect x="18" y="2" width="1" height="1" fill="#E17474" />
<rect x="19" y="2" width="1" height="1" fill="#E17474" />
<rect x="20" y="2" width="1" height="1" fill="#E17474" />
<rect x="21" y="2" width="1" height="1" fill="#E17474" />
<rect x="22" y="2" width="1" height="1" fill="#000000" />
<rect x="25" y="2" width="1" height="1" fill="#000000" />
<rect x="26" y="2" width="1" height="1" fill="#000000" />
<rect x="27" y="2" width="1" height="1" fill="#E17474" />
<rect x="28" y="2" width="1" height="1" fill="#E17474" />
<rect x="29" y="2" width="1" height="1" fill="#000000" />
<rect x="30" y="2" width="1" height="1" fill="#000000" />
<rect x="32" y="2" width="1" height="1" fill="#000000" />
<rect x="33" y="2" width="1" height="1" fill="#E17474" />
<rect x="34" y="2" width="1" height="1" fill="#E17474" />
<rect x="35" y="2" width="1" height="1" fill="#000000" />
<rect x="36" y="2" width="1" height="1" fill="#000000" />
<rect x="42" y="2" width="1" height="1" fill="#000000" />
<rect x="43" y="2" width="1" height="1" fill="#E17474" />
<rect x="44" y="2" width="1" height="1" fill="#E17474" />
<rect x="45" y="2" width="1" height="1" fill="#E17474" />
<rect x="46" y="2" width="1" height="1" fill="#E17474" />
<rect x="47" y="2" width="1" height="1" fill="#000000" />
<rect x="62" y="2" width="1" height="1" fill="#000000" />
<rect x="63" y="2" width="1" height="1" fill="#000000" />
<rect x="70" y="2" width="1" height="1" fill="#E17474" />
<rect x="71" y="2" width="1" height="1" fill="#E17474" />
<rect x="0" y="3" width="1" height="1" fill="#000000" />
<rect x="1" y="3" width="1" height="1" fill="#E17474" />
<rect x="2" y="3" width="1" height="1" fill="#E17474" />
<rect x="3" y="3" width="1" height="1" fill="#E17474" />
<rect x="4" y="3" width="1" height="1" fill="#E17474" />
<rect x="5" y="3" width="1" height="1" fill="#E17474" />
<rect x="6" y="3" width="1" height="1" fill="#E17474" />
<rect x="7" y="3" width="1" height="1" fill="#E17474" />
<rect x="8" y="3" width="1" height="1" fill="#E17474" />
<rect x="9" y="3" width="1" height="1" fill="#E17474" />
<rect x="10" y="3" width="1" height="1" fill="#E17474" />
<rect x="11" y="3" width="1" height="1" fill="#E17474" />
<rect x="12" y="3" width="1" height="1" fill="#E17474" />
<rect x="13" y="3" width="1" height="1" fill="#E17474" />
<rect x="14" y="3" width="1" height="1" fill="#E17474" />
<rect x="15" y="3" width="1" height="1" fill="#000000" />
<rect x="16" y="3" width="1" height="1" fill="#000000" />
<rect x="17" y="3" width="1" height="1" fill="#E17474" />
<rect x="18" y="3" width="1" height="1" fill="#E17474" />
<rect x="19" y="3" width="1" height="1" fill="#E17474" />
<rect x="20" y="3" width="1" height="1" fill="#E17474" />
<rect x="21" y="3" width="1" height="1" fill="#E17474" />
<rect x="22" y="3" width="1" height="1" fill="#000000" />
<rect x="25" y="3" width="1" height="1" fill="#000000" />
<rect x="26" y="3" width="1" height="1" fill="#E17474" />
<rect x="27" y="3" width="1" height="1" fill="#E17474" />
<rect x="28" y="3" width="1" height="1" fill="#E17474" />
<rect x="29" y="3" width="1" height="1" fill="#E17474" />
<rect x="30" y="3" width="1" height="1" fill="#000000" />
<rect x="32" y="3" width="1" height="1" fill="#000000" />
<rect x="33" y="3" width="1" height="1" fill="#000000" />
<rect x="34" y="3" width="1" height="1" fill="#000000" />
<rect x="35" y="3" width="1" height="1" fill="#000000" />
<rect x="43" y="3" width="1" height="1" fill="#000000" />
<rect x="44" y="3" width="1" height="1" fill="#000000" />
<rect x="45" y="3" width="1" height="1" fill="#E17474" />
<rect x="46" y="3" width="1" height="1" fill="#E17474" />
<rect x="47" y="3" width="1" height="1" fill="#000000" />
<rect x="53" y="3" width="1" height="1" fill="#E17474" />
<rect x="63" y="3" width="1" height="1" fill="#000000" />
<rect x="66" y="3" width="1" height="1" fill="#E17474" />
<rect x="79" y="3" width="1" height="1" fill="#E17474" />
<rect x="0" y="4" width="1" height="1" fill="#000000" />
<rect x="1" y="4" width="1" height="1" fill="#E17474" />
<rect x="2" y="4" width="1" height="1" fill="#E17474" />
<rect x="3" y="4" width="1" height="1" fill="#E17474" />
<rect x="4" y="4" width="1" height="1" fill="#E17474" />
<rect x="5" y="4" width="1" height="1" fill="#E17474" />
<rect x="6" y="4" width="1" height="1" fill="#E17474" />
<rect x="7" y="4" width="1" height="1" fill="#E17474" />
<rect x="8" y="4" width="1" height="1" fill="#E17474" />
<rect x="9" y="4" width="1" height="1" fill="#E17474" />
<rect x="10" y="4" width="1" height="1" fill="#E17474" />
<rect x="11" y="4" width="1" height="1" fill="#E17474" />
<rect x="12" y="4" width="1" height="1" fill="#E17474" />
<rect x="13" y="4" width="1" height="1" fill="#E17474" />
<rect x="14" y="4" width="1" height="1" fill="#E17474" />
<rect x="15" y="4" width="1" height="1" fill="#000000" />
<rect x="16" y="4" width="1" height="1" fill="#000000" />
<rect x="17" y="4" width="1" height="1" fill="#E17474" />
<rect x="18" y="4" width="1" height="1" fill="#E17474" />
<rect x="19" y="4" width="1" height="1" fill="#E17474" />
<rect x="20" y="4" width="1" height="1" fill="#E17474" />
<rect x="21" y="4" width="1" height="1" fill="#000000" />
<rect x="22" y="4" width="1" height="1" fill="#000000" />
<rect x="25" y="4" width="1" height="1" fill="#000000" />
<rect x="26" y="4" width="1" height="1" fill="#E17474" />
<rect x="27" y="4" width="1" height="1" fill="#E17474" />
<rect x="28" y="4" width="1" height="1" fill="#E17474" />
<rect x="29" y="4" width="1" height="1" fill="#E17474" />
<rect x="30" y="4" width="1" height="1" fill="#000000" />
<rect x="36" y="4" width="1" height="1" fill="#000000" />
<rect x="37" y="4" width="1" height="1" fill="#000000" />
<rect x="42" y="4" width="1" height="1" fill="#E17474" />
<rect x="45" y="4" width="1" height="1" fill="#000000" />
<rect x="46" y="4" width="1" height="1" fill="#000000" />
<rect x="47" y="4" width="1" height="1" fill="#000000" />
<rect x="49" y="4" width="1" height="1" fill="#000000" />
<rect x="50" y="4" width="1" height="1" fill="#000000" />
<rect x="53" y="4" width="1" height="1" fill="#E17474" />
<rect x="54" y="4" width="1" height="1" fill="#E17474" />
<rect x="59" y="4" width="1" height="1" fill="#E17474" />
<rect x="0" y="5" width="1" height="1" fill="#000000" />
<rect x="1" y="5" width="1" height="1" fill="#E17474" />
<rect x="2" y="5" width="1" height="1" fill="#E17474" />
<rect x="3" y="5" width="1" height="1" fill="#E17474" />
<rect x="4" y="5" width="1" height="1" fill="#E17474" />
<rect x="5" y="5" width="1" height="1" fill="#E17474" />
<rect x="6" y="5" width="1" height="1" fill="#E17474" />
<rect x="7" y="5" width="1" height="1" fill="#E17474" />
<rect x="8" y="5" width="1" height="1" fill="#E17474" />
<rect x="9" y="5" width="1" height="1" fill="#E17474" />
<rect x="10" y="5" width="1" height="1" fill="#E17474" />
<rect x="11" y="5" width="1" height="1" fill="#E17474" />
<rect x="12" y="5" width="1" height="1" fill="#E17474" />
<rect x="13" y="5" width="1" height="1" fill="#E17474" />
<rect x="14" y="5" width="1" height="1" fill="#E17474" />
<rect x="15" y="5" width="1" height="1" fill="#000000" />
<rect x="16" y="5" width="1" height="1" fill="#000000" />
<rect x="17" y="5" width="1" height="1" fill="#000000" />
<rect x="18" y="5" width="1" height="1" fill="#000000" />
<rect x="19" y="5" width="1" height="1" fill="#000000" />
<rect x="20" y="5" width="1" height="1" fill="#000000" />
<rect x="21" y="5" width="1" height="1" fill="#000000" />
<rect x="25" y="5" width="1" height="1" fill="#000000" />
<rect x="26" y="5" width="1" height="1" fill="#000000" />
<rect x="27" y="5" width="1" height="1" fill="#000000" />
<rect x="28" y="5" width="1" height="1" fill="#000000" />
<rect x="29" y="5" width="1" height="1" fill="#000000" />
<rect x="30" y="5" width="1" height="1" fill="#000000" />
<rect x="33" y="5" width="1" height="1" fill="#E17474" />
<rect x="35" y="5" width="1" height="1" fill="#000000" />
<rect x="36" y="5" width="1" height="1" fill="#E17474" />
<rect x="37" y="5" width="1" height="1" fill="#E17474" />
<rect x="38" y="5" width="1" height="1" fill="#000000" />
<rect x="46" y="5" width="1" height="1" fill="#000000" />
<rect x="48" y="5" width="1" height="1" fill="#000000" />
<rect x="49" y="5" width="1" height="1" fill="#E17474" />
<rect x="50" y="5" width="1" height="1" fill="#E17474" />
<rect x="51" y="5" width="1" height="1" fill="#000000" />
<rect x="53" y="5" width="1" height="1" fill="#E17474" />
<rect x="54" y="5" width="1" height="1" fill="#E17474" />
<rect x="63" y="5" width="1" height="1" fill="#000000" />
<rect x="64" y="5" width="1" height="1" fill="#000000" />
<rect x="0" y="6" width="1" height="1" fill="#000000" />
<rect x="1" y="6" width="1" height="1" fill="#E17474" />
<rect x="2" y="6" width="1" height="1" fill="#E17474" />
<rect x="3" y="6" width="1" height="1" fill="#E17474" />
<rect x="4" y="6" width="1" height="1" fill="#E17474" />
<rect x="5" y="6" width="1" height="1" fill="#E17474" />
<rect x="6" y="6" width="1" height="1" fill="#E17474" />
<rect x="7" y="6" width="1" height="1" fill="#E17474" />
<rect x="8" y="6" width="1" height="1" fill="#E17474" />
<rect x="9" y="6" width="1" height="1" fill="#E17474" />
<rect x="10" y="6" width="1" height="1" fill="#E17474" />
<rect x="11" y="6" width="1" height="1" fill="#E17474" />
<rect x="12" y="6" width="1" height="1" fill="#E17474" />
<rect x="13" y="6" width="1" height="1" fill="#E17474" />
<rect x="14" y="6" width="1" height="1" fill="#E17474" />
<rect x="15" y="6" width="1" height="1" fill="#000000" />
<rect x="34" y="6" width="1" height="1" fill="#000000" />
<rect x="35" y="6" width="1" height="1" fill="#E17474" />
<rect x="36" y="6" width="1" height="1" fill="#E17474" />
<rect x="37" y="6" width="1" height="1" fill="#E17474" />
<rect x="38" y="6" width="1" height="1" fill="#000000" />
<rect x="40" y="6" width="1" height="1" fill="#E17474" />
<rect x="41" y="6" width="1" height="1" fill="#E17474" />
<rect x="45" y="6" width="1" height="1" fill="#E17474" />
<rect x="48" y="6" width="1" height="1" fill="#E17474" />
<rect x="49" y="6" width="1" height="1" fill="#E17474" />
<rect x="50" y="6" width="1" height="1" fill="#E17474" />
<rect x="51" y="6" width="1" height="1" fill="#000000" />
<rect x="62" y="6" width="1" height="1" fill="#000000" />
<rect x="63" y="6" width="1" height="1" fill="#E17474" />
<rect x="64" y="6" width="1" height="1" fill="#E17474" />
<rect x="65" y="6" width="1" height="1" fill="#000000" />
<rect x="79" y="6" width="1" height="1" fill="#000000" />
<rect x="0" y="7" width="1" height="1" fill="#000000" />
<rect x="1" y="7" width="1" height="1" fill="#E17474" />
<rect x="2" y="7" width="1" height="1" fill="#E17474" />
<rect x="3" y="7" width="1" height="1" fill="#E17474" />
<rect x="4" y="7" width="1" height="1" fill="#E17474" />
<rect x="5" y="7" width="1" height="1" fill="#E17474" />
<rect x="6" y="7" width="1" height="1" fill="#E17474" />
<rect x="7" y="7" width="1" height="1" fill="#E17474" />
<rect x="8" y="7" width="1" height="1" fill="#E17474" />
<rect x="9" y="7" width="1" height="1" fill="#E17474" />
<rect x="10" y="7" width="1" height="1" fill="#E17474" />
<rect x="11" y="7" width="1" height="1" fill="#E17474" />
<rect x="12" y="7" width="1" height="1" fill="#E17474" />
<rect x="13" y="7" width="1" height="1" fill="#E17474" />
<rect x="14" y="7" width="1" height="1" fill="#E17474" />
<rect x="15" y="7" width="1" height="1" fill="#000000" />
<rect x="16" y="7" width="1" height="1" fill="#000000" />
<rect x="17" y="7" width="1" height="1" fill="#000000" />
<rect x="18" y="7" width="1" height="1" fill="#000000" />
<rect x="19" y="7" width="1" height="1" fill="#000000" />
<rect x="20" y="7" width="1" height="1" fill="#000000" />
<rect x="21" y="7" width="1" height="1" fill="#000000" />
<rect x="22" y="7" width="1" height="1" fill="#000000" />
<rect x="23" y="7" width="1" height="1" fill="#000000" />
<rect x="24" y="7" width="1" height="1" fill="#000000" />
<rect x="26" y="7" width="1" height="1" fill="#000000" />
<rect x="27" y="7" width="1" height="1" fill="#000000" />
<rect x="28" y="7" width="1" height="1" fill="#000000" />
<rect x="29" y="7" width="1" height="1" fill="#000000" />
<rect x="30" y="7" width="1" height="1" fill="#000000" />
<rect x="31" y="7" width="1" height="1" fill="#000000" />
<rect x="36" y="7" width="1" height="1" fill="#000000" />
<rect x="37" y="7" width="1" height="1" fill="#000000" />
<rect x="41" y="7" width="1" height="1" fill="#E17474" />
<rect x="49" y="7" width="1" height="1" fill="#000000" />
<rect x="50" y="7" width="1" height="1" fill="#000000" />
<rect x="61" y="7" width="1" height="1" fill="#000000" />
<rect x="62" y="7" width="1" height="1" fill="#E17474" />
<rect x="63" y="7" width="1" height="1" fill="#E17474" />
<rect x="64" y="7" width="1" height="1" fill="#E17474" />
<rect x="65" y="7" width="1" height="1" fill="#000000" />
<rect x="78" y="7" width="1" height="1" fill="#000000" />
<rect x="79" y="7" width="1" height="1" fill="#E17474" />
<rect x="0" y="8" width="1" height="1" fill="#000000" />
<rect x="1" y="8" width="1" height="1" fill="#000000" />
<rect x="2" y="8" width="1" height="1" fill="#E17474" />
<rect x="3" y="8" width="1" height="1" fill="#E17474" />
<rect x="4" y="8" width="1" height="1" fill="#E17474" />
<rect x="5" y="8" width="1" height="1" fill="#E17474" />
<rect x="6" y="8" width="1" height="1" fill="#E17474" />
<rect x="7" y="8" width="1" height="1" fill="#E17474" />
<rect x="8" y="8" width="1" height="1" fill="#E17474" />
<rect x="9" y="8" width="1" height="1" fill="#E17474" />
<rect x="10" y="8" width="1" height="1" fill="#E17474" />
<rect x="11" y="8" width="1" height="1" fill="#E17474" />
<rect x="12" y="8" width="1" height="1" fill="#E17474" />
<rect x="13" y="8" width="1" height="1" fill="#E17474" />
<rect x="14" y="8" width="1" height="1" fill="#000000" />
<rect x="15" y="8" width="1" height="1" fill="#000000" />
<rect x="16" y="8" width="1" height="1" fill="#000000" />
<rect x="17" y="8" width="1" height="1" fill="#000000" />
<rect x="18" y="8" width="1" height="1" fill="#E17474" />
<rect x="19" y="8" width="1" height="1" fill="#E17474" />
<rect x="20" y="8" width="1" height="1" fill="#E17474" />
<rect x="21" y="8" width="1" height="1" fill="#E17474" />
<rect x="22" y="8" width="1" height="1" fill="#E17474" />
<rect x="23" y="8" width="1" height="1" fill="#000000" />
<rect x="24" y="8" width="1" height="1" fill="#000000" />
<rect x="25" y="8" width="1" height="1" fill="#000000" />
<rect x="26" y="8" width="1" height="1" fill="#000000" />
<rect x="27" y="8" width="1" height="1" fill="#E17474" />
<rect x="28" y="8" width="1" height="1" fill="#E17474" />
<rect x="29" y="8" width="1" height="1" fill="#E17474" />
<rect x="30" y="8" width="1" height="1" fill="#000000" />
<rect x="31" y="8" width="1" height="1" fill="#000000" />
<rect x="33" y="8" width="1" height="1" fill="#000000" />
<rect x="38" y="8" width="1" height="1" fill="#E17474" />
<rect x="43" y="8" width="1" height="1" fill="#000000" />
<rect x="44" y="8" width="1" height="1" fill="#000000" />
<rect x="45" y="8" width="1" height="1" fill="#000000" />
<rect x="57" y="8" width="1" height="1" fill="#E17474" />
<rect x="58" y="8" width="1" height="1" fill="#E17474" />
<rect x="59" y="8" width="1" height="1" fill="#E17474" />
<rect x="62" y="8" width="1" height="1" fill="#000000" />
<rect x="63" y="8" width="1" height="1" fill="#000000" />
<rect x="64" y="8" width="1" height="1" fill="#000000" />
<rect x="79" y="8" width="1" height="1" fill="#000000" />
<rect x="1" y="9" width="1" height="1" fill="#000000" />
<rect x="2" y="9" width="1" height="1" fill="#000000" />
<rect x="3" y="9" width="1" height="1" fill="#E17474" />
<rect x="4" y="9" width="1" height="1" fill="#E17474" />
<rect x="5" y="9" width="1" height="1" fill="#E17474" />
<rect x="6" y="9" width="1" height="1" fill="#E17474" />
<rect x="7" y="9" width="1" height="1" fill="#E17474" />
<rect x="8" y="9" width="1" height="1" fill="#E17474" />
<rect x="9" y="9" width="1" height="1" fill="#E17474" />
<rect x="10" y="9" width="1" height="1" fill="#E17474" />
<rect x="11" y="9" width="1" height="1" fill="#E17474" />
<rect x="12" y="9" width="1" height="1" fill="#E17474" />
<rect x="13" y="9" width="1" height="1" fill="#000000" />
<rect x="14" y="9" width="1" height="1" fill="#000000" />
<rect x="17" y="9" width="1" height="1" fill="#000000" />
<rect x="18" y="9" width="1" height="1" fill="#000000" />
<rect x="19" y="9" width="1" height="1" fill="#E17474" />
<rect x="20" y="9" width="1" height="1" fill="#E17474" />
<rect x="21" y="9" width="1" height="1" fill="#E17474" />
<rect x="22" y="9" width="1" height="1" fill="#E17474" />
<rect x="23" y="9" width="1" height="1" fill="#000000" />
<rect x="25" y="9" width="1" height="1" fill="#000000" />
<rect x="26" y="9" width="1" height="1" fill="#000000" />
<rect x="27" y="9" width="1" height="1" fill="#E17474" />
<rect x="28" y="9" width="1" height="1" fill="#E17474" />
<rect x="29" y="9" width="1" height="1" fill="#000000" />
<rect x="30" y="9" width="1" height="1" fill="#000000" />
<rect x="32" y="9" width="1" height="1" fill="#000000" />
<rect x="33" y="9" width="1" height="1" fill="#000000" />
<rect x="34" y="9" width="1" height="1" fill="#000000" />
<rect x="35" y="9" width="1" height="1" fill="#000000" />
<rect x="42" y="9" width="1" height="1" fill="#000000" />
<rect x="43" y="9" width="1" height="1" fill="#000000" />
<rect x="44" y="9" width="1" height="1" fill="#E17474" />
<rect x="45" y="9" width="1" height="1" fill="#E17474" />
<rect x="46" y="9" width="1" height="1" fill="#000000" />
<rect x="47" y="9" width="1" height="1" fill="#000000" />
<rect x="57" y="9" width="1" height="1" fill="#E17474" />
<rect x="58" y="9" width="1" height="1" fill="#E17474" />
<rect x="2" y="10" width="1" height="1" fill="#000000" />
<rect x="3" y="10" width="1" height="1" fill="#000000" />
<rect x="4" y="10" width="1" height="1" fill="#E17474" />
<rect x="5" y="10" width="1" height="1" fill="#E17474" />
<rect x="6" y="10" width="1" height="1" fill="#E17474" />
<rect x="7" y="10" width="1" height="1" fill="#E17474" />
<rect x="8" y="10" width="1" height="1" fill="#E17474" />
<rect x="9" y="10" width="1" height="1" fill="#E17474" />
<rect x="10" y="10" width="1" height="1" fill="#E17474" />
<rect x="11" y="10" width="1" height="1" fill="#E17474" />
<rect x="12" y="10" width="1" height="1" fill="#000000" />
<rect x="13" y="10" width="1" height="1" fill="#000000" />
<rect x="18" y="10" width="1" height="1" fill="#000000" />
<rect x="19" y="10" width="1" height="1" fill="#000000" />
<rect x="20" y="10" width="1" height="1" fill="#E17474" />
<rect x="21" y="10" width="1" height="1" fill="#E17474" />
<rect x="22" y="10" width="1" height="1" fill="#000000" />
<rect x="23" y="10" width="1" height="1" fill="#000000" />
<rect x="25" y="10" width="1" height="1" fill="#000000" />
<rect x="26" y="10" width="1" height="1" fill="#E17474" />
<rect x="27" y="10" width="1" height="1" fill="#E17474" />
<rect x="28" y="10" width="1" height="1" fill="#000000" />
<rect x="29" y="10" width="1" height="1" fill="#000000" />
<rect x="32" y="10" width="1" height="1" fill="#000000" />
<rect x="33" y="10" width="1" height="1" fill="#E17474" />
<rect x="34" y="10" width="1" height="1" fill="#E17474" />
<rect x="35" y="10" width="1" height="1" fill="#E17474" />
<rect x="36" y="10" width="1" height="1" fill="#000000" />
<rect x="37" y="10" width="1" height="1" fill="#000000" />
<rect x="38" y="10" width="1" height="1" fill="#000000" />
<rect x="42" y="10" width="1" height="1" fill="#000000" />
<rect x="43" y="10" width="1" height="1" fill="#000000" />
<rect x="44" y="10" width="1" height="1" fill="#E17474" />
<rect x="45" y="10" width="1" height="1" fill="#E17474" />
<rect x="46" y="10" width="1" height="1" fill="#E17474" />
<rect x="47" y="10" width="1" height="1" fill="#000000" />
<rect x="52" y="10" width="1" height="1" fill="#E17474" />
<rect x="61" y="10" width="1" height="1" fill="#000000" />
<rect x="62" y="10" width="1" height="1" fill="#000000" />
<rect x="63" y="10" width="1" height="1" fill="#000000" />
<rect x="74" y="10" width="1" height="1" fill="#E17474" />
<rect x="75" y="10" width="1" height="1" fill="#E17474" />
<rect x="3" y="11" width="1" height="1" fill="#000000" />
<rect x="4" y="11" width="1" height="1" fill="#000000" />
<rect x="5" y="11" width="1" height="1" fill="#000000" />
<rect x="6" y="11" width="1" height="1" fill="#E17474" />
<rect x="7" y="11" width="1" height="1" fill="#E17474" />
<rect x="8" y="11" width="1" height="1" fill="#E17474" />
<rect x="9" y="11" width="1" height="1" fill="#E17474" />
<rect x="10" y="11" width="1" height="1" fill="#000000" />
<rect x="11" y="11" width="1" height="1" fill="#000000" />
<rect x="12" y="11" width="1" height="1" fill="#000000" />
<rect x="19" y="11" width="1" height="1" fill="#000000" />
<rect x="20" y="11" width="1" height="1" fill="#000000" />
<rect x="21" y="11" width="1" height="1" fill="#000000" />
<rect x="22" y="11" width="1" height="1" fill="#000000" />
<rect x="24" y="11" width="1" height="1" fill="#000000" />
<rect x="25" y="11" width="1" height="1" fill="#E17474" />
<rect x="26" y="11" width="1" height="1" fill="#000000" />
<rect x="27" y="11" width="1" height="1" fill="#000000" />
<rect x="28" y="11" width="1" height="1" fill="#000000" />
<rect x="32" y="11" width="1" height="1" fill="#000000" />
<rect x="33" y="11" width="1" height="1" fill="#000000" />
<rect x="34" y="11" width="1" height="1" fill="#000000" />
<rect x="35" y="11" width="1" height="1" fill="#000000" />
<rect x="36" y="11" width="1" height="1" fill="#E17474" />
<rect x="37" y="11" width="1" height="1" fill="#E17474" />
<rect x="38" y="11" width="1" height="1" fill="#000000" />
<rect x="41" y="11" width="1" height="1" fill="#000000" />
<rect x="42" y="11" width="1" height="1" fill="#E17474" />
<rect x="43" y="11" width="1" height="1" fill="#E17474" />
<rect x="44" y="11" width="1" height="1" fill="#E17474" />
<rect x="45" y="11" width="1" height="1" fill="#E17474" />
<rect x="46" y="11" width="1" height="1" fill="#000000" />
<rect x="47" y="11" width="1" height="1" fill="#000000" />
<rect x="48" y="11" width="1" height="1" fill="#000000" />
<rect x="49" y="11" width="1" height="1" fill="#000000" />
<rect x="55" y="11" width="1" height="1" fill="#000000" />
<rect x="56" y="11" width="1" height="1" fill="#000000" />
<rect x="57" y="11" width="1" height="1" fill="#000000" />
<rect x="60" y="11" width="1" height="1" fill="#000000" />
<rect x="61" y="11" width="1" height="1" fill="#000000" />
<rect x="62" y="11" width="1" height="1" fill="#E17474" />
<rect x="63" y="11" width="1" height="1" fill="#E17474" />
<rect x="66" y="11" width="1" height="1" fill="#E17474" />
<rect x="68" y="11" width="1" height="1" fill="#E17474" />
<rect x="69" y="11" width="1" height="1" fill="#E17474" />
<rect x="72" y="11" width="1" height="1" fill="#E17474" />
<rect x="74" y="11" width="1" height="1" fill="#E17474" />
<rect x="75" y="11" width="1" height="1" fill="#E17474" />
<rect x="78" y="11" width="1" height="1" fill="#000000" />
<rect x="79" y="11" width="1" height="1" fill="#000000" />
<rect x="5" y="12" width="1" height="1" fill="#000000" />
<rect x="6" y="12" width="1" height="1" fill="#000000" />
<rect x="7" y="12" width="1" height="1" fill="#000000" />
<rect x="8" y="12" width="1" height="1" fill="#000000" />
<rect x="9" y="12" width="1" height="1" fill="#000000" />
<rect x="10" y="12" width="1" height="1" fill="#000000" />
<rect x="21" y="12" width="1" height="1" fill="#000000" />
<rect x="22" y="12" width="1" height="1" fill="#000000" />
<rect x="24" y="12" width="1" height="1" fill="#000000" />
<rect x="25" y="12" width="1" height="1" fill="#000000" />
<rect x="26" y="12" width="1" height="1" fill="#000000" />
<rect x="35" y="12" width="1" height="1" fill="#000000" />
<rect x="36" y="12" width="1" height="1" fill="#000000" />
<rect x="37" y="12" width="1" height="1" fill="#000000" />
<rect x="38" y="12" width="1" height="1" fill="#000000" />
<rect x="41" y="12" width="1" height="1" fill="#000000" />
<rect x="42" y="12" width="1" height="1" fill="#000000" />
<rect x="43" y="12" width="1" height="1" fill="#000000" />
<rect x="44" y="12" width="1" height="1" fill="#000000" />
<rect x="45" y="12" width="1" height="1" fill="#000000" />
<rect x="48" y="12" width="1" height="1" fill="#E17474" />
<rect x="49" y="12" width="1" height="1" fill="#E17474" />
<rect x="50" y="12" width="1" height="1" fill="#000000" />
<rect x="51" y="12" width="1" height="1" fill="#000000" />
<rect x="52" y="12" width="1" height="1" fill="#000000" />
<rect x="54" y="12" width="1" height="1" fill="#000000" />
<rect x="55" y="12" width="1" height="1" fill="#E17474" />
<rect x="56" y="12" width="1" height="1" fill="#E17474" />
<rect x="57" y="12" width="1" height="1" fill="#000000" />
<rect x="60" y="12" width="1" height="1" fill="#000000" />
<rect x="61" y="12" width="1" height="1" fill="#000000" />
<rect x="62" y="12" width="1" height="1" fill="#E17474" />
<rect x="63" y="12" width="1" height="1" fill="#E17474" />
<rect x="68" y="12" width="1" height="1" fill="#000000" />
<rect x="69" y="12" width="1" height="1" fill="#E17474" />
<rect x="70" y="12" width="1" height="1" fill="#000000" />
<rect x="74" y="12" width="1" height="1" fill="#E17474" />
<rect x="77" y="12" width="1" height="1" fill="#000000" />
<rect x="78" y="12" width="1" height="1" fill="#000000" />
<rect x="79" y="12" width="1" height="1" fill="#E17474" />
<rect x="80" y="12" width="1" height="1" fill="#E17474" />
<rect x="95" y="12" width="1" height="1" fill="#E17474" />
</svg>