<svg xmlns="http://www.w3.org/2000/svg" xmlns:xlink="http://www.w3.org/1999/xlink" height="512" viewBox="0 0 510 510" width="512" xmlns:v="https://vecta.io/nano"><radialGradient id="A" cx="255" cy="255" gradientUnits="userSpaceOnUse" r="196.068"><stop offset="0" stop-color="#e4003d"/><stop offset=".22" stop-color="#e60540"/><stop offset=".465" stop-color="#eb124b"/><stop offset=".722" stop-color="#f3285b"/><stop offset=".985" stop-color="#fe4773"/><stop offset="1" stop-color="#ff4974"/></radialGradient><radialGradient id="B" cx="255" cy="255" gradientUnits="userSpaceOnUse" r="184.673"><stop offset="0" stop-color="#ff90a4"/><stop offset=".175" stop-color="#ff979d"/><stop offset=".434" stop-color="#ffa989"/><stop offset=".743" stop-color="#ffc768"/><stop offset="1" stop-color="#ffe548"/></radialGradient><radialGradient id="C" cx="255" cy="255" gradientUnits="userSpaceOnUse" r="118.138"><stop offset="0" stop-color="#fff"/><stop offset=".21" stop-color="#fffffc" stop-opacity=".8"/><stop offset=".361" stop-color="#fffdf3" stop-opacity=".64"/><stop offset=".493" stop-color="#fffbe3" stop-opacity=".507"/><stop offset=".615" stop-color="#fff8cd" stop-opacity=".386"/><stop offset=".729" stop-color="#fff4b0" stop-opacity=".27"/><stop offset=".837" stop-color="#ffef8d" stop-opacity=".163"/><stop offset=".94" stop-color="#ffe964" stop-opacity=".06"/><stop offset="1" stop-color="#ffe548" stop-opacity="0"/></radialGradient><linearGradient id="D" gradientUnits="userSpaceOnUse"><stop offset="0" stop-color="#ff4974"/><stop offset=".45" stop-color="#fe4773"/><stop offset=".629" stop-color="#fc406d"/><stop offset=".761" stop-color="#f73464"/><stop offset=".868" stop-color="#f12257"/><stop offset=".961" stop-color="#e80c46"/><stop offset="1" stop-color="#e4003d"/></linearGradient><linearGradient id="E" x1="102.393" x2="123.96" xlink:href="#D" y1="63.49" y2="64.798"/><linearGradient id="F" x1="94.695" x2="104.201" xlink:href="#D" y1="105.27" y2="95.842"/><linearGradient id="G" x1="448.589" x2="427.253" xlink:href="#D" y1="359.1" y2="362.487"/><linearGradient id="H" gradientUnits="userSpaceOnUse"><stop offset="0" stop-color="#ffe548"/><stop offset=".176" stop-color="#ffde50"/><stop offset=".445" stop-color="#ffca65"/><stop offset=".771" stop-color="#ffaa87"/><stop offset="1" stop-color="#ff90a4"/></linearGradient><linearGradient id="I" x1="192.461" x2="229.794" xlink:href="#H" y1="436.728" y2="475.394"/><linearGradient id="J" x1="448.457" x2="438.457" xlink:href="#H" y1="310.784" y2="331.284"/><path d="M157.812 27.773l1.88 27.403c3.192 46.51-37.83 83.83-83.832 76.268l-54.296-8.926c-16.793-2.76-28.093 16.7-17.37 29.917l77.382 95.374a72.28 72.28 0 0 1 3.239 86.764l-60.28 86.803C14.498 435.83 28.4 454.813 45.2 449.605l140.92-43.664a72.28 72.28 0 0 1 68.323 14.071l90.846 77.565c11.726 10.012 29.836 2.13 30.5-13.274l5.27-122.118a72.28 72.28 0 0 1 29.214-54.981l92.178-68.217c14.654-10.845 6.45-34.11-11.766-33.36-53.608 2.2-90.84-52.716-68.953-101.7l20.836-46.63c7.514-16.817-11.48-33.09-26.945-23.084l-63.487 41.074a72.28 72.28 0 0 1-82.224-2.562L187.27 11.626c-12.687-9.378-30.54.407-29.458 16.147z" fill="url(#A)"/><path d="M183.508 87.852L184.89 108c2.348 34.212-27.828 61.665-61.667 56.102l-39.94-6.566c-12.353-2.03-20.665 12.285-12.778 22.007l56.922 70.157a53.17 53.17 0 0 1 2.383 63.824L85.47 377.386c-7.383 10.632 2.844 24.596 15.208 20.765l103.66-32.12a53.17 53.17 0 0 1 50.258 10.351l66.826 57.057c8.626 7.365 21.947 1.567 22.436-9.765l3.877-89.83c.692-16.034 8.59-30.897 21.5-40.444l67.806-50.18c10.78-7.977 4.744-25.1-8.655-24.54-39.434 1.62-66.822-38.778-50.722-74.81l15.327-34.3c5.527-12.37-8.445-24.34-19.82-16.98l-46.7 30.214a53.17 53.17 0 0 1-60.484-1.885l-60.8-44.942c-9.33-6.9-22.46.3-21.667 11.877z" fill="url(#B)"/><path d="M211.28 152.782l.846 12.327c1.436 20.922-17.018 37.71-37.712 34.31l-24.425-4.015c-7.554-1.242-12.638 7.513-7.814 13.458l34.8 42.904c9.117 11.237 9.71 27.146 1.457 39.03l-27.117 39.048c-4.515 6.502 1.74 15.042 9.3 12.7l63.393-19.642c10.653-3.3 22.254-.91 30.735 6.33l40.867 34.893c5.275 4.504 13.422.958 13.72-5.97l2.37-54.935c.423-9.805 5.253-18.895 13.142-24.733l41.466-30.687c6.592-4.878 2.9-15.344-5.293-15.008-24.115 1-40.865-23.714-31.018-45.75l9.373-20.977c3.38-7.565-5.164-14.885-12.12-10.384l-28.56 18.477c-11.367 7.354-26.1 6.895-36.988-1.153l-37.18-27.484c-5.708-4.22-13.738.182-13.252 7.263z" fill="url(#C)"/><path d="M121.633 90.955L99.575 80.327c-9.998-4.817-16.586-16.05-15.69-26.75 1.04-12.424 11.72-19.86 23.732-16.525C117.963 39.925 126.21 50 127.26 61.05l2.316 24.375c.41 4.308-4.045 7.41-7.943 5.53z" fill="url(#E)"/><path d="M115.614 107.615l-14.016 5.796c-6.353 2.627-14.26 1.032-18.83-3.8-5.307-5.6-4.33-13.612 2.17-17.78 5.6-3.59 13.657-3.24 19.19.838l12.21 8.996c2.16 1.59 1.752 4.927-.725 5.95z" fill="url(#F)"/><path d="M423.438 336.036l23.83 5.625c10.8 2.55 19.655 12.097 21.087 22.74 1.662 12.356-7.163 21.92-19.613 21.25-10.723-.575-20.948-8.636-24.354-19.2l-7.515-23.303c-1.327-4.118 2.354-8.107 6.565-7.113z" fill="url(#G)"/><path d="M222.963 446.685l-5.268-23.912c-.93-4.226-6.12-5.813-9.256-2.83L190.7 436.82c-8.04 7.65-10.868 20.36-6.736 30.27 4.798 11.507 17.243 15.312 27.655 8.455 8.968-5.905 13.73-18.024 11.343-28.862z" fill="url(#I)"/><path d="M457.37 309.442c-5.505-3.733-13.57-3.587-19.207.347l-12.437 8.68c-2.198 1.534-1.876 4.88.574 5.968l13.863 6.153c6.284 2.79 14.228 1.396 18.92-3.318 5.45-5.472 4.677-13.496-1.714-17.83z" fill="url(#J)"/></svg>