<svg xmlns="http://www.w3.org/2000/svg" height="512" width="328"  xmlns:v="https://vecta.io/nano"><path d="M299.12 412.5c-3.85 3.85-11.22 4.27-17.88 3.66-7.3-.68-13.76-2.6-13.76-2.6l-19.85-11.04-9.98-78.48 57.1 9.87 4.37 49.77s8.08 20.74 0 28.82z" fill="#f1d0a5"/><path d="M281.24 416.15c-7.3-.68-13.76-2.6-13.76-2.6l-19.85-11.04-5.33-41.9 4.66-32.6 25.27-.66a103.03 103.03 0 0 0 .79 2.78c3.08 11.15 13.8 53.58 8.22 86zM93.603 333.9l-4.37 49.773s-8.082 20.733 0 28.815 31.64 1.062 31.64 1.062l28.986-85.53-42.565-7.98z" fill="#f1b986"/><path d="M256.12 481.1h-49.7s12.46-57.78-12.24-82.48h-.01c-24.7 24.7-12.24 82.48-12.24 82.48h-49.7c-15.35-49.38-13.67-89.3-9.68-113.8l73.2-20.66 70.05 20.66c3.98 24.5 5.67 64.42-9.68 113.8z" fill="#8bc852"/><path d="M148 481.1h-15.77c-15.35-49.38-13.67-89.3-9.68-113.8l24.63-6.95c-6 38.26-8.9 83.6.82 120.75z" fill="#6ea533"/><path d="M259.1 340.58l-.06.01s3.9 9.58 6.7 26.7H122.49c2.7-16.6 6.46-26.1 6.7-26.68.01-.02.01-.03.01-.03l-35.65-6.7c9.87-51.44 33.4-70.47 38.35-73.97h124.45c4.96 3.5 28.48 22.53 38.35 73.97l-19.73 3.7z" fill="#da4a54"/><path d="M274.96 337.6l-15.86 2.98-6.82-20.54s19.66 3.97 22.68 17.56zM149.2 318.04l-3.05 49.26H122.5c2.7-16.6 6.46-26.1 6.7-26.68l.07-.03s3.98-15.9 19.94-22.55zm6.74-58.1c-35.5 32.83-41.53 77.87-41.53 77.87h-.08l-20.78-3.9c9.87-51.44 33.4-70.47 38.35-73.97z" fill="#c32430"/><ellipse cx="194.178" cy="263.539" fill="#f1b986" rx="50.876" ry="36.943"/><path d="M219.382 481.095H206.41s12.465-57.77-12.236-82.48c25.21 0 38.172 43.403 25.21 82.48z" fill="#6ea533"/><path d="M297.77 189.315h.145c12.457 0 22.55-10.102 22.55-22.55a22.56 22.56 0 0 0-22.551-22.56c-.162 0-.324 0-.486.01H90.927c-.162-.01-.324-.01-.486-.01-12.457 0-22.55 10.102-22.55 22.56 0 12.45 10.094 22.55 22.55 22.55h.145" fill="#f1b986"/><path d="M297.08 207.68c-1.52 29.7-25.28 53.33-54.98 54.73a1018.35 1018.35 0 0 1-71.62.86l-.01-.01-24.22-.85c-29.7-1.4-53.45-25.04-54.98-54.73-.47-9.2-.6-29.78-.6-50.14l.24-52.65h206.5l.16 26.04-.5 76.75z" fill="#f1d0a5"/><path d="M170.47 263.26l-24.22-.85c-29.7-1.4-53.45-25.04-54.98-54.73-.47-9.2-.6-29.78-.6-50.14l.24-52.65h53.53c-.74 100.63-5.77 143.64 26.02 158.37z" fill="#f1b986"/><path d="M90.92 104.9h44.53s-1.75 35.8-44.77 52.65l.24-52.65zm206.67 26.03c-100.32 0-151.5-26.04-151.5-26.04h151.34l.16 26.04z" fill="#aa593d"/><path d="M117.33 504.5h64.61v-23.402h-41.2c-12.923 0-23.4 10.478-23.4 23.402z" fill="#665e66"/><path d="M155.65 481.095c-12.923 0-23.405 10.482-23.405 23.405H117.33c0-12.923 10.472-23.405 23.395-23.405z" fill="#454045"/><path d="M271.028 504.5h-64.61v-23.402h41.2c12.924 0 23.4 10.478 23.4 23.402z" fill="#665e66"/><path d="M151.574 7.5h85.047c33.586 0 60.812 27.227 60.812 60.812v36.574H90.76V68.312c0-33.585 27.227-60.812 60.813-60.812z" fill="#8bc852"/><path d="M190.48 7.5c-33.6 0-46.03 27.23-46.03 60.8v36.58h-53.7V68.3c0-33.58 27.22-60.8 60.8-60.8z" fill="#6ea533"/><path d="M244.047 59.66H225.27c-12.63 0-22.867 10.238-22.867 22.867v22.358h64.513V82.528c-.001-12.63-10.24-22.868-22.868-22.868z" fill="#aa593d"/><path d="M304.57 208.068c.153-2.997.27-7.154.36-12.087 13.197-3.17 23.037-15.062 23.037-29.216 0-14.086-9.74-25.935-22.834-29.178l-.204-69.276c0-4.766-.496-9.517-1.474-14.118-.86-4.052-4.846-6.638-8.895-5.778a7.5 7.5 0 0 0-5.777 8.895 53.07 53.07 0 0 1 1.146 11.002v29.076h-15.516v-14.86c0-16.745-13.623-30.367-30.367-30.367H225.27c-16.744 0-30.367 13.623-30.367 30.367v14.858H98.26V68.3c0-29.395 23.915-53.3 53.3-53.3h85.05a53.17 53.17 0 0 1 40.78 18.99 7.5 7.5 0 0 0 11.477-9.658C275.868 8.868 256.82 0 236.62 0h-85.05c-37.667 0-68.3 30.644-68.3 68.3v29.076H7.532a7.5 7.5 0 1 0 0 15H83.36l-.14 25.202c-13.094 3.254-22.82 15.102-22.82 29.187 0 14.153 9.837 26.044 23.03 29.215l.36 12.1c1.214 23.625 14.74 43.75 34.34 54.2-10.214 10.9-24.6 32.232-31.885 70.208a7.51 7.51 0 0 0-.107.815l-4.277 48.73c-.7 2.012-2.195 6.585-3.048 11.812-1.75 10.736-.025 18.793 5.13 23.95 4.672 4.672 11.826 6.1 18.794 6.1 3.667 0 7.274-.395 10.448-.914.383 4.637.896 9.423 1.577 14.366.517 3.757 3.732 6.478 7.42 6.478a7.69 7.69 0 0 0 1.032-.07 7.5 7.5 0 0 0 6.407-8.453c-3.36-24.418-2.532-45.022-.53-60.5h130.213c2.954 22.927 3.313 57.2-8.748 98.804h-35.24c2.563-18.215 5.422-59.04-15.82-80.28a7.52 7.52 0 0 0-5.313-2.197c-2 0-3.896.8-5.304 2.197-21.242 21.242-18.382 62.067-15.82 80.28H137.8c-.952-3.28-1.826-6.513-2.613-9.66a7.5 7.5 0 1 0-14.552 3.638c.908 3.633 1.93 7.373 3.043 11.162-8.344 5.54-13.858 15.015-13.858 25.76a7.5 7.5 0 0 0 7.5 7.5h64.6a7.5 7.5 0 0 0 7.5-7.5V481.1c0-.613-.082-1.206-.22-1.777-2.852-13.4-6.58-48.18 4.952-68.356 11.537 20.226 7.764 55.227 4.925 68.513-.115.522-.18 1.063-.18 1.62v23.4a7.5 7.5 0 0 0 7.5 7.5h64.6a7.5 7.5 0 0 0 7.5-7.5c0-10.75-5.52-20.23-13.87-25.768 5.982-20.362 9.172-39.073 10.56-55.76 3.165.515 6.758.908 10.412.908 6.967 0 14.123-1.42 18.795-6.1 5.154-5.155 6.88-13.212 5.13-23.948-.853-5.227-2.338-9.8-3.048-11.812l-4.285-48.786c-.022-.253-.056-.506-.105-.758-7.286-37.974-21.67-59.296-31.882-70.206 19.603-10.458 33.13-30.585 34.337-54.213zM126.7 497c2.677-4.984 7.933-8.382 13.97-8.4h33.758v8.4zm87.206 0v-8.4h33.76c6.037.018 11.293 3.416 13.97 8.4zM98.36 112.4h27.957c-2.695 8.742-9.767 22.978-28.12 33.315l.164-33.315zm191.63 0l.07 10.987c-41.062-.555-73.362-5.573-96.6-10.987zm22.976 54.374c0 5.693-3.178 10.657-7.854 13.214l.06-26.4c4.642 2.568 7.794 7.513 7.794 13.185zM209.9 82.528c0-8.474 6.894-15.367 15.367-15.367h18.778c8.474 0 15.367 6.894 15.367 15.367v14.858H209.9V82.528zM75.4 166.764c0-5.67 3.15-10.613 7.788-13.182l.06 26.393c-4.672-2.557-7.848-7.52-7.848-13.2zm19.148 240.42c-2.618-2.618-1.268-13.14 1.685-20.788a7.55 7.55 0 0 0 .483-2.068l3.645-41.53 19.102 3.585c-3.177 11.118-7.757 32.484-7.082 61.515-8.567 1.6-15.963 1.158-17.833-.713zm199.28 0c-2.024 2.024-9.675 2.193-17.8.696.675-29.002-3.922-50.372-7.117-61.5l19.094-3.583 3.646 41.532a7.57 7.57 0 0 0 .483 2.068c3.905 10.018 3.613 18.86 1.685 20.787zm-8-79.24l-28.1 5.275a7.5 7.5 0 0 0-5.559 10.206c.07.174 2.356 5.945 4.6 16.37H131.63c2.232-10.436 4.508-16.236 4.563-16.37a7.5 7.5 0 0 0-.358-6.423c-1.078-1.98-2.988-3.368-5.203-3.783l-28.1-5.275c8.567-36.957 24.206-53.872 31.08-59.78.855.205 1.72.385 2.6.556 1.535 10.328 7.64 19.777 17.6 27.008 10.88 7.9 25.223 12.25 40.384 12.25s29.503-4.35 40.384-12.25c9.96-7.23 16.065-16.68 17.6-27a63.02 63.02 0 0 0 2.584-.555c6.874 5.908 22.512 22.823 31.08 59.78zm-133.86-57.8c14.023.578 28.116.885 42.212.885a1025.47 1025.47 0 0 0 42.211-.885c-4.56 12.898-22.036 22.825-42.2 22.825s-37.65-9.927-42.212-22.825zm89.777-15.233a1012.28 1012.28 0 0 1-95.136 0 50.1 50.1 0 0 1-47.847-47.62c-.424-8.288-.564-26.223-.58-44.8 31.606-14.244 40.93-38.2 43.65-50.1h2.56c9.6 4.46 58.3 24.877 145.74 26l-.542 68.92c-1.323 25.922-21.893 46.394-47.845 47.62zM146.16 144.833c-5.196 0-9.423 6.285-9.423 14s4.227 14 9.423 14 9.423-6.285 9.423-14-4.227-14-9.423-14zm96.037 0c-5.195 0-9.423 6.285-9.423 14s4.228 14 9.423 14 9.424-6.285 9.424-14-4.227-14-9.424-14zm-23.704 47.407a7.5 7.5 0 0 0-9.991 3.56 15.93 15.93 0 0 1-14.325 9.06c-6.1 0-11.714-3.556-14.326-9.06a7.5 7.5 0 1 0-13.551 6.431c5.083 10.7 16.025 17.63 27.877 17.63s22.793-6.92 27.876-17.63a7.5 7.5 0 0 0-3.56-9.991z"/></svg>