<svg xmlns="http://www.w3.org/2000/svg" width="590" height="512" viewBox="0 0 511.961 511"  xmlns:v="https://vecta.io/nano"><path d="M320.273 469.343l-64.28 33.363-64.28-33.363a536.06 536.06 0 0 1-106.573-72.324C7.616 328.715-46.258 235.786-23.294 128.818c7.4-37.963 29.76-71.354 62.042-92.656s71.78-28.72 109.596-20.588c52.94 12.75 94.417 53.848 107.65 106.67 13.234-52.824 54.7-93.923 107.65-106.67a137.42 137.42 0 0 1 47.204-2.552c61.992 7.974 112.026 54.535 124.434 115.795 32.577 152.01-89.696 275.56-215 340.526zm0 0" fill="#c81e1e"/><path d="M471.888 178.1c.018 92-49.5 176.88-129.595 222.14s-178.353 43.89-257.15-3.594C7.616 328.352-46.258 235.422-23.294 128.454c7.4-37.96 29.76-71.354 62.042-92.65S110.528 7.08 148.343 15.2c52.94 12.75 94.417 53.848 107.65 106.67 13.234-52.824 54.7-93.923 107.65-106.67a137.53 137.53 0 0 1 47.204-2.552 253.63 253.63 0 0 1 61.04 165.452zm0 0" fill="#f44335"/><path d="M177.488 281.907c0-13.548-19.775-24.532-44.163-24.532s-44.158 10.983-44.158 24.532 19.77 24.532 44.158 24.532 44.163-10.983 44.163-24.532zm245.332 0c0-13.548-19.77-24.532-44.158-24.532S334.5 268.358 334.5 281.907s19.77 24.532 44.163 24.532 44.158-10.983 44.158-24.532zm0 0" fill="#bb193b"/><path d="M99.863 253.84s-9.9 82.333-31.796 104.515A56.42 56.42 0 0 1 2.702 369.24c-21.85-10.903-34.204-34.626-30.6-58.776a44.41 44.41 0 0 1 .984-5.202c2.354-9.946 7.417-19.047 14.622-26.297 18.643-18.845 86.75-23.75 106.67-24.828 1.276-.1 2.255-.198 3.14-.198 1.568-.1 2.354-.1 2.354-.1zm0 0" fill="#0377bc"/><path d="M94.37 254.136c-4.9 25.906-13.742 61.332-26.99 74.777-10.52 10.67-24.855 16.71-39.837 16.805S-1.85 339.94-12.5 329.403c-6.8-6.67-11.77-14.986-14.424-24.14 2.354-9.946 7.417-19.047 14.622-26.297 18.643-18.845 86.75-23.75 106.67-24.828zm0 0" fill="#02a9f4"/><path d="M34.04 284.755c-5.418-9.384-21.226-10.404-35.31-2.278s-21.1 22.33-15.682 31.72 21.23 10.408 35.31 2.278 21.104-22.33 15.682-31.72zm0 0" fill="#00bcd4"/><path d="M523.9 358.845c-22.205 21.895-57.95 21.675-79.88-.5-21.886-22.182-31.796-104.515-31.796-104.515s.782 0 2.354.1c.265-.01.53.022.786.1 16.09.786 89.498 5.202 109.025 24.927 6.15 6.11 10.727 13.616 13.346 21.88 1.038 3.13 1.797 6.352 2.255 9.618 2.677 17.77-3.306 35.753-16.09 48.38zm0 0" fill="#0377bc"/><path d="M537.735 300.846a54.33 54.33 0 0 1-15.408 28.557c-10.65 10.54-25.057 16.405-40.043 16.316s-29.316-6.136-39.837-16.805c-13.247-13.445-22.178-48.97-27.083-74.876 16.09.786 89.498 5.202 109.025 24.927 6.15 6.11 10.727 13.616 13.346 21.88zm0 0" fill="#02a9f4"/><path d="M513.324 282.486c-14.083-8.13-29.89-7.11-35.313 2.278s1.604 23.584 15.682 31.715 29.89 7.11 35.313-2.278-1.604-23.588-15.682-31.715zm0 0" fill="#00bcd4"/><path d="M304.352 335.88c2.8 0 5.467-1.2 7.327-3.28s2.75-4.874 2.43-7.655c-1.375-13.53-5.238-26.693-11.406-38.82-8.9-17.632-26.958-28.76-46.7-28.76s-37.82 11.127-46.714 28.76c-6.163 12.13-10.027 25.29-11.4 38.82a9.83 9.83 0 0 0 2.426 7.655c1.864 2.09 4.533 3.28 7.327 3.28zm0 0" fill="#c81e1e"/><path d="M275.62 316.254v19.626h-39.253v-19.626a19.63 19.63 0 0 1 19.626-19.626 19.63 19.63 0 0 1 19.626 19.626zm0 0" fill="#df4d60"/><path d="M275.62 316.254v9.81h-39.253v-9.81a19.63 19.63 0 0 1 19.626-19.626 19.63 19.63 0 0 1 19.626 19.626zm0 0" fill="#e91e63"/><path d="M544.878 126.76a157.63 157.63 0 0 0-69.499-100.904C441.634 4.14 400.54-3.015 361.44 6.015 314.657 17.04 275.674 49.22 255.994 93.07 236.305 49.22 197.32 17.04 150.54 6.006c-39.1-9.025-80.2-1.864-113.935 19.85A157.61 157.61 0 0 0-32.88 126.76c-10.548 48.727-5.85 99.52 13.454 145.488a66.28 66.28 0 0 0 47.289 112.7h.463c8.53-.045 16.976-1.743 24.864-4.995a525.85 525.85 0 0 0 134.042 98.132l64.28 33.363a9.81 9.81 0 0 0 9.047 0l64.274-33.363a525.85 525.85 0 0 0 134.042-98.132c7.866 3.243 16.28 4.937 24.788 4.995h.422a66.27 66.27 0 0 0 47.289-112.7 243.07 243.07 0 0 0 13.504-145.488zm-516.7 238.562a46.86 46.86 0 0 1-33.071-13.468c-8.8-8.688-13.8-20.525-13.88-32.9a46.64 46.64 0 0 1 13.468-33.071C7.118 273.3 54.68 266.34 88.52 264.194c-4.73 31.028-14.87 74.512-27.48 87.252a46.35 46.35 0 0 1-32.874 13.876zm287.576 95.306l-59.75 31.028-59.755-31.028c-46.373-23.746-88.815-54.48-125.844-91.13a68.05 68.05 0 0 0 4.649-4.259C98.597 341.348 108.538 263.754 109.6 255a9.82 9.82 0 0 0-10.071-10.983c-8.014.265-68.232 2.78-102.058 17.578A223.52 223.52 0 0 1-13.695 130.88a138.13 138.13 0 0 1 60.842-88.42 129.24 129.24 0 0 1 98.994-17.326 136.23 136.23 0 0 1 100.35 99.592 9.82 9.82 0 0 0 9.501 7.354 9.81 9.81 0 0 0 9.496-7.354A136.22 136.22 0 0 1 365.83 25.134a129.54 129.54 0 0 1 99.008 17.326c31.382 20.08 53.322 51.984 60.842 88.47a223.52 223.52 0 0 1-11.127 130.705c-33.858-14.797-94.07-17.313-102.058-17.578a9.82 9.82 0 0 0-10.071 10.983c1.05 8.764 10.965 86.358 34.545 110.252 1.5 1.5 3.04 2.942 4.65 4.26a508.01 508.01 0 0 1-125.876 91.079zm201.174-108.774a46.62 46.62 0 0 1-33.071 13.468c-12.376-.076-24.208-5.072-32.9-13.876-12.56-12.758-22.708-56.224-27.48-87.252 33.826 2.138 81.38 9.088 93.837 21.688a46.63 46.63 0 0 1 13.463 33.07 46.61 46.61 0 0 1-13.876 32.901zM149.098 56.07a9.83 9.83 0 0 0-1.24-7.412 9.81 9.81 0 0 0-6.123-4.362 110.24 110.24 0 0 0-24.68-2.817C62.575 42.7 16.232 81.563 5.535 135.002a9.82 9.82 0 0 0 7.529 11.648c.678.144 1.375.216 2.07.216 4.622-.004 8.616-3.234 9.586-7.754 8.728-44.405 47.092-76.816 92.332-78.007a90.59 90.59 0 0 1 20.273 2.327 9.82 9.82 0 0 0 7.408-1.244 9.8 9.8 0 0 0 4.362-6.118zm0 0"/><path d="M157.862 188.68c-16.262 0-29.442 13.18-29.442 29.442 0 5.418 4.393 9.8 9.8 9.8a9.82 9.82 0 0 0 9.815-9.81 9.82 9.82 0 0 1 9.815-9.815 9.81 9.81 0 0 1 9.81 9.815 9.81 9.81 0 0 0 19.625 0c0-16.262-13.18-29.442-29.437-29.442zm196.264 0c-16.257 0-29.437 13.18-29.437 29.442 0 5.418 4.393 9.8 9.8 9.8a9.82 9.82 0 0 0 9.815-9.81 9.82 9.82 0 0 1 9.81-9.815 9.82 9.82 0 0 1 9.815 9.815 9.81 9.81 0 0 0 9.81 9.81 9.82 9.82 0 0 0 9.815-9.81c0-16.262-13.18-29.442-29.442-29.442zm0 0"/><path d="M20.473 178.865c0 5.422-4.393 9.815-9.8 9.815a9.82 9.82 0 0 1-9.815-9.815 9.81 9.81 0 0 1 19.625 0zm235.52 68.695a59.98 59.98 0 0 0-55.339 33.876 128.08 128.08 0 0 0-13.355 54.445c0 5.418 4.393 9.8 9.815 9.8h117.758c5.422 0 9.815-4.393 9.815-9.8a127.92 127.92 0 0 0-13.328-54.378 59.98 59.98 0 0 0-55.366-33.943zm-9.815 78.505v-9.8c0-5.422 4.393-9.815 9.815-9.815a9.81 9.81 0 0 1 9.81 9.815v9.8zm39.253 0v-9.8c0-16.262-13.18-29.442-29.437-29.442s-29.442 13.18-29.442 29.442v9.8h-18.92c1.24-12.3 4.735-24.28 10.305-35.327a42.52 42.52 0 0 1 76.143.067 100.45 100.45 0 0 1 10.274 35.259zm0 0"/></svg>