<svg xmlns="http://www.w3.org/2000/svg" xmlns:v="https://vecta.io/nano" width="512" height="710" viewBox="0 0 511.999 511.999"><g transform="matrix(1.37 0 0 1.37 -94.719994 -94.720077)"><path d="M413.513 232.675c-5.96-9.016-9.13-19.588-9.124-30.396v-.175c0-6.347-.41-12.598-1.207-18.728-.792-6.095-7.996-8.87-12.678-4.89-6.998 5.95-14.575 11.242-22.63 15.783C382.52 89.872 305.31 7.806 238.527 7.5c-26.328-.12 34.017 63.664-34.724 128.902-7.86 7.46-14.457 14.46-20.004 21.02-9.9-12.645-17.74-26.983-22.996-42.514-1.954-5.772-9.544-7.04-13.333-2.267-19.52 24.594-31.165 55.71-31.146 89.547v.088c.007 5.4-1.924 10.63-5.563 14.618-21.014 23.03-33.928 54.13-33.928 88.3 0 31.067 12.817 66.275 36.1 99.137 25.05 35.37 60.457 65.46 102.396 87.016a323.97 323.97 0 0 0 16.437 7.867c7.487 3.33 15.572 5.206 23.765 5.272 8.342.067 16.44-1.608 24.047-4.97 5.783-2.554 11.542-5.303 17.12-8.17 41.935-21.556 77.34-51.646 102.387-87.016 23.272-32.862 36.09-68.07 36.09-99.136.001-26.897-8-51.88-21.65-72.528z" fill="#fb973a"/><path d="M435.168 305.2c0 31.07-12.82 66.28-36.1 99.14-25.05 35.37-60.45 65.46-102.4 87.02a336.16 336.16 0 0 1-17.12 8.17 57.95 57.95 0 0 1-24.05 4.97c-8.1-.07-16.1-1.9-23.52-5.16 5.64-2.5 11.25-5.2 16.7-7.98 41.94-21.56 77.34-51.65 102.4-87.02 23.27-32.86 36.1-68.07 36.1-99.14 0-26.9-8-51.88-21.66-72.52-5.96-9.02-9.13-19.6-9.12-30.4v-.18c0-6.34-.4-12.6-1.2-18.72-.8-6.1-8-8.87-12.68-4.9a143.29 143.29 0 0 1-8.055 6.372c-5.57 4.09-13.35-.18-13-7.082 3.83-75.8-40.194-137.47-89.914-160.53-.6-6.26.8-9.78 7-9.75 66.78.3 143.99 82.37 129.34 186.77 8.06-4.54 15.64-9.83 22.63-15.78 4.7-3.98 11.9-1.2 12.68 4.9.8 6.13 1.2 12.38 1.2 18.72v.18c-.01 10.8 3.16 21.38 9.12 30.4 13.65 20.64 21.66 45.63 21.66 72.52z" fill="#fb1414"/><path d="M311.734 226.583c-22.27 0-42.226 10.55-55.73 27.217-13.504-16.668-33.46-27.217-55.73-27.217-40.685 0-73.67 35.198-73.67 78.62 0 37.948 34.674 102.417 111.47 141.888 4.67 2.4 9.496 4.708 14.48 6.9a8.56 8.56 0 0 0 6.906 0c4.983-2.202 9.81-4.5 14.48-6.9 76.786-39.47 111.46-103.94 111.46-141.888 0-43.423-32.978-78.62-73.662-78.62z" fill="#fc7575"/><path d="M385.398 305.2c0 37.948-34.676 102.417-111.46 141.888-4.672 2.4-9.5 4.708-14.484 6.91a8.56 8.56 0 0 1-6.909-.001c-4.978-2.2-9.804-4.508-14.476-6.908l-4.256-2.245C307.62 405.215 341.008 342.435 341.008 305.2c0-35.172-21.63-64.94-51.474-74.983a69.16 69.16 0 0 1 22.195-3.638c40.7 0 73.67 35.198 73.67 78.62z" fill="#ff3c3c"/><path d="M398.2 108.44c0 16.492 13.37 29.862 29.862 29.862a5 5 0 0 0 5-5v-18.138c0-16.492-13.37-29.862-29.862-29.862a5 5 0 0 0-5 5z" fill="red"/><path d="M119.598 88.964c0 16.492-13.37 29.862-29.862 29.862a5 5 0 0 1-5-5v-18.14c0-16.492 13.37-29.862 29.862-29.862a5 5 0 0 1 5 5z" fill="#fb1414"/><path d="M167.57 31.814c0 16.492 13.37 29.862 29.862 29.862a5 5 0 0 0 5-5v-18.14c0-16.492-13.37-29.862-29.862-29.862a5 5 0 0 0-5 5z" fill="red"/><path d="M419.77 228.54c-5.162-7.808-7.887-16.887-7.88-26.26v-.174a153.39 153.39 0 0 0-1.27-19.694 15.22 15.22 0 0 0-9.613-12.252c-5.213-2.012-11.097-1-15.36 2.616-2.83 2.406-5.765 4.7-8.788 6.874 1.078-18.487-.547-36.798-4.863-54.618a7.5 7.5 0 1 0-14.578 3.532c5.085 20.997 6.104 42.754 3.03 64.667a7.5 7.5 0 0 0 3.202 7.238c2.358 1.608 5.423 1.74 7.908.337a152.13 152.13 0 0 0 23.807-16.603c.083-.072.114-.1.242-.05.122.047.127.084.14.2.76 5.85 1.145 11.824 1.145 17.762v.17c-.008 12.323 3.577 24.266 10.367 34.537 13.352 20.196 20.4 43.847 20.4 68.394 0 29.527-12.327 63.195-34.7 94.802-24.353 34.4-58.826 63.672-99.694 84.68a316.31 316.31 0 0 1-16.724 7.98c-6.63 2.93-13.676 4.402-20.954 4.33-7.013-.057-14.004-1.613-20.78-4.626a316.68 316.68 0 0 1-16.055-7.684c-40.87-21.008-75.35-50.3-99.705-84.68-22.384-31.606-34.7-65.274-34.7-94.803 0-31.096 11.353-60.663 31.968-83.254 4.86-5.326 7.532-12.316 7.523-19.766-.018-31.176 10.2-60.526 29.52-84.88a.21.21 0 0 1 .354.009c5.472 16.167 13.612 31.217 24.195 44.733a7.5 7.5 0 0 0 5.764 2.875 7.54 7.54 0 0 0 5.868-2.655c5.6-6.632 12.15-13.503 19.44-20.422 47-44.616 37.314-89.787 32.104-114.054-.974-4.535-2.146-9.992-2.193-12.786 41.56.398 86.024 34.758 108.25 83.7 1.713 3.77 6.157 5.44 9.93 3.728a7.5 7.5 0 0 0 3.728-9.93c-12.207-26.88-30.456-49.967-52.773-66.77C286.1 9.244 261.445.105 238.56.001c-5.075-.034-8.954 1.6-11.57 4.822-4.897 6.03-3.088 14.455-.585 26.115 5.232 24.373 13.14 61.205-27.765 100.024-5.125 4.864-9.9 9.72-14.297 14.504a135.6 135.6 0 0 1-16.436-32.963 15.14 15.14 0 0 0-11.759-10.065 15.24 15.24 0 0 0-14.552 5.54c-21.46 27.036-32.792 59.615-32.77 94.307.004 3.6-1.275 7.003-3.603 9.554-23.143 25.36-35.888 58.52-35.888 93.365 0 32.606 13.307 69.354 37.47 103.473 25.744 36.35 62.083 67.246 105.088 89.35 5.478 2.816 11.137 5.524 16.818 8.05 8.667 3.854 17.668 5.845 26.753 5.92l.54.002a65.38 65.38 0 0 0 26.599-5.612c5.924-2.617 11.817-5.43 17.518-8.36 43.003-22.105 79.34-53.003 105.078-89.352 24.162-34.118 37.47-70.865 37.47-103.47-.001-27.498-7.918-54-22.896-76.666zm-279.2 29.978a7.5 7.5 0 0 0-10.203 2.898c-7.375 13.23-11.274 28.37-11.274 43.788 0 26.717 14.854 60.13 39.735 89.384a7.48 7.48 0 0 0 5.716 2.64 7.47 7.47 0 0 0 4.856-1.787c3.155-2.684 3.537-7.417.854-10.572-26.662-31.346-36.16-61.705-36.16-79.665 0-12.866 3.242-25.482 9.375-36.483 2.017-3.62.72-8.187-2.898-10.204zm41.532 149.724a7.5 7.5 0 0 0 .721 10.582c15.384 13.42 32.815 25.176 51.8 34.938a280.53 280.53 0 0 0 14.878 7.1 16.21 16.21 0 0 0 6.482 1.365c2.212 0 4.425-.455 6.487-1.366a281.15 281.15 0 0 0 14.875-7.1c45.38-23.327 72.477-53.036 87.217-73.85 17.995-25.4 28.315-52.64 28.315-74.707 0-47.487-36.4-86.12-81.163-86.12-20.847 0-40.732 8.476-55.73 23.514-14.998-15.038-34.883-23.514-55.73-23.514-16.492 0-32.373 5.225-45.926 15.108a7.5 7.5 0 1 0 8.838 12.12c10.97-8 23.795-12.228 37.088-12.228 19.13 0 37.32 8.907 49.902 24.438a7.5 7.5 0 0 0 11.656 0c12.583-15.53 30.77-24.438 49.902-24.438 36.482 0 66.163 31.905 66.163 71.12 0 18.754-9.554 43.44-25.557 66.038-13.772 19.45-39.15 47.238-81.833 69.18-4.577 2.352-9.314 4.613-14.08 6.72a1.05 1.05 0 0 1-.846.001c-4.77-2.107-9.507-4.368-14.083-6.72-17.916-9.208-34.336-20.277-48.805-32.9a7.5 7.5 0 0 0-10.581.721zm35.988-65.135v-9.124a7.5 7.5 0 1 0-15 0v9.124a7.5 7.5 0 1 0 15 0zm90.8 0v-9.124a7.5 7.5 0 1 0-15 0v9.124a7.5 7.5 0 1 0 15 0zm-52.9 38.98c12.354 0 23-8.8 25.3-20.927a7.5 7.5 0 1 0-14.734-2.808A10.77 10.77 0 0 1 256 367.086a10.78 10.78 0 0 1-10.575-8.735c-.775-4.07-4.703-6.743-8.77-5.963a7.5 7.5 0 0 0-5.963 8.771c2.3 12.127 12.954 20.927 25.3 20.927zM428.07 145.8c6.893 0 12.5-5.607 12.5-12.5v-18.138c0-20.602-16.76-37.36-37.36-37.36-6.893 0-12.5 5.607-12.5 12.5v18.138c0 20.602 16.76 37.36 37.36 37.36zM405.7 92.94c11.157 1.247 19.86 10.737 19.86 22.223v15.5c-11.157-1.247-19.86-10.737-19.86-22.223zM89.736 126.326c20.602 0 37.362-16.76 37.362-37.362V70.826c0-6.893-5.607-12.5-12.5-12.5-20.602 0-37.362 16.76-37.362 37.36v18.14c0 6.892 5.607 12.5 12.5 12.5zm2.5-30.64c0-11.485 8.704-20.976 19.862-22.223v15.5c0 11.485-8.704 20.977-19.862 22.224zm105.194-26.51c6.892 0 12.5-5.607 12.5-12.5V38.537c0-20.602-16.76-37.36-37.36-37.36-6.893 0-12.5 5.607-12.5 12.5v18.14c-.001 20.6 16.76 37.36 37.36 37.36zm-22.362-52.86c11.158 1.247 19.86 10.737 19.86 22.223v15.5C183.772 52.8 175.07 43.3 175.07 31.814z"/></g></svg>
