<?xml version="1.0" encoding="UTF-8" ?>
<svg version="1.1" width="13" height="5" xmlns="http://www.w3.org/2000/svg" shape-rendering="crispEdges">
<rect x="6" y="0" width="1" height="1" fill="#6ABE30" />
<rect x="9" y="0" width="1" height="1" fill="#000000" />
<rect x="11" y="0" width="1" height="1" fill="#000000" />
<rect x="6" y="1" width="1" height="1" fill="#6ABE30" />
<rect x="8" y="1" width="1" height="1" fill="#000000" />
<rect x="9" y="1" width="1" height="1" fill="#FFFFFF" />
<rect x="10" y="1" width="1" height="1" fill="#000000" />
<rect x="11" y="1" width="1" height="1" fill="#FFFFFF" />
<rect x="12" y="1" width="1" height="1" fill="#000000" />
<rect x="0" y="2" width="1" height="1" fill="#6ABE30" />
<rect x="5" y="2" width="1" height="1" fill="#6ABE30" />
<rect x="8" y="2" width="1" height="1" fill="#6ABE30" />
<rect x="9" y="2" width="1" height="1" fill="#000000" />
<rect x="10" y="2" width="1" height="1" fill="#FBF236" />
<rect x="11" y="2" width="1" height="1" fill="#000000" />
<rect x="1" y="3" width="1" height="1" fill="#6ABE30" />
<rect x="5" y="3" width="1" height="1" fill="#6ABE30" />
<rect x="7" y="3" width="1" height="1" fill="#6ABE30" />
<rect x="8" y="3" width="1" height="1" fill="#000000" />
<rect x="9" y="3" width="1" height="1" fill="#FFFFFF" />
<rect x="10" y="3" width="1" height="1" fill="#000000" />
<rect x="11" y="3" width="1" height="1" fill="#FFFFFF" />
<rect x="12" y="3" width="1" height="1" fill="#000000" />
<rect x="2" y="4" width="1" height="1" fill="#6ABE30" />
<rect x="3" y="4" width="1" height="1" fill="#6ABE30" />
<rect x="4" y="4" width="1" height="1" fill="#6ABE30" />
<rect x="5" y="4" width="1" height="1" fill="#6ABE30" />
<rect x="6" y="4" width="1" height="1" fill="#6ABE30" />
<rect x="9" y="4" width="1" height="1" fill="#000000" />
<rect x="11" y="4" width="1" height="1" fill="#000000" />
</svg>