<svg xmlns="http://www.w3.org/2000/svg" height="512" width="316"  xmlns:v="https://vecta.io/nano"><g transform="rotate(315)"><ellipse cx="-141.254" cy="185.776" fill="#eab14d" rx="33.335" ry="16.117"/><ellipse cx="37.578" cy="364.645" rx="16.117" ry="33.335" fill="#f6e266"/></g><path d="M302.415 129.26c0 67.24-64.66 121.75-144.42 121.75-5.4 0-10.7-.25-15.93-.74-72.26-6.68-128.48-58.3-128.48-121C13.585 62 78.245 7.5 157.995 7.5c79.76 0 144.42 54.5 144.42 121.76z" fill="#f6e266"/><path d="M99.525 116.3l42.54 133.96c-72.26-6.68-128.48-58.3-128.48-121C13.585 62 78.245 7.5 157.995 7.5c-49.22 10.36-58.47 75.44-58.47 108.8z" fill="#eab14d"/><path d="M197.148 442.08l-10 39.02-29.15 11.75-29.15-11.75-10-39.02 40.93-21.95z" fill="#f1d0a5"/><path d="M144.978 487.6l-16.13-6.5-10-39.02 19.67-10.55zm13.02-63.586h13.526v60.3h-13.526z" fill="#f1b986"/><path d="M103.387 504.5h54.61v-23.402h-31.2c-12.924 0-23.4 10.478-23.4 23.402z" fill="#70c6da"/><path d="M141.708 481.095c-12.923 0-23.405 10.482-23.405 23.405h-14.916c0-12.923 10.472-23.405 23.395-23.405z" fill="#63afcb"/><path d="M212.61 504.5h-54.61v-23.402h31.2c12.924 0 23.4 10.478 23.4 23.402z" fill="#70c6da"/><path d="M262.947 412.5c-3.85 3.85-11.22 4.27-17.88 3.66-7.3-.68-13.76-2.6-13.76-2.6l-19.85-11.04-9.98-78.48 57.1 9.87 4.37 49.77s8.08 20.74 0 28.82z" fill="#f1d0a5"/><path d="M245.067 416.15c-7.3-.68-13.76-2.6-13.76-2.6l-19.85-11.04-5.33-41.9 4.66-32.6 25.27-.66a103.03 103.03 0 0 0 .79 2.78c3.08 11.15 13.8 53.58 8.22 86zM57.43 333.9l-4.37 49.773s-8.082 20.733 0 28.815 31.64 1.062 31.64 1.062l28.986-85.53-42.565-7.98z" fill="#f1b986"/><path d="M229.135 442.08H86.865c-5.04-31.45-3.37-57.13-.5-74.78l73.2-20.66 70.05 20.66c2.87 17.65 4.55 43.33-.5 74.78z" fill="#da4a54"/><path d="M105.975 442.08h-19.1c-5.04-31.45-3.37-57.13-.5-74.78l24.63-6.95c-4.02 25.6-6.65 54.37-5.03 81.73z" fill="#c32430"/><path d="M222.926 340.58l-.06.01s3.9 9.58 6.7 26.7H86.316c2.7-16.6 6.46-26.1 6.7-26.68.01-.02.01-.03.01-.03l-35.65-6.7c9.87-51.44 33.4-70.47 38.35-73.97h124.45c4.96 3.5 28.48 22.53 38.35 73.97l-19.73 3.7z" fill="#b9e4ef"/><path d="M238.787 337.6l-15.86 2.98-6.82-20.54s19.66 3.97 22.68 17.56zm-125.77-19.56l-3.05 49.26h-23.65c2.7-16.6 6.46-26.1 6.7-26.68l.07-.03s3.98-15.9 19.94-22.55zm6.74-58.1c-35.5 32.83-41.53 77.87-41.53 77.87h-.08l-20.78-3.9c9.87-51.44 33.4-70.47 38.35-73.97z" fill="#7ad0df"/><ellipse cx="158.004" cy="263.539" fill="#f1b986" rx="50.876" ry="36.943"/><path d="M260.905 207.68c-1.52 29.7-25.28 53.33-54.98 54.73-25.16 1.2-50.32 1.44-75.5.75h-.01l-20.35-.75c-29.7-1.4-53.45-25.04-54.98-54.73-1.08-21.16-.35-102.8-.35-102.8s17.46 9.53 44.78 11.42c27.88 1.92 66.04-4.1 106.36-36.36 0 0 26.04 38.05 55.52 48.1l-.5 79.62z" fill="#f1d0a5"/><path d="M130.425 263.16l-20.35-.75c-29.7-1.4-53.45-25.04-54.98-54.73-1.08-21.16-.35-102.8-.35-102.8s17.46 9.53 44.78 11.42c.82 96.56 11.37 146.1 30.9 146.85z" fill="#f1b986"/><g fill="#eaac9d"><ellipse cx="222.18" cy="192.677" rx="15.297" ry="9.644"/><ellipse cx="93.819" cy="192.677" rx="15.297" ry="9.644"/></g><path d="M109.985 144.833c-5.195 0-9.423 6.285-9.423 14s4.228 14 9.423 14 9.424-6.285 9.424-14-4.227-14-9.424-14zm96.037 0c-5.195 0-9.423 6.285-9.423 14s4.228 14 9.423 14 9.424-6.285 9.424-14-4.227-14-9.424-14zm-23.704 47.407a7.5 7.5 0 0 0-9.991 3.56 15.93 15.93 0 0 1-14.325 9.06c-6.1 0-11.714-3.556-14.326-9.06a7.5 7.5 0 1 0-13.551 6.431c5.083 10.7 16.025 17.63 27.877 17.63s22.793-6.92 27.876-17.63a7.5 7.5 0 0 0-3.56-9.991zm118.864 22.32c-5.213-5.22-11.468-9.166-18.286-11.644 17.557-21.45 27.014-46.908 27.014-73.657 0-21.554-6.353-42.9-18.37-61.698a7.5 7.5 0 1 0-12.64 8.076c10.475 16.393 16 34.935 16 53.622 0 24.444-9.18 47.745-26.165 67.153.35-18.906.262-49.466.16-68.394-.018-3.194-2.056-6.026-5.078-7.058-26.733-9.123-51.508-44.9-51.753-45.248-1.18-1.72-3.02-2.875-5.084-3.182a7.54 7.54 0 0 0-5.8 1.56c-31.37 25.092-64.898 36.8-99.624 34.824-26.02-1.486-43.088-10.53-43.24-10.612a7.5 7.5 0 0 0-11.091 6.517l.01 91.6c-17-19.412-26.174-42.717-26.174-67.164C21.08 66.257 82.498 15 158 15c39.42 0 76.956 14.22 102.987 39a7.5 7.5 0 0 0 10.346-10.862C242.53 15.727 201.222 0 158 0 74.226 0 6.08 57.986 6.08 129.26c0 26.748 9.458 52.205 27.017 73.66a49.92 49.92 0 0 0-18.273 11.635C3.962 225.405-1.26 240.397.494 255.685a7.5 7.5 0 0 0 6.596 6.596c1.947.223 3.887.333 5.816.333 13.222 0 25.846-5.185 35.3-14.658 3.165-3.16 5.856-6.704 8.042-10.517 6.064 10.504 14.967 19.115 25.7 24.837-10.214 10.9-24.6 32.232-31.886 70.2a7.85 7.85 0 0 0-.107.805l-4.277 48.74c-.7 2.012-2.195 6.585-3.048 11.812-1.752 10.736-.025 18.794 5.13 23.948 4.672 4.672 11.826 6.1 18.794 6.1 3.665 0 7.27-.395 10.443-.913.536 6.47 1.335 13.24 2.466 20.3a7.5 7.5 0 0 0 7.405 6.313h26.162l6.385 24.915c-13.488 3.317-23.526 15.508-23.526 30.005a7.5 7.5 0 0 0 7.5 7.5H212.61a7.5 7.5 0 0 0 7.5-7.5c0-14.497-10.037-26.7-23.526-30.005l6.385-24.915h26.166a7.5 7.5 0 0 0 7.405-6.313 268.19 268.19 0 0 0 2.466-20.3c3.173.518 6.78.914 10.448.914 6.967 0 14.123-1.42 18.795-6.1 5.154-5.155 6.88-13.212 5.13-23.948-.853-5.227-2.338-9.8-3.048-11.812l-4.285-48.786c-.022-.253-.056-.506-.105-.758-7.286-37.975-21.67-59.297-31.884-70.208a64.99 64.99 0 0 0 25.69-24.834 49.96 49.96 0 0 0 8.033 10.505c9.47 9.48 22.092 14.665 35.315 14.664a51.07 51.07 0 0 0 5.815-.333 7.5 7.5 0 0 0 6.596-6.596c1.758-15.287-3.465-30.278-14.32-41.124zM15.24 247.534c.563-8.394 4.117-16.307 10.2-22.374a34.91 34.91 0 0 1 19.22-9.817l2.808 2.598a34.94 34.94 0 0 1-9.85 19.41c-6.062 6.068-13.974 9.62-22.368 10.184zm43.123 159.65c-2.62-2.618-1.27-13.14 1.685-20.787a7.55 7.55 0 0 0 .483-2.068l3.645-41.53 19.1 3.584c-3.18 11.12-7.762 32.486-7.085 61.517-8.564 1.608-15.957 1.156-17.827-.715zm92.134 66.414h-15.83l-6.155-24.018h21.985zm-23.7 15h23.7V497H112.77c2.683-4.997 7.96-8.402 14.018-8.402zm76.44 8.402h-37.73v-8.402h23.7c6.058 0 11.335 3.405 14.02 8.402zm-21.9-23.402h-15.83V449.58h21.985zm76.315-66.414c-2.027 2.027-9.702 2.193-17.833.688.674-29.017-3.907-50.374-7.085-61.5l19.104-3.585 3.646 41.532a7.57 7.57 0 0 0 .483 2.068c3.904 10.018 3.612 18.86 1.685 20.787zm-7.992-79.24l-28.1 5.275a7.5 7.5 0 0 0-5.19 3.777 7.52 7.52 0 0 0-.374 6.415c1.48 3.673 3.173 9.25 4.68 16.4H139.28a7.5 7.5 0 1 0 0 15h83.86c2.008 16.086 2.618 36.6-.484 59.78H93.343c-3.102-23.17-2.493-43.696-.485-59.78h16.463a7.5 7.5 0 1 0 0-15H95.344c1.505-7.136 3.196-12.707 4.675-16.375a7.5 7.5 0 0 0-.357-6.423c-1.078-1.98-2.988-3.368-5.202-3.783l-28.1-5.275c8.568-36.96 24.2-53.875 31.083-59.78a64.93 64.93 0 0 0 2.588.555c1.534 10.33 7.64 19.778 17.6 27 10.88 7.9 25.223 12.25 40.384 12.25s29.503-4.35 40.384-12.25c9.96-7.232 16.066-16.68 17.6-27a64.16 64.16 0 0 0 2.58-.554c6.874 5.905 22.514 22.82 31.082 59.78zM115.8 270.152c14.023.578 28.114.885 42.212.885s28.192-.307 42.213-.885c-4.56 12.9-22.036 22.828-42.213 22.828s-37.653-9.93-42.212-22.828zm89.778-15.234a1011.73 1011.73 0 0 1-95.142 0c-25.94-1.223-46.508-21.697-47.844-47.62-.817-16-.578-68-.425-91.1 8.5 3.053 21.532 6.64 37.757 7.66 25.415 1.595 63.68-3.08 104.484-33.3 8.5 10.948 27.514 32.97 49.53 42.63l-.516 74.1c-1.326 25.926-21.893 46.4-47.843 47.622zm72.815-17.575a34.92 34.92 0 0 1-9.847-19.411l2.8-2.6a34.92 34.92 0 0 1 19.236 9.825c6.068 6.063 9.622 13.974 10.185 22.368-8.394-.563-16.308-4.118-22.374-10.2z"/></svg>