<svg xmlns="http://www.w3.org/2000/svg" width="590" height="512" viewBox="0 0 512.04 512"  xmlns:v="https://vecta.io/nano"><path d="M320.303 468.87l-64.28 33.368-64.28-33.368a535.87 535.87 0 0 1-106.573-72.324c-77.526-68.3-131.4-161.234-108.437-268.197 7.4-37.963 29.76-71.354 62.042-92.656s71.78-28.72 109.596-20.588a146.29 146.29 0 0 1 107.651 106.667A146.29 146.29 0 0 1 363.675 15.106a137.42 137.42 0 0 1 47.204-2.552c61.992 7.97 112.026 54.535 124.434 115.795 32.577 152.007-89.696 275.56-215 340.52zm0 0" fill="#c81e1e"/><path d="M471.92 178.006c.018 91.996-49.5 176.875-129.595 222.14s-178.353 43.884-257.15-3.598c-77.526-68.3-131.4-161.234-108.437-268.197 7.4-37.963 29.76-71.354 62.042-92.656s71.78-28.72 109.596-20.588a146.29 146.29 0 0 1 107.651 106.667A146.29 146.29 0 0 1 363.675 15.106a137.42 137.42 0 0 1 47.204-2.552 253.63 253.63 0 0 1 61.04 165.452zm0 0" fill="#f44335"/><path d="M177.52 281.438c0-13.548-19.775-24.536-44.163-24.536s-44.16 10.998-44.16 24.536 19.77 24.532 44.158 24.532 44.163-10.983 44.163-24.532zm245.33 0c0-13.548-19.77-24.536-44.158-24.536S334.53 267.9 334.53 281.438s19.77 24.532 44.163 24.532 44.158-10.983 44.158-24.532zm0 0" fill="#bb193b"/><path d="M475.382 25.307a148.61 148.61 0 0 0-113.904-19.72c-46.786 11-85.77 43.183-105.454 87.032A154.35 154.35 0 0 0 150.561 5.587 148.6 148.6 0 0 0 36.666 25.37a157.61 157.61 0 0 0-69.499 100.926c-33.737 157.438 91.538 284.68 220.028 351.312L251.5 510.97a9.83 9.83 0 0 0 9.029 0l64.315-33.363c128.486-66.606 253.764-193.874 220.014-351.32-8.58-41.66-33.642-78.08-69.485-100.98zm-159.567 434.88l-59.8 31-59.8-31C74.162 396.9-45.06 277.05-13.637 130.4a138.09 138.09 0 0 1 60.842-88.477 128.99 128.99 0 0 1 98.958-17.223c49.4 11.855 88.105 50.236 100.37 99.547a9.82 9.82 0 0 0 9.492 7.313 9.81 9.81 0 0 0 9.488-7.313c12.273-49.324 51-87.705 100.423-99.547a129.14 129.14 0 0 1 98.909 17.192 138.12 138.12 0 0 1 60.842 88.51c31.423 146.638-87.8 266.5-209.87 329.776zM137.372 62.96c5.247 1.137 10.43-2.16 11.635-7.4a9.81 9.81 0 0 0-7.24-11.734A110.22 110.22 0 0 0 117.087 41C62.604 42.238 16.263 81.096 5.558 134.53c-1.137 5.3 2.242 10.52 7.542 11.653s10.516-2.237 11.653-7.538c8.728-44.4 47.092-76.82 92.332-78.007 6.828.01 13.634.8 20.287 2.322zM111.7 269.593l-9.815 9.815c-2.547 2.462-3.57 6.1-2.673 9.54a9.81 9.81 0 0 0 7.008 7.008c3.432.898 7.08-.126 9.54-2.677l9.815-9.8a9.812 9.812 0 1 0-13.876-13.876zm39.252 0l-9.8 9.815c-2.552 2.462-3.576 6.1-2.677 9.54a9.81 9.81 0 0 0 7.008 7.008c3.432.898 7.08-.126 9.54-2.677l9.815-9.8a9.812 9.812 0 1 0-13.876-13.876zm0 0"/><path d="M400.35 269.593a9.82 9.82 0 0 0-13.76.12c-3.787 3.786-3.836 9.905-.117 13.755l9.8 9.8c3.854 3.72 9.973 3.67 13.76-.117a9.81 9.81 0 0 0 .117-13.755zm-39.254 0a9.82 9.82 0 0 0-13.76.12c-3.787 3.786-3.836 9.905-.117 13.755l9.8 9.8c3.85 3.72 9.973 3.67 13.76-.117a9.81 9.81 0 0 0 .117-13.755zM20.503 178.397c0 5.422-4.393 9.815-9.8 9.815a9.82 9.82 0 0 1-9.816-9.815 9.81 9.81 0 1 1 19.625 0zm161.4 30.47L142.65 189.24c-4.852-2.42-10.745-.454-13.17 4.398s-.454 10.745 4.398 13.167l21.697 10.844-21.697 10.844a9.82 9.82 0 0 0-4.398 13.17c2.422 4.85 8.32 6.82 13.17 4.393l39.253-19.626c3.333-1.658 5.436-5.058 5.436-8.782a9.81 9.81 0 0 0-5.436-8.782zm0 0"/><path d="M382.614 193.64a9.79 9.79 0 0 0-5.674-4.928 9.8 9.8 0 0 0-7.493.53l-39.253 19.626c-3.333 1.662-5.44 5.063-5.44 8.782a9.81 9.81 0 0 0 5.44 8.782l39.253 19.626a9.81 9.81 0 0 0 13.167-4.393 9.82 9.82 0 0 0-4.393-13.171l-21.747-10.844 21.697-10.795a9.82 9.82 0 0 0 4.977-5.683 9.8 9.8 0 0 0-.535-7.533zm-87.337 63.262a9.82 9.82 0 0 0-9.815 9.815v9.8c0 5.422-4.393 9.815-9.8 9.815a9.82 9.82 0 0 1-9.815-9.815v-9.8c0-5.422-4.393-9.815-9.8-9.815a9.82 9.82 0 0 0-9.815 9.815v9.8c0 5.422-4.393 9.815-9.8 9.815a9.82 9.82 0 0 1-9.815-9.815v-9.8c0-5.422-4.393-9.815-9.8-9.815a9.82 9.82 0 0 0-9.815 9.815v9.8a29.32 29.32 0 0 0 17.416 26.922c10.637 4.72 23.054 2.7 31.652-5.135 8.594 7.843 21.014 9.856 31.647 5.135a29.32 29.32 0 0 0 17.42-26.922v-9.8a9.82 9.82 0 0 0-9.815-9.815zm0 0"/></svg>