<svg xmlns="http://www.w3.org/2000/svg" width="512" height="512"  xmlns:v="https://vecta.io/nano"><g fill="#ffc2c2"><circle cx="256" cy="256" r="256"/><circle cx="256" cy="186.88" r="186.88"/></g><path fill="#db4242" d="M278.03 452.93L454.27 276.7l44.06-64.908-44.06-67.273-88.12-88.12-109.9 109.902-22.28-21.782-44.06-44.06-63.844-44.06-24.276 44.06-88.12 88.12 44.06 88.12 176.24 176.24 20.476 29.1z"/><g fill="#ff5757"><path d="M454.27 208.353V276.7h44.06V144.51h-44.06v44.06z"/><path d="M410.206 276.7h44.063v44.063h-44.063zm0-176.244h44.063v44.063h-44.063z"/><path d="M366.153 320.752h44.063v44.063h-44.063zM410.2 100.45V56.4h-88.1v44.06h44.06z"/><path d="M322.1 364.805h44.063v44.063H322.1zm-44.074 44.065h44.063v44.063h-44.063z"/><path d="M278.026 100.446h44.063v44.063h-44.063zm-44.052 352.486h44.063v44.063h-44.063z"/><path d="M233.974 144.5h44.063v44.063h-44.063zM189.9 408.87h44.063v44.063H189.9z"/><path d="M189.9 100.446h44.063v44.063H189.9zm-44.053 264.36H189.9v44.063h-44.063z"/><path d="M126.066 56.4H101.8v44.06h88.12V56.4h-44.06zm-24.272 264.362h44.063v44.063h-44.063z"/><path d="M57.73 276.7h44.063v44.063H57.73zm0-176.244h44.063v44.063H57.73z"/><path d="M57.73 188.57v-44.06H13.67V276.7h44.06v-44.06z"/></g></svg>