<svg xmlns="http://www.w3.org/2000/svg" height="512" viewBox="0 0 24 24" width="512"  xmlns:v="https://vecta.io/nano"><path d="M19 12c0 2.16-.98 4.16-2.67 5.5-.7.54-1.14 1.25-1.28 2-.02-.01-.03-.01-.05-.01H9c-.02 0-.05 0-.07.01-.14-.8-.55-1.48-1.14-1.92-2.18-1.65-3.2-4.35-2.64-7.07.55-2.65 2.7-4.8 5.35-5.36 2.1-.45 4.27.07 5.9 1.4A6.97 6.97 0 0 1 19 12z" fill="#ffc107"/><path d="M15.05 19.5c-.03.17-.05.34-.05.52v2.22A1.76 1.76 0 0 1 13.25 24h-2.5C9.9 24 9 23.36 9 21.96V20.2c0-.23-.02-.46-.07-.68.02-.01.05-.01.07-.01h6a.09.09 0 0 1 .05.01z" fill="#607d8b"/><path d="M14.25 21h-4.5a.75.75 0 1 1 0-1.5h4.5a.75.75 0 1 1 0 1.5zM12 3.457a.75.75 0 0 1-.75-.75V.75a.75.75 0 1 1 1.5 0v1.957a.75.75 0 0 1-.75.75zm6.57 2.723c-.192 0-.384-.073-.53-.22a.75.75 0 0 1 0-1.061l1.384-1.384a.75.75 0 1 1 1.061 1.061L19.102 5.96a.75.75 0 0 1-.531.22zm4.68 6.57h-1.957a.75.75 0 1 1 0-1.5h1.957a.75.75 0 1 1 0 1.5zm-3.295 7.955c-.192 0-.384-.073-.53-.22L18.04 19.1a.75.75 0 1 1 1.061-1.061l1.384 1.384a.75.75 0 0 1-.531 1.281zm-15.9 0c-.192 0-.384-.073-.53-.22a.75.75 0 0 1 0-1.061L4.9 18.04a.75.75 0 1 1 1.061 1.061l-1.384 1.384a.75.75 0 0 1-.531.22zM2.707 12.75H.75a.75.75 0 1 1 0-1.5h1.957a.75.75 0 1 1 0 1.5zM5.43 6.18c-.192 0-.384-.073-.53-.22L3.515 4.575a.75.75 0 1 1 1.061-1.061L5.96 4.898a.75.75 0 0 1 0 1.061c-.148.146-.34.22-.53.22z"/><path d="M15.75 12.5a.75.75 0 0 1-.75-.75C15 10.233 13.767 9 12.25 9a.75.75 0 1 1 0-1.5c2.343 0 4.25 1.907 4.25 4.25a.75.75 0 0 1-.75.75zM13.25 24h-2.5C9.907 24 9 23.36 9 21.956v-1.764c0-1.06-.452-2.035-1.2-2.605-2.185-1.645-3.196-4.35-2.64-7.062a6.99 6.99 0 0 1 5.347-5.368c2.1-.444 4.268.07 5.914 1.408S19 9.882 19 12c0 2.158-.975 4.16-2.675 5.498-.842.662-1.325 1.584-1.325 2.53v2.223c0 .965-.785 1.75-1.75 1.75zM11.986 6.502a5.81 5.81 0 0 0-1.182.123 5.47 5.47 0 0 0-4.184 4.201c-.44 2.137.355 4.27 2.072 5.562 1.13.852 1.807 2.274 1.807 3.804v1.764c0 .1.012.544.25.544h2.5a.25.25 0 0 0 .25-.25v-2.223c0-1.4.692-2.76 1.898-3.7A5.46 5.46 0 0 0 17.5 12a5.48 5.48 0 0 0-2.034-4.27c-.988-.802-2.213-1.227-3.48-1.227z"/></svg>