<svg xmlns="http://www.w3.org/2000/svg" width="512" height="512"  xmlns:v="https://vecta.io/nano"><g transform="matrix(0 1 -1 0 512.000512 -.000434)"><path d="M362.665 192h-68.907l78.656-177.067A10.67 10.67 0 0 0 366.905.89c-1.338-.584-2.78-.887-4.24-.9H149.33a10.67 10.67 0 0 0-10.699 10.634l.032.865 21.333 277.333a10.67 10.67 0 0 0 10.667 9.835h33.024L224.062 502.4a10.67 10.67 0 0 0 20.416 3.136l128-298.667a10.67 10.67 0 0 0-5.601-14.006c-1.33-.57-2.764-.864-4.212-.863z" fill="#ffc107"/><path d="M234.665 512a10.67 10.67 0 0 1-10.667-9.6l-20.31-203.733h-33.024a10.67 10.67 0 0 1-10.667-9.835L138.665 11.5A10.67 10.67 0 0 1 148.467.033a10.4 10.4 0 0 1 .865-.032h213.333a10.67 10.67 0 0 1 9.749 14.933L293.758 192h68.907a10.67 10.67 0 0 1 10.704 10.629c.005 1.48-.298 2.947-.9 4.304l-128 298.667a10.67 10.67 0 0 1-9.814 6.4zm-54.123-234.667h32.79a10.67 10.67 0 0 1 10.667 9.6l17.237 172.16 105.26-245.76H277.33a10.67 10.67 0 0 1-10.64-10.693 10.69 10.69 0 0 1 .89-4.24l78.656-177.067H160.85l19.69 256z"/></g></svg>