<svg xmlns="http://www.w3.org/2000/svg" width="555" height="512" viewBox="0 0 449.266 449.266"  xmlns:v="https://vecta.io/nano"><g transform="matrix(-1.08 0 0 1.08 467.236916 -17.970632)"><path d="M426.73 114.75c7.58 20.56 9.12 41.86 5.5 63.55-8.2 49.33-31.4 91.77-60.98 131-15.98 21.2-33.3 41.45-50.45 61.73-12.3 14.53-25.5 28.3-38 42.67-3.83 4.4-7.1 5.36-12.66 2.84l-80.9-35.64c-6.2-2.67-9.06-6.02-8.06-13.32 1.53-11.15 1.92-22.46 2.64-33.72.25-3.94.04-7.9-1.25-11.94-4.65 16.66-6.37 33.65-6.9 51.6l-19.35-9.57c1.3-21.63 11.28-41.93 7.58-63.5l-2.44-.32-11.05 59.72c-6.12-4-12.12-7.73-17.8-11.87-1.05-.76-1.37-3.34-1.12-4.94l8.97-55.53c.33-2.04.04-4.18.04-6.27l-2.4-.15c-7.05 19.93-8.7 41.06-12.62 62.54-5.7-3.9-11.22-7.17-16.04-11.25-1.37-1.16-1.36-4.77-.96-7.08l6.55-34.7c1.37-8.25 4.23-16.5.77-25.16-5.97 19.9-10.05 40.2-13.54 61.55l-14.58-12.88c-.57-.52-.13-2.33.12-3.5l12.72-58.83c.63-2.98.58-6.1.88-9.6-5.84 3.3-14.68 36.95-18.44 68.04-2.4-1.85-4.78-3.48-6.94-5.36-12.1-10.5-12.36-11.52-7.8-29.37l12.17-47.42c.4-1.6.4-3.33.58-5l-2-.8c-1.38 2.48-3.23 4.82-4.07 7.48-3.57 11.36-7.08 22.74-10.15 34.24-2.08 7.8-3.4 15.8-5.23 24.46-4.3-5.46-8.82-10.5-12.4-16.13-1.17-1.83-.42-5.32.26-7.84l14.23-51.52c1.3-4.84 1.88-9.9 2.78-14.84l-2.84-.7c-8.06 21.7-14.43 43.9-20 67.32l-9.7-16.97c1.27-1.94 2.56-3.15 2.95-4.6l16.92-63.97c.12-.46-.1-1.02-.2-1.57-8.07 2.87-21.75 46.77-21.75 66.77-3.22-8.24-6.72-16.4-9.47-24.78-.76-2.3.52-5.42 1.24-8.06l14.42-53.14c.73-2.72.72-5.64.06-8.7-8.63 18-12.72 37.38-19.72 56.25-.74-9.96-1.9-19.92-2.15-29.9-.5-19.7 2.17-38.74 11.7-56.55 17.56-32.85 44.26-54.4 80.3-62.74 13.14-3.05 27.48-1.45 41.26-1.06 17.24.48 32.8 7.4 47.94 14.9 6.2 3.06 11.5 7.87 17.24 11.87 7.18 5 9.22 4.9 14.98-1.5 13.32-14.8 29.05-26.45 45.9-36.93 11.57-7.2 24.25-10.27 37.23-12.33 14.78-2.35 29.48-2.4 44.16 2.5 15.34 5.14 27.4 13.8 38.05 26.05 14.3 16.45 26.37 34.05 33.88 54.44zm-77.46 54.82c4.38-4.16 7.22-9.66 5.98-16.32-3.2-17.2-24.95-27.28-41.54-19.45-14.35 6.76-17.07 17.26-15 27.03 2.62 12.38 13.06 20.24 24.5 19.7 11.08.3 19.17-4.43 26.06-10.96zm-106.36 30.8c17.06-5.54 29.97-20.36 22.77-40.17-1.8-4.95-6.6-7.9-10.84-6.16-4.38 1.8-6.16 4.92-4.77 10.2 1.68 6.37 1.54 12.76-4.7 17.47-6.32 4.76-12.82 6.5-20.36 3.25-6.87-2.95-10.08-8.76-12.45-15.3-1.36-3.72-3.45-6.74-7.9-6.1-5.05.7-5.53 4.57-5.46 8.78.27 16.08 15.53 29.3 34 29.66 3.25-.52 6.63-.6 9.72-1.62zm14.52 180.07l1.05-14.76c-4.8 5.02-5.23 9.47-1.05 14.76zm-16.57-18.7l-1.6-.2c-4.4 8.47-4.6 17.07.2 20.37l1.4-20.17zm-18.8 25.7c3-7.4 2.1-34.9-1.05-37.84-4 22.82-3.82 32.1 1.05 37.84zm-18.48-3.52l3.14-49.1-2.6-1.1c-.36.85-.95 1.68-1.04 2.55l-4.37 42.25c-.17 1.97 1.6 4.1 2.46 6.17l2.4-.77zM150.3 214.66c18.22-4.17 22.12-23.4 13.57-34.83-6.37-8.5-14.73-12.24-24.96-12.7-.93 0-1.88-.13-2.78.02-8.93 1.48-17.24 4.1-20.96 13.52-3.47 8.83-1.86 17.06 4.2 24.16 8.2 9.6 19.2 12.5 30.92 9.83z" fill="#c1272d"/><path d="M437.9 102.72c9.34 20.8 12.65 42.7 10.93 65.64-3.17 42.2-20.9 78.96-41.4 114.8-13.32 23.33-30.34 43.97-47.65 64.33L300.23 416c-3.76 4.3-7.26 9.08-11.78 12.42-7.27 5.37-15.82 4.84-23.73 1.5l-65.37-28.55c-34.7-16.08-67.66-35.4-98-58.64-28.13-21.56-55.43-44.3-74.03-75.38-11.47-19.17-20.8-39.22-24.84-61.38C1.35 199.76.8 193.44 0 187.16v-24.5c1.47-7.67 2.66-15.4 4.47-23C9.13 120.1 19.2 103.22 32 88c16.7-19.87 38.46-32.48 62.67-40.64 8.36-2.8 17.7-3.2 26.64-3.65 18.84-.96 37.62-.3 55.57 6.58C191.78 56 207 61.2 217.9 73.94c16.92-20 36.44-36.32 60.02-46.45 12.03-5.16 25.64-6.88 38.68-9.4 13.6-2.6 27.1-1.13 40.26 3.2 16.37 5.38 31 12.73 43.2 26.06 15.36 16.8 28.57 34.73 37.84 55.36zm-5.66 75.58c3.6-21.7 2.07-43-5.5-63.55-7.5-20.4-19.57-38-33.88-54.44-10.66-12.25-22.7-20.9-38.05-26.05-14.68-4.9-29.38-4.85-44.16-2.5-12.98 2.06-25.66 5.14-37.23 12.33-16.85 10.48-32.58 22.14-45.9 36.93-5.76 6.4-7.8 6.5-14.98 1.5-5.73-4-11.05-8.8-17.24-11.87-15.13-7.5-30.7-14.43-47.94-14.9-13.78-.4-28.12-2-41.26 1.06-36.03 8.34-62.73 29.9-80.3 62.74-9.52 17.8-12.2 36.85-11.7 56.55.25 9.97 1.4 19.93 2.15 29.9 7-18.87 11.1-38.26 19.72-56.25.66 3.05.67 5.97-.06 8.7l-14.4 53.1c-.72 2.64-2 5.75-1.24 8.06 2.75 8.4 6.25 16.54 9.47 24.78 0-20 13.68-63.9 21.75-66.77.08.55.3 1.1.2 1.57l-16.92 63.97c-.4 1.44-1.68 2.65-2.95 4.6l9.7 16.97c5.58-23.4 11.95-45.63 20-67.32l2.84.7c-.9 4.95-1.48 10-2.78 14.84l-14.23 51.52c-.68 2.52-1.43 6-.26 7.84 3.6 5.63 8.1 10.67 12.4 16.13 1.82-8.66 3.15-16.66 5.23-24.46 3.07-11.5 6.58-22.88 10.15-34.24.84-2.66 2.7-5 4.07-7.48l2 .8c-.18 1.68-.17 3.4-.58 5L68.2 275.5c-4.55 17.85-4.28 18.87 7.8 29.37 2.16 1.88 4.53 3.5 6.94 5.36 3.76-31.1 12.6-64.74 18.44-68.04-.3 3.5-.25 6.62-.88 9.6l-12.7 58.83c-.25 1.16-.7 2.97-.12 3.5 4.72 4.42 9.66 8.6 14.58 12.88 3.5-21.35 7.57-41.65 13.54-61.55 3.46 8.65.6 16.9-.77 25.16-1.9 11.6-4.52 23.1-6.55 34.7-.4 2.3-.4 5.92.96 7.08 4.82 4.08 10.33 7.35 16.04 11.25 3.92-21.48 5.57-42.6 12.62-62.54l2.4.15c0 2.1.3 4.23-.04 6.27l-8.97 55.53c-.25 1.6.07 4.18 1.12 4.94 5.7 4.14 11.7 7.86 17.8 11.87l11.05-59.72 2.44.32c3.7 21.58-6.3 41.88-7.58 63.5l19.35 9.57c.54-17.94 2.26-34.93 6.9-51.6 1.3 4.03 1.5 8 1.25 11.94-.72 11.26-1.1 22.57-2.64 33.72-1 7.3 1.87 10.65 8.06 13.32l80.9 35.64c5.56 2.52 8.83 1.57 12.66-2.84l38-42.67c17.16-20.28 34.47-40.52 50.45-61.73 29.58-39.24 52.77-81.68 60.98-131zm-77-25.05c1.24 6.66-1.6 12.16-5.98 16.32-6.9 6.53-14.98 11.25-26.06 10.96-11.43.54-21.87-7.32-24.5-19.7-2.08-9.77.64-20.27 15-27.03 16.6-7.83 38.34 2.26 41.54 19.45zm-89.57 6.95c7.2 19.8-5.7 34.63-22.77 40.17-3.1 1-6.47 1.1-9.72 1.62-18.47-.35-33.73-13.58-34-29.66-.07-4.2.4-8.07 5.46-8.78 4.45-.63 6.54 2.4 7.9 6.1 2.37 6.55 5.58 12.36 12.45 15.3 7.54 3.25 14.04 1.5 20.36-3.25 6.25-4.7 6.4-11.1 4.7-17.47-1.4-5.3.4-8.4 4.77-10.2 4.25-1.75 9.04 1.2 10.84 6.16zm-7.2 205.48l-1.05 14.76c-4.18-5.3-3.76-9.74 1.05-14.76zm-19.22-4.14l1.6.2-1.4 20.17c-4.8-3.3-4.6-11.9-.2-20.37zM221 349.6c3.14 2.95 4.04 30.45 1.05 37.84-4.87-5.74-5.04-15.02-1.05-37.84zm-14.3-14.8l-3.14 49.1-2.4.77c-.87-2.06-2.63-4.2-2.46-6.17 1.22-14.1 2.83-28.17 4.37-42.25.1-.87.68-1.7 1.04-2.55l2.6 1.1zm-42.84-154.98c8.55 11.44 4.65 30.66-13.57 34.83-11.7 2.68-22.73-.23-30.92-9.83-6.07-7.1-7.68-15.33-4.2-24.16 3.72-9.43 12.03-12.04 20.96-13.52.9-.15 1.85-.02 2.78-.02 10.23.46 18.6 4.2 24.96 12.7z"/></g></svg>