<svg xmlns="http://www.w3.org/2000/svg" width="590" height="512" viewBox="0 0 512.029 512"  xmlns:v="https://vecta.io/nano"><path d="M320.3 468.87l-64.274 33.363-64.28-33.363a535.93 535.93 0 0 1-106.573-72.324C7.638 328.243-46.237 235.313-23.272 128.345c7.4-37.963 29.76-71.354 62.042-92.65a144.02 144.02 0 0 1 109.591-20.592c52.94 12.75 94.42 53.848 107.655 106.67 13.234-52.824 54.7-93.923 107.65-106.67a137.42 137.42 0 0 1 47.204-2.552c61.992 7.974 112.026 54.535 124.434 115.795C567.88 280.356 445.61 403.905 320.3 468.87zm0 0" fill="#c81e1e"/><path d="M471.906 177.638c.022 92-49.495 176.88-129.59 222.14s-178.353 43.89-257.15-3.594C7.638 327.88-46.237 234.95-23.272 127.986c7.4-37.963 29.76-71.358 62.042-92.656a144.02 144.02 0 0 1 109.591-20.592c52.94 12.75 94.42 53.848 107.655 106.67 13.234-52.824 54.7-93.923 107.65-106.67a137.53 137.53 0 0 1 47.204-2.552c39.482 46.076 61.14 104.776 61.035 165.452zm0 0" fill="#f44335"/><path d="M177.506 281.434c0-13.548-19.77-24.532-44.158-24.532S89.2 267.886 89.2 281.434s19.77 24.532 44.158 24.532 44.158-10.983 44.158-24.532zm245.336 0c0-13.548-19.77-24.532-44.163-24.532s-44.158 10.983-44.158 24.532 19.77 24.532 44.158 24.532 44.163-10.983 44.163-24.532zm0 0" fill="#bb193b"/><path d="M157.88 247.087c-16.257 0-29.437-13.18-29.437-29.437s13.18-29.442 29.437-29.442 29.442 13.18 29.442 29.442-13.18 29.437-29.442 29.437zm196.268 0c-16.257 0-29.442-13.18-29.442-29.437s13.185-29.442 29.442-29.442 29.442 13.18 29.442 29.442-13.185 29.437-29.442 29.437zm0 0"/><path d="M475.374 25.308A148.55 148.55 0 0 0 361.47 5.583a154.31 154.31 0 0 0-105.454 87.032A154.34 154.34 0 0 0 150.562 5.583C111.48-3.47 70.394 3.67 36.658 25.375a157.57 157.57 0 0 0-69.5 100.92C-66.568 283.73 58.705 410.97 187.182 477.604l64.32 33.363a9.8 9.8 0 0 0 9.029 0l64.315-33.363C453.322 410.998 578.6 283.73 544.86 126.288a157.58 157.58 0 0 0-69.485-100.98zM315.816 460.183l-59.8 31-59.804-31C74.163 396.906-45.07 277.05-13.646 130.407a138.07 138.07 0 0 1 60.842-88.478c29.304-18.872 64.998-25.084 98.96-17.23a136.13 136.13 0 0 1 100.36 99.542c1.123 4.33 5.027 7.354 9.5 7.354a9.81 9.81 0 0 0 9.496-7.354c12.264-49.324 50.982-87.705 100.4-99.542a129.16 129.16 0 0 1 98.909 17.201 138.08 138.08 0 0 1 60.842 88.496c31.423 146.643-87.8 266.5-209.857 329.776zM137.35 62.96c3.42.786 6.994-.3 9.384-2.875a9.82 9.82 0 0 0 2.206-9.564c-1.03-3.35-3.764-5.903-7.183-6.7a110.25 110.25 0 0 0-24.68-2.826C62.6 42.23 16.25 81.092 5.558 134.53c-1.132 5.292 2.233 10.507 7.53 11.648.678.144 1.375.216 2.07.216 4.622-.004 8.616-3.234 9.586-7.754 8.728-44.405 47.092-76.816 92.332-78.007a90.59 90.59 0 0 1 20.273 2.327zM111.7 269.6l-9.815 9.815a9.81 9.81 0 0 0 4.335 16.552 9.82 9.82 0 0 0 9.541-2.677l9.815-9.815a9.812 9.812 0 1 0-13.876-13.876zm39.254 0l-9.815 9.815a9.81 9.81 0 0 0-2.673 9.54c.897 3.426 3.576 6.114 7.008 7.012s7.08-.126 9.54-2.677l9.815-9.815a9.812 9.812 0 0 0-13.876-13.876zm0 0"/><path d="M400.34 269.6a9.82 9.82 0 0 0-13.76.12c-3.787 3.786-3.836 9.905-.117 13.755l9.8 9.815a9.82 9.82 0 0 0 13.76-.12c3.787-3.786 3.836-9.905.117-13.755zm-39.256 0a9.81 9.81 0 0 0-13.755.121c-3.782 3.787-3.836 9.905-.117 13.755l9.8 9.815a9.812 9.812 0 1 0 13.876-13.876zm-340.59-91.197c0 5.422-4.393 9.815-9.815 9.815a9.81 9.81 0 0 1 0-19.625 9.82 9.82 0 0 1 9.815 9.81zm274.775 78.5c-5.422 0-9.815 4.393-9.815 9.8v9.815c0 5.418-4.393 9.8-9.8 9.8a9.82 9.82 0 0 1-9.815-9.81v-9.815c0-5.418-4.393-9.8-9.8-9.8a9.82 9.82 0 0 0-9.815 9.81v9.815c0 5.418-4.393 9.8-9.8 9.8a9.82 9.82 0 0 1-9.815-9.81v-9.815c0-5.418-4.393-9.8-9.8-9.8a9.82 9.82 0 0 0-9.815 9.81v9.815a29.31 29.31 0 0 0 17.416 26.917c10.633 4.72 23.054 2.7 31.652-5.135a29.3 29.3 0 0 0 31.647 5.135 29.31 29.31 0 0 0 17.416-26.917v-9.815c0-5.418-4.393-9.8-9.8-9.8zm0 0"/><path d="M157.88 188.208c-16.257 0-29.437 13.18-29.437 29.442s13.18 29.437 29.437 29.437 29.442-13.18 29.442-29.437-13.18-29.442-29.442-29.442zm0 39.253c-5.418 0-9.8-4.393-9.8-9.8a9.82 9.82 0 0 1 9.81-9.815 9.82 9.82 0 0 1 9.815 9.815 9.81 9.81 0 0 1-9.815 9.81zm196.268-39.253c-16.257 0-29.442 13.18-29.442 29.442s13.185 29.437 29.442 29.437 29.442-13.18 29.442-29.437-13.185-29.442-29.442-29.442zm0 39.253a9.82 9.82 0 0 1-9.815-9.811 9.82 9.82 0 0 1 9.815-9.815c5.422 0 9.815 4.393 9.815 9.815a9.81 9.81 0 0 1-9.815 9.81zm0 0"/></svg>