<?xml version="1.0" encoding="UTF-8" ?>
<svg version="1.1" width="32" height="320" xmlns="http://www.w3.org/2000/svg" shape-rendering="crispEdges">
<rect x="3" y="19" width="1" height="1" fill="#000000" />
<rect x="4" y="19" width="1" height="1" fill="#000000" />
<rect x="5" y="19" width="1" height="1" fill="#000000" />
<rect x="6" y="19" width="1" height="1" fill="#000000" />
<rect x="7" y="19" width="1" height="1" fill="#000000" />
<rect x="8" y="19" width="1" height="1" fill="#000000" />
<rect x="9" y="19" width="1" height="1" fill="#000000" />
<rect x="10" y="19" width="1" height="1" fill="#000000" />
<rect x="19" y="19" width="1" height="1" fill="#000000" />
<rect x="20" y="19" width="1" height="1" fill="#000000" />
<rect x="21" y="19" width="1" height="1" fill="#000000" />
<rect x="22" y="19" width="1" height="1" fill="#000000" />
<rect x="23" y="19" width="1" height="1" fill="#000000" />
<rect x="24" y="19" width="1" height="1" fill="#000000" />
<rect x="25" y="19" width="1" height="1" fill="#000000" />
<rect x="26" y="19" width="1" height="1" fill="#000000" />
<rect x="10" y="20" width="1" height="1" fill="#000000" />
<rect x="26" y="20" width="1" height="1" fill="#000000" />
<rect x="11" y="21" width="1" height="1" fill="#000000" />
<rect x="27" y="21" width="1" height="1" fill="#000000" />
<rect x="2" y="22" width="1" height="1" fill="#000000" />
<rect x="11" y="22" width="1" height="1" fill="#000000" />
<rect x="18" y="22" width="1" height="1" fill="#000000" />
<rect x="27" y="22" width="1" height="1" fill="#000000" />
<rect x="2" y="23" width="1" height="1" fill="#000000" />
<rect x="11" y="23" width="1" height="1" fill="#000000" />
<rect x="18" y="23" width="1" height="1" fill="#000000" />
<rect x="27" y="23" width="1" height="1" fill="#000000" />
<rect x="2" y="24" width="1" height="1" fill="#000000" />
<rect x="3" y="24" width="1" height="1" fill="#000000" />
<rect x="4" y="24" width="1" height="1" fill="#000000" />
<rect x="5" y="24" width="1" height="1" fill="#000000" />
<rect x="6" y="24" width="1" height="1" fill="#000000" />
<rect x="7" y="24" width="1" height="1" fill="#000000" />
<rect x="8" y="24" width="1" height="1" fill="#000000" />
<rect x="9" y="24" width="1" height="1" fill="#000000" />
<rect x="10" y="24" width="1" height="1" fill="#000000" />
<rect x="11" y="24" width="1" height="1" fill="#000000" />
<rect x="18" y="24" width="1" height="1" fill="#000000" />
<rect x="19" y="24" width="1" height="1" fill="#000000" />
<rect x="20" y="24" width="1" height="1" fill="#000000" />
<rect x="21" y="24" width="1" height="1" fill="#000000" />
<rect x="22" y="24" width="1" height="1" fill="#000000" />
<rect x="23" y="24" width="1" height="1" fill="#000000" />
<rect x="24" y="24" width="1" height="1" fill="#000000" />
<rect x="25" y="24" width="1" height="1" fill="#000000" />
<rect x="26" y="24" width="1" height="1" fill="#000000" />
<rect x="27" y="24" width="1" height="1" fill="#000000" />
<rect x="3" y="25" width="1" height="1" fill="#000000" />
<rect x="5" y="25" width="1" height="1" fill="#000000" />
<rect x="8" y="25" width="1" height="1" fill="#000000" />
<rect x="10" y="25" width="1" height="1" fill="#000000" />
<rect x="19" y="25" width="1" height="1" fill="#000000" />
<rect x="21" y="25" width="1" height="1" fill="#000000" />
<rect x="24" y="25" width="1" height="1" fill="#000000" />
<rect x="26" y="25" width="1" height="1" fill="#000000" />
<rect x="3" y="26" width="1" height="1" fill="#000000" />
<rect x="5" y="26" width="1" height="1" fill="#000000" />
<rect x="8" y="26" width="1" height="1" fill="#000000" />
<rect x="10" y="26" width="1" height="1" fill="#000000" />
<rect x="19" y="26" width="1" height="1" fill="#000000" />
<rect x="21" y="26" width="1" height="1" fill="#000000" />
<rect x="24" y="26" width="1" height="1" fill="#000000" />
<rect x="26" y="26" width="1" height="1" fill="#000000" />
<rect x="3" y="27" width="1" height="1" fill="#000000" />
<rect x="5" y="27" width="1" height="1" fill="#000000" />
<rect x="8" y="27" width="1" height="1" fill="#000000" />
<rect x="10" y="27" width="1" height="1" fill="#000000" />
<rect x="19" y="27" width="1" height="1" fill="#000000" />
<rect x="21" y="27" width="1" height="1" fill="#000000" />
<rect x="24" y="27" width="1" height="1" fill="#000000" />
<rect x="26" y="27" width="1" height="1" fill="#000000" />
<rect x="3" y="28" width="1" height="1" fill="#000000" />
<rect x="4" y="28" width="1" height="1" fill="#000000" />
<rect x="5" y="28" width="1" height="1" fill="#000000" />
<rect x="8" y="28" width="1" height="1" fill="#000000" />
<rect x="9" y="28" width="1" height="1" fill="#000000" />
<rect x="10" y="28" width="1" height="1" fill="#000000" />
<rect x="19" y="28" width="1" height="1" fill="#000000" />
<rect x="20" y="28" width="1" height="1" fill="#000000" />
<rect x="21" y="28" width="1" height="1" fill="#000000" />
<rect x="24" y="28" width="1" height="1" fill="#000000" />
<rect x="25" y="28" width="1" height="1" fill="#000000" />
<rect x="26" y="28" width="1" height="1" fill="#000000" />
<rect x="3" y="29" width="1" height="1" fill="#000000" />
<rect x="5" y="29" width="1" height="1" fill="#000000" />
<rect x="6" y="29" width="1" height="1" fill="#000000" />
<rect x="8" y="29" width="1" height="1" fill="#000000" />
<rect x="10" y="29" width="1" height="1" fill="#000000" />
<rect x="11" y="29" width="1" height="1" fill="#000000" />
<rect x="19" y="29" width="1" height="1" fill="#000000" />
<rect x="21" y="29" width="1" height="1" fill="#000000" />
<rect x="22" y="29" width="1" height="1" fill="#000000" />
<rect x="24" y="29" width="1" height="1" fill="#000000" />
<rect x="26" y="29" width="1" height="1" fill="#000000" />
<rect x="27" y="29" width="1" height="1" fill="#000000" />
<rect x="3" y="30" width="1" height="1" fill="#000000" />
<rect x="6" y="30" width="1" height="1" fill="#000000" />
<rect x="8" y="30" width="1" height="1" fill="#000000" />
<rect x="11" y="30" width="1" height="1" fill="#000000" />
<rect x="19" y="30" width="1" height="1" fill="#000000" />
<rect x="22" y="30" width="1" height="1" fill="#000000" />
<rect x="24" y="30" width="1" height="1" fill="#000000" />
<rect x="27" y="30" width="1" height="1" fill="#000000" />
<rect x="3" y="31" width="1" height="1" fill="#000000" />
<rect x="4" y="31" width="1" height="1" fill="#000000" />
<rect x="5" y="31" width="1" height="1" fill="#000000" />
<rect x="6" y="31" width="1" height="1" fill="#000000" />
<rect x="8" y="31" width="1" height="1" fill="#000000" />
<rect x="9" y="31" width="1" height="1" fill="#000000" />
<rect x="10" y="31" width="1" height="1" fill="#000000" />
<rect x="11" y="31" width="1" height="1" fill="#000000" />
<rect x="19" y="31" width="1" height="1" fill="#000000" />
<rect x="20" y="31" width="1" height="1" fill="#000000" />
<rect x="21" y="31" width="1" height="1" fill="#000000" />
<rect x="22" y="31" width="1" height="1" fill="#000000" />
<rect x="24" y="31" width="1" height="1" fill="#000000" />
<rect x="25" y="31" width="1" height="1" fill="#000000" />
<rect x="26" y="31" width="1" height="1" fill="#000000" />
<rect x="27" y="31" width="1" height="1" fill="#000000" />
<rect x="4" y="52" width="1" height="1" fill="#000000" />
<rect x="5" y="52" width="1" height="1" fill="#000000" />
<rect x="6" y="52" width="1" height="1" fill="#000000" />
<rect x="7" y="52" width="1" height="1" fill="#000000" />
<rect x="8" y="52" width="1" height="1" fill="#000000" />
<rect x="9" y="52" width="1" height="1" fill="#000000" />
<rect x="20" y="52" width="1" height="1" fill="#000000" />
<rect x="21" y="52" width="1" height="1" fill="#000000" />
<rect x="22" y="52" width="1" height="1" fill="#000000" />
<rect x="23" y="52" width="1" height="1" fill="#000000" />
<rect x="24" y="52" width="1" height="1" fill="#000000" />
<rect x="25" y="52" width="1" height="1" fill="#000000" />
<rect x="4" y="53" width="1" height="1" fill="#000000" />
<rect x="5" y="53" width="1" height="1" fill="#000000" />
<rect x="6" y="53" width="1" height="1" fill="#000000" />
<rect x="7" y="53" width="1" height="1" fill="#000000" />
<rect x="8" y="53" width="1" height="1" fill="#000000" />
<rect x="9" y="53" width="1" height="1" fill="#000000" />
<rect x="10" y="53" width="1" height="1" fill="#000000" />
<rect x="20" y="53" width="1" height="1" fill="#000000" />
<rect x="21" y="53" width="1" height="1" fill="#000000" />
<rect x="22" y="53" width="1" height="1" fill="#000000" />
<rect x="23" y="53" width="1" height="1" fill="#000000" />
<rect x="24" y="53" width="1" height="1" fill="#000000" />
<rect x="25" y="53" width="1" height="1" fill="#000000" />
<rect x="26" y="53" width="1" height="1" fill="#000000" />
<rect x="3" y="54" width="1" height="1" fill="#000000" />
<rect x="4" y="54" width="1" height="1" fill="#000000" />
<rect x="5" y="54" width="1" height="1" fill="#000000" />
<rect x="6" y="54" width="1" height="1" fill="#000000" />
<rect x="7" y="54" width="1" height="1" fill="#000000" />
<rect x="8" y="54" width="1" height="1" fill="#000000" />
<rect x="9" y="54" width="1" height="1" fill="#000000" />
<rect x="10" y="54" width="1" height="1" fill="#000000" />
<rect x="19" y="54" width="1" height="1" fill="#000000" />
<rect x="20" y="54" width="1" height="1" fill="#000000" />
<rect x="21" y="54" width="1" height="1" fill="#000000" />
<rect x="22" y="54" width="1" height="1" fill="#000000" />
<rect x="23" y="54" width="1" height="1" fill="#000000" />
<rect x="24" y="54" width="1" height="1" fill="#000000" />
<rect x="25" y="54" width="1" height="1" fill="#000000" />
<rect x="26" y="54" width="1" height="1" fill="#000000" />
<rect x="3" y="55" width="1" height="1" fill="#000000" />
<rect x="4" y="55" width="1" height="1" fill="#000000" />
<rect x="5" y="55" width="1" height="1" fill="#000000" />
<rect x="6" y="55" width="1" height="1" fill="#000000" />
<rect x="7" y="55" width="1" height="1" fill="#000000" />
<rect x="8" y="55" width="1" height="1" fill="#000000" />
<rect x="9" y="55" width="1" height="1" fill="#000000" />
<rect x="10" y="55" width="1" height="1" fill="#000000" />
<rect x="19" y="55" width="1" height="1" fill="#000000" />
<rect x="20" y="55" width="1" height="1" fill="#000000" />
<rect x="21" y="55" width="1" height="1" fill="#000000" />
<rect x="22" y="55" width="1" height="1" fill="#000000" />
<rect x="23" y="55" width="1" height="1" fill="#000000" />
<rect x="24" y="55" width="1" height="1" fill="#000000" />
<rect x="25" y="55" width="1" height="1" fill="#000000" />
<rect x="26" y="55" width="1" height="1" fill="#000000" />
<rect x="4" y="84" width="1" height="1" fill="#1A1927" />
<rect x="5" y="84" width="1" height="1" fill="#222034" />
<rect x="6" y="84" width="1" height="1" fill="#222034" />
<rect x="7" y="84" width="1" height="1" fill="#222034" />
<rect x="8" y="84" width="1" height="1" fill="#222034" />
<rect x="9" y="84" width="1" height="1" fill="#222034" />
<rect x="20" y="84" width="1" height="1" fill="#1A1927" />
<rect x="21" y="84" width="1" height="1" fill="#222034" />
<rect x="22" y="84" width="1" height="1" fill="#222034" />
<rect x="23" y="84" width="1" height="1" fill="#222034" />
<rect x="24" y="84" width="1" height="1" fill="#222034" />
<rect x="25" y="84" width="1" height="1" fill="#222034" />
<rect x="4" y="85" width="1" height="1" fill="#1A1927" />
<rect x="5" y="85" width="1" height="1" fill="#222034" />
<rect x="6" y="85" width="1" height="1" fill="#222034" />
<rect x="7" y="85" width="1" height="1" fill="#222034" />
<rect x="8" y="85" width="1" height="1" fill="#222034" />
<rect x="9" y="85" width="1" height="1" fill="#222034" />
<rect x="10" y="85" width="1" height="1" fill="#222034" />
<rect x="20" y="85" width="1" height="1" fill="#1A1927" />
<rect x="21" y="85" width="1" height="1" fill="#222034" />
<rect x="22" y="85" width="1" height="1" fill="#222034" />
<rect x="23" y="85" width="1" height="1" fill="#222034" />
<rect x="24" y="85" width="1" height="1" fill="#222034" />
<rect x="25" y="85" width="1" height="1" fill="#222034" />
<rect x="26" y="85" width="1" height="1" fill="#222034" />
<rect x="3" y="86" width="1" height="1" fill="#1A1927" />
<rect x="4" y="86" width="1" height="1" fill="#1A1927" />
<rect x="5" y="86" width="1" height="1" fill="#222034" />
<rect x="6" y="86" width="1" height="1" fill="#222034" />
<rect x="7" y="86" width="1" height="1" fill="#222034" />
<rect x="8" y="86" width="1" height="1" fill="#222034" />
<rect x="9" y="86" width="1" height="1" fill="#222034" />
<rect x="10" y="86" width="1" height="1" fill="#222034" />
<rect x="19" y="86" width="1" height="1" fill="#1A1927" />
<rect x="20" y="86" width="1" height="1" fill="#1A1927" />
<rect x="21" y="86" width="1" height="1" fill="#222034" />
<rect x="22" y="86" width="1" height="1" fill="#222034" />
<rect x="23" y="86" width="1" height="1" fill="#222034" />
<rect x="24" y="86" width="1" height="1" fill="#222034" />
<rect x="25" y="86" width="1" height="1" fill="#222034" />
<rect x="26" y="86" width="1" height="1" fill="#222034" />
<rect x="3" y="87" width="1" height="1" fill="#1A1927" />
<rect x="4" y="87" width="1" height="1" fill="#1A1927" />
<rect x="5" y="87" width="1" height="1" fill="#222034" />
<rect x="6" y="87" width="1" height="1" fill="#222034" />
<rect x="7" y="87" width="1" height="1" fill="#222034" />
<rect x="8" y="87" width="1" height="1" fill="#222034" />
<rect x="9" y="87" width="1" height="1" fill="#222034" />
<rect x="10" y="87" width="1" height="1" fill="#222034" />
<rect x="19" y="87" width="1" height="1" fill="#1A1927" />
<rect x="20" y="87" width="1" height="1" fill="#1A1927" />
<rect x="21" y="87" width="1" height="1" fill="#222034" />
<rect x="22" y="87" width="1" height="1" fill="#222034" />
<rect x="23" y="87" width="1" height="1" fill="#222034" />
<rect x="24" y="87" width="1" height="1" fill="#222034" />
<rect x="25" y="87" width="1" height="1" fill="#222034" />
<rect x="26" y="87" width="1" height="1" fill="#222034" />
<rect x="4" y="116" width="1" height="1" fill="#E9E5E5" />
<rect x="5" y="116" width="1" height="1" fill="#FFFFFF" />
<rect x="6" y="116" width="1" height="1" fill="#FFFFFF" />
<rect x="7" y="116" width="1" height="1" fill="#FFFFFF" />
<rect x="8" y="116" width="1" height="1" fill="#FFFFFF" />
<rect x="9" y="116" width="1" height="1" fill="#FFFFFF" />
<rect x="20" y="116" width="1" height="1" fill="#E9E5E5" />
<rect x="21" y="116" width="1" height="1" fill="#FFFFFF" />
<rect x="22" y="116" width="1" height="1" fill="#FFFFFF" />
<rect x="23" y="116" width="1" height="1" fill="#FFFFFF" />
<rect x="24" y="116" width="1" height="1" fill="#FFFFFF" />
<rect x="25" y="116" width="1" height="1" fill="#FFFFFF" />
<rect x="4" y="117" width="1" height="1" fill="#E9E5E5" />
<rect x="5" y="117" width="1" height="1" fill="#FFFFFF" />
<rect x="6" y="117" width="1" height="1" fill="#FFFFFF" />
<rect x="7" y="117" width="1" height="1" fill="#FFFFFF" />
<rect x="8" y="117" width="1" height="1" fill="#FFFFFF" />
<rect x="9" y="117" width="1" height="1" fill="#FFFFFF" />
<rect x="10" y="117" width="1" height="1" fill="#FFFFFF" />
<rect x="20" y="117" width="1" height="1" fill="#E9E5E5" />
<rect x="21" y="117" width="1" height="1" fill="#FFFFFF" />
<rect x="22" y="117" width="1" height="1" fill="#FFFFFF" />
<rect x="23" y="117" width="1" height="1" fill="#FFFFFF" />
<rect x="24" y="117" width="1" height="1" fill="#FFFFFF" />
<rect x="25" y="117" width="1" height="1" fill="#FFFFFF" />
<rect x="26" y="117" width="1" height="1" fill="#FFFFFF" />
<rect x="3" y="118" width="1" height="1" fill="#E9E5E5" />
<rect x="4" y="118" width="1" height="1" fill="#E9E5E5" />
<rect x="5" y="118" width="1" height="1" fill="#FFFFFF" />
<rect x="6" y="118" width="1" height="1" fill="#FFFFFF" />
<rect x="7" y="118" width="1" height="1" fill="#FFFFFF" />
<rect x="8" y="118" width="1" height="1" fill="#FFFFFF" />
<rect x="9" y="118" width="1" height="1" fill="#FFFFFF" />
<rect x="10" y="118" width="1" height="1" fill="#FFFFFF" />
<rect x="19" y="118" width="1" height="1" fill="#E9E5E5" />
<rect x="20" y="118" width="1" height="1" fill="#E9E5E5" />
<rect x="21" y="118" width="1" height="1" fill="#FFFFFF" />
<rect x="22" y="118" width="1" height="1" fill="#FFFFFF" />
<rect x="23" y="118" width="1" height="1" fill="#FFFFFF" />
<rect x="24" y="118" width="1" height="1" fill="#FFFFFF" />
<rect x="25" y="118" width="1" height="1" fill="#FFFFFF" />
<rect x="26" y="118" width="1" height="1" fill="#FFFFFF" />
<rect x="3" y="119" width="1" height="1" fill="#E9E5E5" />
<rect x="4" y="119" width="1" height="1" fill="#E9E5E5" />
<rect x="5" y="119" width="1" height="1" fill="#FFFFFF" />
<rect x="6" y="119" width="1" height="1" fill="#FFFFFF" />
<rect x="7" y="119" width="1" height="1" fill="#FFFFFF" />
<rect x="8" y="119" width="1" height="1" fill="#FFFFFF" />
<rect x="9" y="119" width="1" height="1" fill="#FFFFFF" />
<rect x="10" y="119" width="1" height="1" fill="#FFFFFF" />
<rect x="19" y="119" width="1" height="1" fill="#E9E5E5" />
<rect x="20" y="119" width="1" height="1" fill="#E9E5E5" />
<rect x="21" y="119" width="1" height="1" fill="#FFFFFF" />
<rect x="22" y="119" width="1" height="1" fill="#FFFFFF" />
<rect x="23" y="119" width="1" height="1" fill="#FFFFFF" />
<rect x="24" y="119" width="1" height="1" fill="#FFFFFF" />
<rect x="25" y="119" width="1" height="1" fill="#FFFFFF" />
<rect x="26" y="119" width="1" height="1" fill="#FFFFFF" />
<rect x="4" y="153" width="1" height="1" fill="#8F563B" />
<rect x="9" y="153" width="1" height="1" fill="#8F563B" />
<rect x="20" y="153" width="1" height="1" fill="#8F563B" />
<rect x="25" y="153" width="1" height="1" fill="#8F563B" />
<rect x="4" y="154" width="1" height="1" fill="#8F563B" />
<rect x="9" y="154" width="1" height="1" fill="#8F563B" />
<rect x="20" y="154" width="1" height="1" fill="#8F563B" />
<rect x="25" y="154" width="1" height="1" fill="#8F563B" />
<rect x="4" y="155" width="1" height="1" fill="#8F563B" />
<rect x="9" y="155" width="1" height="1" fill="#8F563B" />
<rect x="20" y="155" width="1" height="1" fill="#8F563B" />
<rect x="25" y="155" width="1" height="1" fill="#8F563B" />
<rect x="4" y="185" width="1" height="1" fill="#F6CDA6" />
<rect x="9" y="185" width="1" height="1" fill="#F6CDA6" />
<rect x="20" y="185" width="1" height="1" fill="#F6CDA6" />
<rect x="25" y="185" width="1" height="1" fill="#F6CDA6" />
<rect x="4" y="186" width="1" height="1" fill="#F6CDA6" />
<rect x="9" y="186" width="1" height="1" fill="#F6CDA6" />
<rect x="20" y="186" width="1" height="1" fill="#F6CDA6" />
<rect x="25" y="186" width="1" height="1" fill="#F6CDA6" />
<rect x="4" y="187" width="1" height="1" fill="#F6CDA6" />
<rect x="9" y="187" width="1" height="1" fill="#F6CDA6" />
<rect x="20" y="187" width="1" height="1" fill="#F6CDA6" />
<rect x="25" y="187" width="1" height="1" fill="#F6CDA6" />
<rect x="4" y="217" width="1" height="1" fill="#FFDFC0" />
<rect x="9" y="217" width="1" height="1" fill="#FFDFC0" />
<rect x="20" y="217" width="1" height="1" fill="#FFDFC0" />
<rect x="25" y="217" width="1" height="1" fill="#FFDFC0" />
<rect x="4" y="218" width="1" height="1" fill="#FFDFC0" />
<rect x="9" y="218" width="1" height="1" fill="#FFDFC0" />
<rect x="20" y="218" width="1" height="1" fill="#FFDFC0" />
<rect x="25" y="218" width="1" height="1" fill="#FFDFC0" />
<rect x="4" y="219" width="1" height="1" fill="#FFDFC0" />
<rect x="9" y="219" width="1" height="1" fill="#FFDFC0" />
<rect x="20" y="219" width="1" height="1" fill="#FFDFC0" />
<rect x="25" y="219" width="1" height="1" fill="#FFDFC0" />
<rect x="4" y="253" width="1" height="1" fill="#000000" />
<rect x="9" y="253" width="1" height="1" fill="#000000" />
<rect x="20" y="253" width="1" height="1" fill="#000000" />
<rect x="25" y="253" width="1" height="1" fill="#000000" />
<rect x="4" y="254" width="1" height="1" fill="#000000" />
<rect x="5" y="254" width="1" height="1" fill="#000000" />
<rect x="9" y="254" width="1" height="1" fill="#000000" />
<rect x="10" y="254" width="1" height="1" fill="#000000" />
<rect x="20" y="254" width="1" height="1" fill="#000000" />
<rect x="21" y="254" width="1" height="1" fill="#000000" />
<rect x="25" y="254" width="1" height="1" fill="#000000" />
<rect x="26" y="254" width="1" height="1" fill="#000000" />
<rect x="4" y="285" width="1" height="1" fill="#5FCDE4" />
<rect x="9" y="285" width="1" height="1" fill="#5FCDE4" />
<rect x="20" y="285" width="1" height="1" fill="#5FCDE4" />
<rect x="25" y="285" width="1" height="1" fill="#5FCDE4" />
<rect x="4" y="286" width="1" height="1" fill="#5FCDE4" />
<rect x="5" y="286" width="1" height="1" fill="#5FCDE4" />
<rect x="9" y="286" width="1" height="1" fill="#5FCDE4" />
<rect x="10" y="286" width="1" height="1" fill="#5FCDE4" />
<rect x="20" y="286" width="1" height="1" fill="#5FCDE4" />
<rect x="21" y="286" width="1" height="1" fill="#5FCDE4" />
<rect x="25" y="286" width="1" height="1" fill="#5FCDE4" />
<rect x="26" y="286" width="1" height="1" fill="#5FCDE4" />
<rect x="4" y="317" width="1" height="1" fill="#FFFFFF" />
<rect x="9" y="317" width="1" height="1" fill="#FFFFFF" />
<rect x="20" y="317" width="1" height="1" fill="#FFFFFF" />
<rect x="25" y="317" width="1" height="1" fill="#FFFFFF" />
<rect x="4" y="318" width="1" height="1" fill="#FFFFFF" />
<rect x="5" y="318" width="1" height="1" fill="#FFFFFF" />
<rect x="9" y="318" width="1" height="1" fill="#FFFFFF" />
<rect x="10" y="318" width="1" height="1" fill="#FFFFFF" />
<rect x="20" y="318" width="1" height="1" fill="#FFFFFF" />
<rect x="21" y="318" width="1" height="1" fill="#FFFFFF" />
<rect x="25" y="318" width="1" height="1" fill="#FFFFFF" />
<rect x="26" y="318" width="1" height="1" fill="#FFFFFF" />
</svg>