<?xml version="1.0" encoding="UTF-8" ?>
<svg version="1.1" width="32" height="160" xmlns="http://www.w3.org/2000/svg" shape-rendering="crispEdges">
<rect x="21" y="7" width="1" height="1" fill="#000000" />
<rect x="22" y="7" width="1" height="1" fill="#000000" />
<rect x="23" y="7" width="1" height="1" fill="#000000" />
<rect x="24" y="7" width="1" height="1" fill="#000000" />
<rect x="25" y="7" width="1" height="1" fill="#000000" />
<rect x="26" y="7" width="1" height="1" fill="#000000" />
<rect x="27" y="7" width="1" height="1" fill="#000000" />
<rect x="15" y="8" width="1" height="1" fill="#000000" />
<rect x="16" y="8" width="1" height="1" fill="#000000" />
<rect x="17" y="8" width="1" height="1" fill="#000000" />
<rect x="18" y="8" width="1" height="1" fill="#000000" />
<rect x="19" y="8" width="1" height="1" fill="#000000" />
<rect x="20" y="8" width="1" height="1" fill="#000000" />
<rect x="21" y="8" width="1" height="1" fill="#000000" />
<rect x="28" y="8" width="1" height="1" fill="#000000" />
<rect x="29" y="8" width="1" height="1" fill="#000000" />
<rect x="12" y="9" width="1" height="1" fill="#000000" />
<rect x="13" y="9" width="1" height="1" fill="#000000" />
<rect x="14" y="9" width="1" height="1" fill="#000000" />
<rect x="20" y="9" width="1" height="1" fill="#000000" />
<rect x="21" y="9" width="1" height="1" fill="#000000" />
<rect x="22" y="9" width="1" height="1" fill="#000000" />
<rect x="29" y="9" width="1" height="1" fill="#000000" />
<rect x="12" y="10" width="1" height="1" fill="#000000" />
<rect x="19" y="10" width="1" height="1" fill="#000000" />
<rect x="23" y="10" width="1" height="1" fill="#000000" />
<rect x="30" y="10" width="1" height="1" fill="#000000" />
<rect x="12" y="11" width="1" height="1" fill="#000000" />
<rect x="19" y="11" width="1" height="1" fill="#000000" />
<rect x="23" y="11" width="1" height="1" fill="#000000" />
<rect x="30" y="11" width="1" height="1" fill="#000000" />
<rect x="12" y="12" width="1" height="1" fill="#000000" />
<rect x="19" y="12" width="1" height="1" fill="#000000" />
<rect x="23" y="12" width="1" height="1" fill="#000000" />
<rect x="30" y="12" width="1" height="1" fill="#000000" />
<rect x="31" y="12" width="1" height="1" fill="#000000" />
<rect x="12" y="13" width="1" height="1" fill="#000000" />
<rect x="19" y="13" width="1" height="1" fill="#000000" />
<rect x="20" y="13" width="1" height="1" fill="#000000" />
<rect x="21" y="13" width="1" height="1" fill="#000000" />
<rect x="22" y="13" width="1" height="1" fill="#000000" />
<rect x="23" y="13" width="1" height="1" fill="#000000" />
<rect x="24" y="13" width="1" height="1" fill="#000000" />
<rect x="25" y="13" width="1" height="1" fill="#000000" />
<rect x="26" y="13" width="1" height="1" fill="#000000" />
<rect x="27" y="13" width="1" height="1" fill="#000000" />
<rect x="28" y="13" width="1" height="1" fill="#000000" />
<rect x="29" y="13" width="1" height="1" fill="#000000" />
<rect x="30" y="13" width="1" height="1" fill="#000000" />
<rect x="31" y="13" width="1" height="1" fill="#000000" />
<rect x="12" y="14" width="1" height="1" fill="#000000" />
<rect x="20" y="14" width="1" height="1" fill="#000000" />
<rect x="27" y="14" width="1" height="1" fill="#000000" />
<rect x="28" y="14" width="1" height="1" fill="#000000" />
<rect x="31" y="14" width="1" height="1" fill="#000000" />
<rect x="12" y="15" width="1" height="1" fill="#000000" />
<rect x="13" y="15" width="1" height="1" fill="#000000" />
<rect x="14" y="15" width="1" height="1" fill="#000000" />
<rect x="15" y="15" width="1" height="1" fill="#000000" />
<rect x="16" y="15" width="1" height="1" fill="#000000" />
<rect x="17" y="15" width="1" height="1" fill="#000000" />
<rect x="18" y="15" width="1" height="1" fill="#000000" />
<rect x="19" y="15" width="1" height="1" fill="#000000" />
<rect x="20" y="15" width="1" height="1" fill="#000000" />
<rect x="21" y="15" width="1" height="1" fill="#000000" />
<rect x="22" y="15" width="1" height="1" fill="#000000" />
<rect x="23" y="15" width="1" height="1" fill="#000000" />
<rect x="24" y="15" width="1" height="1" fill="#000000" />
<rect x="25" y="15" width="1" height="1" fill="#000000" />
<rect x="26" y="15" width="1" height="1" fill="#000000" />
<rect x="27" y="15" width="1" height="1" fill="#000000" />
<rect x="28" y="15" width="1" height="1" fill="#000000" />
<rect x="29" y="15" width="1" height="1" fill="#000000" />
<rect x="30" y="15" width="1" height="1" fill="#000000" />
<rect x="31" y="15" width="1" height="1" fill="#000000" />
<rect x="22" y="24" width="1" height="1" fill="#000000" />
<rect x="23" y="24" width="1" height="1" fill="#000000" />
<rect x="24" y="24" width="1" height="1" fill="#000000" />
<rect x="25" y="24" width="1" height="1" fill="#000000" />
<rect x="26" y="24" width="1" height="1" fill="#000000" />
<rect x="27" y="24" width="1" height="1" fill="#000000" />
<rect x="15" y="25" width="1" height="1" fill="#000000" />
<rect x="16" y="25" width="1" height="1" fill="#000000" />
<rect x="17" y="25" width="1" height="1" fill="#000000" />
<rect x="18" y="25" width="1" height="1" fill="#000000" />
<rect x="19" y="25" width="1" height="1" fill="#000000" />
<rect x="23" y="25" width="1" height="1" fill="#000000" />
<rect x="24" y="25" width="1" height="1" fill="#000000" />
<rect x="25" y="25" width="1" height="1" fill="#000000" />
<rect x="26" y="25" width="1" height="1" fill="#000000" />
<rect x="27" y="25" width="1" height="1" fill="#000000" />
<rect x="28" y="25" width="1" height="1" fill="#000000" />
<rect x="13" y="26" width="1" height="1" fill="#000000" />
<rect x="14" y="26" width="1" height="1" fill="#000000" />
<rect x="15" y="26" width="1" height="1" fill="#000000" />
<rect x="16" y="26" width="1" height="1" fill="#000000" />
<rect x="17" y="26" width="1" height="1" fill="#000000" />
<rect x="18" y="26" width="1" height="1" fill="#000000" />
<rect x="25" y="26" width="1" height="1" fill="#000000" />
<rect x="26" y="26" width="1" height="1" fill="#000000" />
<rect x="27" y="26" width="1" height="1" fill="#000000" />
<rect x="28" y="26" width="1" height="1" fill="#000000" />
<rect x="29" y="26" width="1" height="1" fill="#000000" />
<rect x="27" y="27" width="1" height="1" fill="#000000" />
<rect x="28" y="27" width="1" height="1" fill="#000000" />
<rect x="29" y="27" width="1" height="1" fill="#000000" />
<rect x="28" y="28" width="1" height="1" fill="#000000" />
<rect x="29" y="28" width="1" height="1" fill="#000000" />
<rect x="22" y="40" width="1" height="1" fill="#DF7126" />
<rect x="23" y="40" width="1" height="1" fill="#DF7126" />
<rect x="24" y="40" width="1" height="1" fill="#DF7126" />
<rect x="25" y="40" width="1" height="1" fill="#DF7126" />
<rect x="26" y="40" width="1" height="1" fill="#DF7126" />
<rect x="27" y="40" width="1" height="1" fill="#DF7126" />
<rect x="15" y="41" width="1" height="1" fill="#DF7126" />
<rect x="16" y="41" width="1" height="1" fill="#DF7126" />
<rect x="17" y="41" width="1" height="1" fill="#DF7126" />
<rect x="18" y="41" width="1" height="1" fill="#B65E22" />
<rect x="19" y="41" width="1" height="1" fill="#B65E22" />
<rect x="23" y="41" width="1" height="1" fill="#B65E22" />
<rect x="24" y="41" width="1" height="1" fill="#B65E22" />
<rect x="25" y="41" width="1" height="1" fill="#B65E22" />
<rect x="26" y="41" width="1" height="1" fill="#D46A21" />
<rect x="27" y="41" width="1" height="1" fill="#D46A21" />
<rect x="28" y="41" width="1" height="1" fill="#D46A21" />
<rect x="13" y="42" width="1" height="1" fill="#B65E22" />
<rect x="14" y="42" width="1" height="1" fill="#B65E22" />
<rect x="15" y="42" width="1" height="1" fill="#B65E22" />
<rect x="16" y="42" width="1" height="1" fill="#B65E22" />
<rect x="17" y="42" width="1" height="1" fill="#B65E22" />
<rect x="18" y="42" width="1" height="1" fill="#B65E22" />
<rect x="25" y="42" width="1" height="1" fill="#B65E22" />
<rect x="26" y="42" width="1" height="1" fill="#B65E22" />
<rect x="27" y="42" width="1" height="1" fill="#D86C22" />
<rect x="28" y="42" width="1" height="1" fill="#D86C22" />
<rect x="29" y="42" width="1" height="1" fill="#D46A21" />
<rect x="27" y="43" width="1" height="1" fill="#B65E22" />
<rect x="28" y="43" width="1" height="1" fill="#D86C22" />
<rect x="29" y="43" width="1" height="1" fill="#D46A21" />
<rect x="28" y="44" width="1" height="1" fill="#B65E22" />
<rect x="29" y="44" width="1" height="1" fill="#B65E22" />
<rect x="22" y="56" width="1" height="1" fill="#FBF236" />
<rect x="23" y="56" width="1" height="1" fill="#FBF236" />
<rect x="24" y="56" width="1" height="1" fill="#FBF236" />
<rect x="25" y="56" width="1" height="1" fill="#FBF236" />
<rect x="26" y="56" width="1" height="1" fill="#FBF236" />
<rect x="27" y="56" width="1" height="1" fill="#FBF236" />
<rect x="15" y="57" width="1" height="1" fill="#FBF236" />
<rect x="16" y="57" width="1" height="1" fill="#FBF236" />
<rect x="17" y="57" width="1" height="1" fill="#FBF236" />
<rect x="18" y="57" width="1" height="1" fill="#CBC13C" />
<rect x="19" y="57" width="1" height="1" fill="#CBC13C" />
<rect x="23" y="57" width="1" height="1" fill="#CBC13C" />
<rect x="24" y="57" width="1" height="1" fill="#CBC13C" />
<rect x="25" y="57" width="1" height="1" fill="#CBC13C" />
<rect x="26" y="57" width="1" height="1" fill="#E9E26D" />
<rect x="27" y="57" width="1" height="1" fill="#E9E26D" />
<rect x="28" y="57" width="1" height="1" fill="#E9E26D" />
<rect x="13" y="58" width="1" height="1" fill="#CBC13C" />
<rect x="14" y="58" width="1" height="1" fill="#CBC13C" />
<rect x="15" y="58" width="1" height="1" fill="#CBC13C" />
<rect x="16" y="58" width="1" height="1" fill="#CBC13C" />
<rect x="17" y="58" width="1" height="1" fill="#CBC13C" />
<rect x="18" y="58" width="1" height="1" fill="#CBC13C" />
<rect x="25" y="58" width="1" height="1" fill="#CBC13C" />
<rect x="26" y="58" width="1" height="1" fill="#CBC13C" />
<rect x="27" y="58" width="1" height="1" fill="#EEE883" />
<rect x="28" y="58" width="1" height="1" fill="#EEE883" />
<rect x="29" y="58" width="1" height="1" fill="#E9E26D" />
<rect x="27" y="59" width="1" height="1" fill="#CBC13C" />
<rect x="28" y="59" width="1" height="1" fill="#EEE883" />
<rect x="29" y="59" width="1" height="1" fill="#E9E26D" />
<rect x="28" y="60" width="1" height="1" fill="#CBC13C" />
<rect x="29" y="60" width="1" height="1" fill="#CBC13C" />
<rect x="24" y="74" width="1" height="1" fill="#7D4D36" />
<rect x="24" y="75" width="1" height="1" fill="#865137" />
<rect x="25" y="75" width="1" height="1" fill="#8F563B" />
<rect x="26" y="75" width="1" height="1" fill="#8F563B" />
<rect x="24" y="76" width="1" height="1" fill="#865137" />
<rect x="25" y="76" width="1" height="1" fill="#865137" />
<rect x="26" y="76" width="1" height="1" fill="#865137" />
<rect x="27" y="76" width="1" height="1" fill="#865137" />
<rect x="21" y="78" width="1" height="1" fill="#7D4D36" />
<rect x="22" y="78" width="1" height="1" fill="#7D4D36" />
<rect x="23" y="78" width="1" height="1" fill="#7D4D36" />
<rect x="24" y="78" width="1" height="1" fill="#7D4D36" />
<rect x="25" y="78" width="1" height="1" fill="#7D4D36" />
<rect x="26" y="78" width="1" height="1" fill="#7D4D36" />
<rect x="29" y="78" width="1" height="1" fill="#7D4D36" />
<rect x="30" y="78" width="1" height="1" fill="#7D4D36" />
<rect x="24" y="90" width="1" height="1" fill="#E1BB97" />
<rect x="24" y="91" width="1" height="1" fill="#EEC6A0" />
<rect x="25" y="91" width="1" height="1" fill="#F6CDA6" />
<rect x="26" y="91" width="1" height="1" fill="#F6CDA6" />
<rect x="24" y="92" width="1" height="1" fill="#EEC6A0" />
<rect x="25" y="92" width="1" height="1" fill="#EEC6A0" />
<rect x="26" y="92" width="1" height="1" fill="#EEC6A0" />
<rect x="27" y="92" width="1" height="1" fill="#EEC6A0" />
<rect x="21" y="94" width="1" height="1" fill="#E1BB97" />
<rect x="22" y="94" width="1" height="1" fill="#E1BB97" />
<rect x="23" y="94" width="1" height="1" fill="#E1BB97" />
<rect x="24" y="94" width="1" height="1" fill="#E1BB97" />
<rect x="25" y="94" width="1" height="1" fill="#E1BB97" />
<rect x="26" y="94" width="1" height="1" fill="#E1BB97" />
<rect x="29" y="94" width="1" height="1" fill="#E1BB97" />
<rect x="30" y="94" width="1" height="1" fill="#E1BB97" />
<rect x="24" y="106" width="1" height="1" fill="#E9CDB1" />
<rect x="24" y="107" width="1" height="1" fill="#F6D8BB" />
<rect x="25" y="107" width="1" height="1" fill="#FFDFC0" />
<rect x="26" y="107" width="1" height="1" fill="#FFDFC0" />
<rect x="24" y="108" width="1" height="1" fill="#F6D8BB" />
<rect x="25" y="108" width="1" height="1" fill="#F6D8BB" />
<rect x="26" y="108" width="1" height="1" fill="#F6D8BB" />
<rect x="27" y="108" width="1" height="1" fill="#F6D8BB" />
<rect x="21" y="110" width="1" height="1" fill="#F6D8BB" />
<rect x="22" y="110" width="1" height="1" fill="#F6D8BB" />
<rect x="23" y="110" width="1" height="1" fill="#F6D8BB" />
<rect x="24" y="110" width="1" height="1" fill="#F6D8BB" />
<rect x="25" y="110" width="1" height="1" fill="#F6D8BB" />
<rect x="26" y="110" width="1" height="1" fill="#F6D8BB" />
<rect x="29" y="110" width="1" height="1" fill="#F6D8BB" />
<rect x="30" y="110" width="1" height="1" fill="#F6D8BB" />
<rect x="20" y="122" width="1" height="1" fill="#8F252B" />
<rect x="21" y="122" width="1" height="1" fill="#8F252B" />
<rect x="22" y="122" width="1" height="1" fill="#8F252B" />
<rect x="13" y="123" width="1" height="1" fill="#862328" />
<rect x="14" y="123" width="1" height="1" fill="#862328" />
<rect x="15" y="123" width="1" height="1" fill="#862328" />
<rect x="16" y="123" width="1" height="1" fill="#862328" />
<rect x="17" y="123" width="1" height="1" fill="#862328" />
<rect x="18" y="123" width="1" height="1" fill="#862328" />
<rect x="20" y="123" width="1" height="1" fill="#8F252B" />
<rect x="21" y="123" width="1" height="1" fill="#8F252B" />
<rect x="22" y="123" width="1" height="1" fill="#8F252B" />
<rect x="13" y="124" width="1" height="1" fill="#862328" />
<rect x="14" y="124" width="1" height="1" fill="#8F252B" />
<rect x="15" y="124" width="1" height="1" fill="#8F252B" />
<rect x="16" y="124" width="1" height="1" fill="#8F252B" />
<rect x="17" y="124" width="1" height="1" fill="#8F252B" />
<rect x="18" y="124" width="1" height="1" fill="#8F252B" />
<rect x="20" y="124" width="1" height="1" fill="#862328" />
<rect x="21" y="124" width="1" height="1" fill="#862328" />
<rect x="22" y="124" width="1" height="1" fill="#862328" />
<rect x="13" y="125" width="1" height="1" fill="#862328" />
<rect x="14" y="125" width="1" height="1" fill="#8F252B" />
<rect x="15" y="125" width="1" height="1" fill="#8F252B" />
<rect x="16" y="125" width="1" height="1" fill="#8F252B" />
<rect x="17" y="125" width="1" height="1" fill="#8F252B" />
<rect x="18" y="125" width="1" height="1" fill="#8F252B" />
<rect x="13" y="126" width="1" height="1" fill="#752024" />
<rect x="14" y="126" width="1" height="1" fill="#752024" />
<rect x="15" y="126" width="1" height="1" fill="#752024" />
<rect x="16" y="126" width="1" height="1" fill="#752024" />
<rect x="17" y="126" width="1" height="1" fill="#752024" />
<rect x="18" y="126" width="1" height="1" fill="#752024" />
<rect x="19" y="126" width="1" height="1" fill="#752024" />
<rect x="20" y="138" width="1" height="1" fill="#FB9CA1" />
<rect x="21" y="138" width="1" height="1" fill="#FB9CA1" />
<rect x="22" y="138" width="1" height="1" fill="#FB9CA1" />
<rect x="13" y="139" width="1" height="1" fill="#FF888F" />
<rect x="14" y="139" width="1" height="1" fill="#FF888F" />
<rect x="15" y="139" width="1" height="1" fill="#FF888F" />
<rect x="16" y="139" width="1" height="1" fill="#FF888F" />
<rect x="17" y="139" width="1" height="1" fill="#FF888F" />
<rect x="18" y="139" width="1" height="1" fill="#FF888F" />
<rect x="20" y="139" width="1" height="1" fill="#FB9CA1" />
<rect x="21" y="139" width="1" height="1" fill="#FB9CA1" />
<rect x="22" y="139" width="1" height="1" fill="#FB9CA1" />
<rect x="13" y="140" width="1" height="1" fill="#FF888F" />
<rect x="14" y="140" width="1" height="1" fill="#FB9CA1" />
<rect x="15" y="140" width="1" height="1" fill="#FB9CA1" />
<rect x="16" y="140" width="1" height="1" fill="#FB9CA1" />
<rect x="17" y="140" width="1" height="1" fill="#FB9CA1" />
<rect x="18" y="140" width="1" height="1" fill="#FB9CA1" />
<rect x="20" y="140" width="1" height="1" fill="#FF888F" />
<rect x="21" y="140" width="1" height="1" fill="#FF888F" />
<rect x="22" y="140" width="1" height="1" fill="#FF888F" />
<rect x="13" y="141" width="1" height="1" fill="#FF888F" />
<rect x="14" y="141" width="1" height="1" fill="#FB9CA1" />
<rect x="15" y="141" width="1" height="1" fill="#FB9CA1" />
<rect x="16" y="141" width="1" height="1" fill="#FB9CA1" />
<rect x="17" y="141" width="1" height="1" fill="#FB9CA1" />
<rect x="18" y="141" width="1" height="1" fill="#FB9CA1" />
<rect x="13" y="142" width="1" height="1" fill="#D95763" />
<rect x="14" y="142" width="1" height="1" fill="#D95763" />
<rect x="15" y="142" width="1" height="1" fill="#D95763" />
<rect x="16" y="142" width="1" height="1" fill="#D95763" />
<rect x="17" y="142" width="1" height="1" fill="#D95763" />
<rect x="18" y="142" width="1" height="1" fill="#D95763" />
<rect x="19" y="142" width="1" height="1" fill="#D95763" />
<rect x="20" y="154" width="1" height="1" fill="#FFFFFF" />
<rect x="21" y="154" width="1" height="1" fill="#FFFFFF" />
<rect x="22" y="154" width="1" height="1" fill="#FFFFFF" />
<rect x="13" y="155" width="1" height="1" fill="#E9E5E5" />
<rect x="14" y="155" width="1" height="1" fill="#E9E5E5" />
<rect x="15" y="155" width="1" height="1" fill="#E9E5E5" />
<rect x="16" y="155" width="1" height="1" fill="#E9E5E5" />
<rect x="17" y="155" width="1" height="1" fill="#E9E5E5" />
<rect x="18" y="155" width="1" height="1" fill="#E9E5E5" />
<rect x="20" y="155" width="1" height="1" fill="#FFFFFF" />
<rect x="21" y="155" width="1" height="1" fill="#FFFFFF" />
<rect x="22" y="155" width="1" height="1" fill="#FFFFFF" />
<rect x="13" y="156" width="1" height="1" fill="#E9E5E5" />
<rect x="14" y="156" width="1" height="1" fill="#FFFFFF" />
<rect x="15" y="156" width="1" height="1" fill="#FFFFFF" />
<rect x="16" y="156" width="1" height="1" fill="#FFFFFF" />
<rect x="17" y="156" width="1" height="1" fill="#FFFFFF" />
<rect x="18" y="156" width="1" height="1" fill="#FFFFFF" />
<rect x="20" y="156" width="1" height="1" fill="#E9E5E5" />
<rect x="21" y="156" width="1" height="1" fill="#E9E5E5" />
<rect x="22" y="156" width="1" height="1" fill="#E9E5E5" />
<rect x="13" y="157" width="1" height="1" fill="#E9E5E5" />
<rect x="14" y="157" width="1" height="1" fill="#FFFFFF" />
<rect x="15" y="157" width="1" height="1" fill="#FFFFFF" />
<rect x="16" y="157" width="1" height="1" fill="#FFFFFF" />
<rect x="17" y="157" width="1" height="1" fill="#FFFFFF" />
<rect x="18" y="157" width="1" height="1" fill="#FFFFFF" />
<rect x="13" y="158" width="1" height="1" fill="#CFCFCF" />
<rect x="14" y="158" width="1" height="1" fill="#CFCFCF" />
<rect x="15" y="158" width="1" height="1" fill="#CFCFCF" />
<rect x="16" y="158" width="1" height="1" fill="#CFCFCF" />
<rect x="17" y="158" width="1" height="1" fill="#CFCFCF" />
<rect x="18" y="158" width="1" height="1" fill="#CFCFCF" />
<rect x="19" y="158" width="1" height="1" fill="#CFCFCF" />
</svg>