<?xml version="1.0" encoding="UTF-8" ?>
<svg version="1.1" width="32" height="160" xmlns="http://www.w3.org/2000/svg" shape-rendering="crispEdges">
<rect x="12" y="9" width="1" height="1" fill="#000000" />
<rect x="13" y="9" width="1" height="1" fill="#000000" />
<rect x="14" y="9" width="1" height="1" fill="#000000" />
<rect x="15" y="9" width="1" height="1" fill="#000000" />
<rect x="16" y="9" width="1" height="1" fill="#000000" />
<rect x="17" y="9" width="1" height="1" fill="#000000" />
<rect x="18" y="9" width="1" height="1" fill="#000000" />
<rect x="19" y="9" width="1" height="1" fill="#000000" />
<rect x="20" y="9" width="1" height="1" fill="#000000" />
<rect x="21" y="9" width="1" height="1" fill="#000000" />
<rect x="23" y="9" width="1" height="1" fill="#000000" />
<rect x="24" y="9" width="1" height="1" fill="#000000" />
<rect x="25" y="9" width="1" height="1" fill="#000000" />
<rect x="26" y="9" width="1" height="1" fill="#000000" />
<rect x="27" y="9" width="1" height="1" fill="#000000" />
<rect x="28" y="9" width="1" height="1" fill="#000000" />
<rect x="29" y="9" width="1" height="1" fill="#000000" />
<rect x="11" y="10" width="1" height="1" fill="#000000" />
<rect x="21" y="10" width="1" height="1" fill="#000000" />
<rect x="22" y="10" width="1" height="1" fill="#000000" />
<rect x="23" y="10" width="1" height="1" fill="#000000" />
<rect x="29" y="10" width="1" height="1" fill="#000000" />
<rect x="11" y="11" width="1" height="1" fill="#000000" />
<rect x="21" y="11" width="1" height="1" fill="#000000" />
<rect x="29" y="11" width="1" height="1" fill="#000000" />
<rect x="10" y="12" width="1" height="1" fill="#000000" />
<rect x="19" y="12" width="1" height="1" fill="#000000" />
<rect x="21" y="12" width="1" height="1" fill="#000000" />
<rect x="29" y="12" width="1" height="1" fill="#000000" />
<rect x="30" y="12" width="1" height="1" fill="#000000" />
<rect x="31" y="12" width="1" height="1" fill="#000000" />
<rect x="10" y="13" width="1" height="1" fill="#000000" />
<rect x="19" y="13" width="1" height="1" fill="#000000" />
<rect x="21" y="13" width="1" height="1" fill="#000000" />
<rect x="22" y="13" width="1" height="1" fill="#000000" />
<rect x="23" y="13" width="1" height="1" fill="#000000" />
<rect x="24" y="13" width="1" height="1" fill="#000000" />
<rect x="25" y="13" width="1" height="1" fill="#000000" />
<rect x="26" y="13" width="1" height="1" fill="#000000" />
<rect x="27" y="13" width="1" height="1" fill="#000000" />
<rect x="29" y="13" width="1" height="1" fill="#000000" />
<rect x="31" y="13" width="1" height="1" fill="#000000" />
<rect x="10" y="14" width="1" height="1" fill="#000000" />
<rect x="19" y="14" width="1" height="1" fill="#000000" />
<rect x="25" y="14" width="1" height="1" fill="#000000" />
<rect x="27" y="14" width="1" height="1" fill="#000000" />
<rect x="29" y="14" width="1" height="1" fill="#000000" />
<rect x="30" y="14" width="1" height="1" fill="#000000" />
<rect x="31" y="14" width="1" height="1" fill="#000000" />
<rect x="10" y="15" width="1" height="1" fill="#000000" />
<rect x="11" y="15" width="1" height="1" fill="#000000" />
<rect x="12" y="15" width="1" height="1" fill="#000000" />
<rect x="13" y="15" width="1" height="1" fill="#000000" />
<rect x="14" y="15" width="1" height="1" fill="#000000" />
<rect x="15" y="15" width="1" height="1" fill="#000000" />
<rect x="16" y="15" width="1" height="1" fill="#000000" />
<rect x="17" y="15" width="1" height="1" fill="#000000" />
<rect x="18" y="15" width="1" height="1" fill="#000000" />
<rect x="19" y="15" width="1" height="1" fill="#000000" />
<rect x="20" y="15" width="1" height="1" fill="#000000" />
<rect x="21" y="15" width="1" height="1" fill="#000000" />
<rect x="22" y="15" width="1" height="1" fill="#000000" />
<rect x="23" y="15" width="1" height="1" fill="#000000" />
<rect x="24" y="15" width="1" height="1" fill="#000000" />
<rect x="25" y="15" width="1" height="1" fill="#000000" />
<rect x="26" y="15" width="1" height="1" fill="#000000" />
<rect x="27" y="15" width="1" height="1" fill="#000000" />
<rect x="28" y="15" width="1" height="1" fill="#000000" />
<rect x="29" y="15" width="1" height="1" fill="#000000" />
<rect x="26" y="26" width="1" height="1" fill="#000000" />
<rect x="27" y="26" width="1" height="1" fill="#000000" />
<rect x="28" y="26" width="1" height="1" fill="#000000" />
<rect x="25" y="27" width="1" height="1" fill="#000000" />
<rect x="26" y="27" width="1" height="1" fill="#000000" />
<rect x="27" y="27" width="1" height="1" fill="#000000" />
<rect x="28" y="27" width="1" height="1" fill="#000000" />
<rect x="28" y="28" width="1" height="1" fill="#000000" />
<rect x="28" y="29" width="1" height="1" fill="#000000" />
<rect x="28" y="30" width="1" height="1" fill="#000000" />
<rect x="26" y="42" width="1" height="1" fill="#E16327" />
<rect x="27" y="42" width="1" height="1" fill="#E16327" />
<rect x="28" y="42" width="1" height="1" fill="#E16327" />
<rect x="25" y="43" width="1" height="1" fill="#E16327" />
<rect x="26" y="43" width="1" height="1" fill="#E16327" />
<rect x="27" y="43" width="1" height="1" fill="#E16327" />
<rect x="28" y="43" width="1" height="1" fill="#E16327" />
<rect x="28" y="44" width="1" height="1" fill="#E16327" />
<rect x="28" y="45" width="1" height="1" fill="#E16327" />
<rect x="28" y="46" width="1" height="1" fill="#E16327" />
<rect x="26" y="58" width="1" height="1" fill="#F2E700" />
<rect x="27" y="58" width="1" height="1" fill="#F2E700" />
<rect x="28" y="58" width="1" height="1" fill="#F2E700" />
<rect x="25" y="59" width="1" height="1" fill="#F2E700" />
<rect x="26" y="59" width="1" height="1" fill="#F2E700" />
<rect x="27" y="59" width="1" height="1" fill="#F2E700" />
<rect x="28" y="59" width="1" height="1" fill="#F2E700" />
<rect x="28" y="60" width="1" height="1" fill="#F2E700" />
<rect x="28" y="61" width="1" height="1" fill="#F2E700" />
<rect x="28" y="62" width="1" height="1" fill="#F2E700" />
<rect x="24" y="74" width="1" height="1" fill="#8F563B" />
<rect x="25" y="74" width="1" height="1" fill="#8F563B" />
<rect x="22" y="75" width="1" height="1" fill="#8F563B" />
<rect x="23" y="75" width="1" height="1" fill="#8F563B" />
<rect x="24" y="75" width="1" height="1" fill="#8F563B" />
<rect x="22" y="76" width="1" height="1" fill="#7D472D" />
<rect x="23" y="76" width="1" height="1" fill="#7D472D" />
<rect x="24" y="76" width="1" height="1" fill="#7D472D" />
<rect x="25" y="76" width="1" height="1" fill="#7D472D" />
<rect x="26" y="76" width="1" height="1" fill="#7D472D" />
<rect x="27" y="76" width="1" height="1" fill="#7D472D" />
<rect x="30" y="77" width="1" height="1" fill="#7D472D" />
<rect x="26" y="78" width="1" height="1" fill="#7D472D" />
<rect x="24" y="90" width="1" height="1" fill="#EEC39A" />
<rect x="25" y="90" width="1" height="1" fill="#EEC39A" />
<rect x="22" y="91" width="1" height="1" fill="#EEC39A" />
<rect x="23" y="91" width="1" height="1" fill="#EEC39A" />
<rect x="24" y="91" width="1" height="1" fill="#EEC39A" />
<rect x="22" y="92" width="1" height="1" fill="#E5B586" />
<rect x="23" y="92" width="1" height="1" fill="#E5B586" />
<rect x="24" y="92" width="1" height="1" fill="#E5B586" />
<rect x="25" y="92" width="1" height="1" fill="#E5B586" />
<rect x="26" y="92" width="1" height="1" fill="#E5B586" />
<rect x="27" y="92" width="1" height="1" fill="#E5B586" />
<rect x="30" y="93" width="1" height="1" fill="#E5B586" />
<rect x="26" y="94" width="1" height="1" fill="#E5B586" />
<rect x="24" y="106" width="1" height="1" fill="#FFDFC0" />
<rect x="25" y="106" width="1" height="1" fill="#FFDFC0" />
<rect x="22" y="107" width="1" height="1" fill="#FFDFC0" />
<rect x="23" y="107" width="1" height="1" fill="#FFDFC0" />
<rect x="24" y="107" width="1" height="1" fill="#FFDFC0" />
<rect x="22" y="108" width="1" height="1" fill="#E5C9AE" />
<rect x="23" y="108" width="1" height="1" fill="#E5C9AE" />
<rect x="24" y="108" width="1" height="1" fill="#E5C9AE" />
<rect x="25" y="108" width="1" height="1" fill="#E5C9AE" />
<rect x="26" y="108" width="1" height="1" fill="#E5C9AE" />
<rect x="27" y="108" width="1" height="1" fill="#E5C9AE" />
<rect x="30" y="109" width="1" height="1" fill="#E5C9AE" />
<rect x="26" y="110" width="1" height="1" fill="#E5C9AE" />
<rect x="12" y="122" width="1" height="1" fill="#CF0000" />
<rect x="13" y="122" width="1" height="1" fill="#CF0000" />
<rect x="14" y="122" width="1" height="1" fill="#E92525" />
<rect x="15" y="122" width="1" height="1" fill="#E92525" />
<rect x="16" y="122" width="1" height="1" fill="#E92525" />
<rect x="17" y="122" width="1" height="1" fill="#E92525" />
<rect x="18" y="122" width="1" height="1" fill="#E92525" />
<rect x="19" y="122" width="1" height="1" fill="#E92525" />
<rect x="20" y="122" width="1" height="1" fill="#E92525" />
<rect x="12" y="123" width="1" height="1" fill="#CF0000" />
<rect x="13" y="123" width="1" height="1" fill="#E92525" />
<rect x="14" y="123" width="1" height="1" fill="#E92525" />
<rect x="15" y="123" width="1" height="1" fill="#E92525" />
<rect x="16" y="123" width="1" height="1" fill="#E92525" />
<rect x="17" y="123" width="1" height="1" fill="#E92525" />
<rect x="18" y="123" width="1" height="1" fill="#E92525" />
<rect x="19" y="123" width="1" height="1" fill="#E92525" />
<rect x="20" y="123" width="1" height="1" fill="#E92525" />
<rect x="11" y="124" width="1" height="1" fill="#CF0000" />
<rect x="12" y="124" width="1" height="1" fill="#CF0000" />
<rect x="13" y="124" width="1" height="1" fill="#E92525" />
<rect x="14" y="124" width="1" height="1" fill="#E92525" />
<rect x="15" y="124" width="1" height="1" fill="#E92525" />
<rect x="16" y="124" width="1" height="1" fill="#E92525" />
<rect x="17" y="124" width="1" height="1" fill="#E92525" />
<rect x="18" y="124" width="1" height="1" fill="#E92525" />
<rect x="20" y="124" width="1" height="1" fill="#E92525" />
<rect x="11" y="125" width="1" height="1" fill="#CF0000" />
<rect x="12" y="125" width="1" height="1" fill="#CF0000" />
<rect x="13" y="125" width="1" height="1" fill="#CF0000" />
<rect x="14" y="125" width="1" height="1" fill="#CF0000" />
<rect x="15" y="125" width="1" height="1" fill="#CF0000" />
<rect x="16" y="125" width="1" height="1" fill="#CF0000" />
<rect x="17" y="125" width="1" height="1" fill="#CF0000" />
<rect x="18" y="125" width="1" height="1" fill="#CF0000" />
<rect x="20" y="125" width="1" height="1" fill="#CF0000" />
<rect x="11" y="126" width="1" height="1" fill="#BE0000" />
<rect x="12" y="126" width="1" height="1" fill="#BE0000" />
<rect x="13" y="126" width="1" height="1" fill="#BE0000" />
<rect x="14" y="126" width="1" height="1" fill="#BE0000" />
<rect x="15" y="126" width="1" height="1" fill="#BE0000" />
<rect x="16" y="126" width="1" height="1" fill="#BE0000" />
<rect x="17" y="126" width="1" height="1" fill="#BE0000" />
<rect x="18" y="126" width="1" height="1" fill="#BE0000" />
<rect x="20" y="126" width="1" height="1" fill="#BE0000" />
<rect x="21" y="126" width="1" height="1" fill="#BE0000" />
<rect x="22" y="126" width="1" height="1" fill="#BE0000" />
<rect x="23" y="126" width="1" height="1" fill="#BE0000" />
<rect x="24" y="126" width="1" height="1" fill="#BE0000" />
<rect x="12" y="138" width="1" height="1" fill="#72CF32" />
<rect x="13" y="138" width="1" height="1" fill="#72CF32" />
<rect x="14" y="138" width="1" height="1" fill="#99E550" />
<rect x="15" y="138" width="1" height="1" fill="#99E550" />
<rect x="16" y="138" width="1" height="1" fill="#99E550" />
<rect x="17" y="138" width="1" height="1" fill="#99E550" />
<rect x="18" y="138" width="1" height="1" fill="#99E550" />
<rect x="19" y="138" width="1" height="1" fill="#99E550" />
<rect x="20" y="138" width="1" height="1" fill="#99E550" />
<rect x="12" y="139" width="1" height="1" fill="#72CF32" />
<rect x="13" y="139" width="1" height="1" fill="#99E550" />
<rect x="14" y="139" width="1" height="1" fill="#99E550" />
<rect x="15" y="139" width="1" height="1" fill="#99E550" />
<rect x="16" y="139" width="1" height="1" fill="#99E550" />
<rect x="17" y="139" width="1" height="1" fill="#99E550" />
<rect x="18" y="139" width="1" height="1" fill="#99E550" />
<rect x="19" y="139" width="1" height="1" fill="#99E550" />
<rect x="20" y="139" width="1" height="1" fill="#99E550" />
<rect x="11" y="140" width="1" height="1" fill="#72CF32" />
<rect x="12" y="140" width="1" height="1" fill="#72CF32" />
<rect x="13" y="140" width="1" height="1" fill="#99E550" />
<rect x="14" y="140" width="1" height="1" fill="#99E550" />
<rect x="15" y="140" width="1" height="1" fill="#99E550" />
<rect x="16" y="140" width="1" height="1" fill="#99E550" />
<rect x="17" y="140" width="1" height="1" fill="#99E550" />
<rect x="18" y="140" width="1" height="1" fill="#99E550" />
<rect x="20" y="140" width="1" height="1" fill="#99E550" />
<rect x="11" y="141" width="1" height="1" fill="#72CF32" />
<rect x="12" y="141" width="1" height="1" fill="#72CF32" />
<rect x="13" y="141" width="1" height="1" fill="#72CF32" />
<rect x="14" y="141" width="1" height="1" fill="#72CF32" />
<rect x="15" y="141" width="1" height="1" fill="#72CF32" />
<rect x="16" y="141" width="1" height="1" fill="#72CF32" />
<rect x="17" y="141" width="1" height="1" fill="#72CF32" />
<rect x="18" y="141" width="1" height="1" fill="#72CF32" />
<rect x="20" y="141" width="1" height="1" fill="#72CF32" />
<rect x="11" y="142" width="1" height="1" fill="#69BE2E" />
<rect x="12" y="142" width="1" height="1" fill="#69BE2E" />
<rect x="13" y="142" width="1" height="1" fill="#69BE2E" />
<rect x="14" y="142" width="1" height="1" fill="#69BE2E" />
<rect x="15" y="142" width="1" height="1" fill="#69BE2E" />
<rect x="16" y="142" width="1" height="1" fill="#69BE2E" />
<rect x="17" y="142" width="1" height="1" fill="#69BE2E" />
<rect x="18" y="142" width="1" height="1" fill="#69BE2E" />
<rect x="20" y="142" width="1" height="1" fill="#69BE2E" />
<rect x="21" y="142" width="1" height="1" fill="#69BE2E" />
<rect x="22" y="142" width="1" height="1" fill="#69BE2E" />
<rect x="23" y="142" width="1" height="1" fill="#69BE2E" />
<rect x="24" y="142" width="1" height="1" fill="#69BE2E" />
<rect x="12" y="154" width="1" height="1" fill="#D4D4D4" />
<rect x="13" y="154" width="1" height="1" fill="#D4D4D4" />
<rect x="14" y="154" width="1" height="1" fill="#FFFFFF" />
<rect x="15" y="154" width="1" height="1" fill="#FFFFFF" />
<rect x="16" y="154" width="1" height="1" fill="#FFFFFF" />
<rect x="17" y="154" width="1" height="1" fill="#FFFFFF" />
<rect x="18" y="154" width="1" height="1" fill="#FFFFFF" />
<rect x="19" y="154" width="1" height="1" fill="#FFFFFF" />
<rect x="20" y="154" width="1" height="1" fill="#FFFFFF" />
<rect x="12" y="155" width="1" height="1" fill="#D4D4D4" />
<rect x="13" y="155" width="1" height="1" fill="#FFFFFF" />
<rect x="14" y="155" width="1" height="1" fill="#FFFFFF" />
<rect x="15" y="155" width="1" height="1" fill="#FFFFFF" />
<rect x="16" y="155" width="1" height="1" fill="#FFFFFF" />
<rect x="17" y="155" width="1" height="1" fill="#FFFFFF" />
<rect x="18" y="155" width="1" height="1" fill="#FFFFFF" />
<rect x="19" y="155" width="1" height="1" fill="#FFFFFF" />
<rect x="20" y="155" width="1" height="1" fill="#FFFFFF" />
<rect x="11" y="156" width="1" height="1" fill="#D4D4D4" />
<rect x="12" y="156" width="1" height="1" fill="#D4D4D4" />
<rect x="13" y="156" width="1" height="1" fill="#FFFFFF" />
<rect x="14" y="156" width="1" height="1" fill="#FFFFFF" />
<rect x="15" y="156" width="1" height="1" fill="#FFFFFF" />
<rect x="16" y="156" width="1" height="1" fill="#FFFFFF" />
<rect x="17" y="156" width="1" height="1" fill="#FFFFFF" />
<rect x="18" y="156" width="1" height="1" fill="#FFFFFF" />
<rect x="20" y="156" width="1" height="1" fill="#FFFFFF" />
<rect x="11" y="157" width="1" height="1" fill="#D4D4D4" />
<rect x="12" y="157" width="1" height="1" fill="#D4D4D4" />
<rect x="13" y="157" width="1" height="1" fill="#D4D4D4" />
<rect x="14" y="157" width="1" height="1" fill="#D4D4D4" />
<rect x="15" y="157" width="1" height="1" fill="#D4D4D4" />
<rect x="16" y="157" width="1" height="1" fill="#D4D4D4" />
<rect x="17" y="157" width="1" height="1" fill="#D4D4D4" />
<rect x="18" y="157" width="1" height="1" fill="#D4D4D4" />
<rect x="20" y="157" width="1" height="1" fill="#D4D4D4" />
<rect x="11" y="158" width="1" height="1" fill="#C2C2C2" />
<rect x="12" y="158" width="1" height="1" fill="#C2C2C2" />
<rect x="13" y="158" width="1" height="1" fill="#C2C2C2" />
<rect x="14" y="158" width="1" height="1" fill="#C2C2C2" />
<rect x="15" y="158" width="1" height="1" fill="#C2C2C2" />
<rect x="16" y="158" width="1" height="1" fill="#C2C2C2" />
<rect x="17" y="158" width="1" height="1" fill="#C2C2C2" />
<rect x="18" y="158" width="1" height="1" fill="#C2C2C2" />
<rect x="20" y="158" width="1" height="1" fill="#C2C2C2" />
<rect x="21" y="158" width="1" height="1" fill="#C2C2C2" />
<rect x="22" y="158" width="1" height="1" fill="#C2C2C2" />
<rect x="23" y="158" width="1" height="1" fill="#C2C2C2" />
<rect x="24" y="158" width="1" height="1" fill="#C2C2C2" />
</svg>