<?xml version="1.0" encoding="UTF-8" ?>
<svg version="1.1" width="32" height="160" xmlns="http://www.w3.org/2000/svg" shape-rendering="crispEdges">
<rect x="12" y="9" width="1" height="1" fill="#000000" />
<rect x="10" y="10" width="1" height="1" fill="#000000" />
<rect x="11" y="10" width="1" height="1" fill="#000000" />
<rect x="12" y="10" width="1" height="1" fill="#000000" />
<rect x="7" y="11" width="1" height="1" fill="#000000" />
<rect x="8" y="11" width="1" height="1" fill="#000000" />
<rect x="9" y="11" width="1" height="1" fill="#000000" />
<rect x="12" y="11" width="1" height="1" fill="#000000" />
<rect x="2" y="12" width="1" height="1" fill="#000000" />
<rect x="3" y="12" width="1" height="1" fill="#000000" />
<rect x="4" y="12" width="1" height="1" fill="#000000" />
<rect x="5" y="12" width="1" height="1" fill="#000000" />
<rect x="6" y="12" width="1" height="1" fill="#000000" />
<rect x="7" y="12" width="1" height="1" fill="#000000" />
<rect x="12" y="12" width="1" height="1" fill="#000000" />
<rect x="0" y="13" width="1" height="1" fill="#000000" />
<rect x="1" y="13" width="1" height="1" fill="#000000" />
<rect x="2" y="13" width="1" height="1" fill="#000000" />
<rect x="3" y="13" width="1" height="1" fill="#000000" />
<rect x="4" y="13" width="1" height="1" fill="#000000" />
<rect x="5" y="13" width="1" height="1" fill="#000000" />
<rect x="6" y="13" width="1" height="1" fill="#000000" />
<rect x="7" y="13" width="1" height="1" fill="#000000" />
<rect x="12" y="13" width="1" height="1" fill="#000000" />
<rect x="0" y="14" width="1" height="1" fill="#000000" />
<rect x="3" y="14" width="1" height="1" fill="#000000" />
<rect x="7" y="14" width="1" height="1" fill="#000000" />
<rect x="12" y="14" width="1" height="1" fill="#000000" />
<rect x="0" y="15" width="1" height="1" fill="#000000" />
<rect x="1" y="15" width="1" height="1" fill="#000000" />
<rect x="2" y="15" width="1" height="1" fill="#000000" />
<rect x="3" y="15" width="1" height="1" fill="#000000" />
<rect x="4" y="15" width="1" height="1" fill="#000000" />
<rect x="5" y="15" width="1" height="1" fill="#000000" />
<rect x="6" y="15" width="1" height="1" fill="#000000" />
<rect x="7" y="15" width="1" height="1" fill="#000000" />
<rect x="8" y="15" width="1" height="1" fill="#000000" />
<rect x="9" y="15" width="1" height="1" fill="#000000" />
<rect x="10" y="15" width="1" height="1" fill="#000000" />
<rect x="11" y="15" width="1" height="1" fill="#000000" />
<rect x="12" y="15" width="1" height="1" fill="#000000" />
<rect x="10" y="27" width="1" height="1" fill="#000000" />
<rect x="11" y="27" width="1" height="1" fill="#000000" />
<rect x="8" y="28" width="1" height="1" fill="#000000" />
<rect x="9" y="28" width="1" height="1" fill="#000000" />
<rect x="10" y="28" width="1" height="1" fill="#000000" />
<rect x="11" y="28" width="1" height="1" fill="#000000" />
<rect x="8" y="29" width="1" height="1" fill="#000000" />
<rect x="9" y="29" width="1" height="1" fill="#000000" />
<rect x="10" y="29" width="1" height="1" fill="#000000" />
<rect x="11" y="29" width="1" height="1" fill="#000000" />
<rect x="8" y="30" width="1" height="1" fill="#000000" />
<rect x="9" y="30" width="1" height="1" fill="#000000" />
<rect x="10" y="30" width="1" height="1" fill="#000000" />
<rect x="11" y="30" width="1" height="1" fill="#000000" />
<rect x="10" y="43" width="1" height="1" fill="#222034" />
<rect x="11" y="43" width="1" height="1" fill="#1A1927" />
<rect x="8" y="44" width="1" height="1" fill="#222034" />
<rect x="9" y="44" width="1" height="1" fill="#222034" />
<rect x="10" y="44" width="1" height="1" fill="#222034" />
<rect x="11" y="44" width="1" height="1" fill="#1A1927" />
<rect x="8" y="45" width="1" height="1" fill="#222034" />
<rect x="9" y="45" width="1" height="1" fill="#222034" />
<rect x="10" y="45" width="1" height="1" fill="#222034" />
<rect x="11" y="45" width="1" height="1" fill="#1A1927" />
<rect x="8" y="46" width="1" height="1" fill="#1A1927" />
<rect x="9" y="46" width="1" height="1" fill="#1A1927" />
<rect x="10" y="46" width="1" height="1" fill="#1A1927" />
<rect x="11" y="46" width="1" height="1" fill="#1A1927" />
<rect x="10" y="59" width="1" height="1" fill="#FFFFFF" />
<rect x="11" y="59" width="1" height="1" fill="#E9E5E5" />
<rect x="8" y="60" width="1" height="1" fill="#FFFFFF" />
<rect x="9" y="60" width="1" height="1" fill="#FFFFFF" />
<rect x="10" y="60" width="1" height="1" fill="#FFFFFF" />
<rect x="11" y="60" width="1" height="1" fill="#E9E5E5" />
<rect x="8" y="61" width="1" height="1" fill="#FFFFFF" />
<rect x="9" y="61" width="1" height="1" fill="#FFFFFF" />
<rect x="10" y="61" width="1" height="1" fill="#FFFFFF" />
<rect x="11" y="61" width="1" height="1" fill="#E9E5E5" />
<rect x="8" y="62" width="1" height="1" fill="#E9E5E5" />
<rect x="9" y="62" width="1" height="1" fill="#E9E5E5" />
<rect x="10" y="62" width="1" height="1" fill="#E9E5E5" />
<rect x="11" y="62" width="1" height="1" fill="#E9E5E5" />
<rect x="4" y="78" width="1" height="1" fill="#7D4D36" />
<rect x="5" y="78" width="1" height="1" fill="#7D4D36" />
<rect x="6" y="78" width="1" height="1" fill="#7D4D36" />
<rect x="4" y="94" width="1" height="1" fill="#E1BB97" />
<rect x="5" y="94" width="1" height="1" fill="#E1BB97" />
<rect x="6" y="94" width="1" height="1" fill="#E1BB97" />
<rect x="4" y="110" width="1" height="1" fill="#F6D8BB" />
<rect x="5" y="110" width="1" height="1" fill="#F6D8BB" />
<rect x="6" y="110" width="1" height="1" fill="#F6D8BB" />
<rect x="1" y="126" width="1" height="1" fill="#000000" />
<rect x="2" y="126" width="1" height="1" fill="#000000" />
<rect x="1" y="142" width="1" height="1" fill="#5FCDE4" />
<rect x="2" y="142" width="1" height="1" fill="#5FCDE4" />
<rect x="1" y="158" width="1" height="1" fill="#FFFFFF" />
<rect x="2" y="158" width="1" height="1" fill="#FFFFFF" />
</svg>