<?xml version="1.0" encoding="UTF-8" ?>
<svg version="1.1" width="32" height="320" xmlns="http://www.w3.org/2000/svg" shape-rendering="crispEdges">
<rect x="2" y="19" width="1" height="1" fill="#000000" />
<rect x="3" y="19" width="1" height="1" fill="#000000" />
<rect x="4" y="19" width="1" height="1" fill="#000000" />
<rect x="5" y="19" width="1" height="1" fill="#000000" />
<rect x="6" y="19" width="1" height="1" fill="#000000" />
<rect x="7" y="19" width="1" height="1" fill="#000000" />
<rect x="8" y="19" width="1" height="1" fill="#000000" />
<rect x="9" y="19" width="1" height="1" fill="#000000" />
<rect x="18" y="19" width="1" height="1" fill="#000000" />
<rect x="19" y="19" width="1" height="1" fill="#000000" />
<rect x="20" y="19" width="1" height="1" fill="#000000" />
<rect x="21" y="19" width="1" height="1" fill="#000000" />
<rect x="22" y="19" width="1" height="1" fill="#000000" />
<rect x="23" y="19" width="1" height="1" fill="#000000" />
<rect x="24" y="19" width="1" height="1" fill="#000000" />
<rect x="25" y="19" width="1" height="1" fill="#000000" />
<rect x="2" y="20" width="1" height="1" fill="#000000" />
<rect x="9" y="20" width="1" height="1" fill="#000000" />
<rect x="18" y="20" width="1" height="1" fill="#000000" />
<rect x="25" y="20" width="1" height="1" fill="#000000" />
<rect x="2" y="21" width="1" height="1" fill="#000000" />
<rect x="9" y="21" width="1" height="1" fill="#000000" />
<rect x="18" y="21" width="1" height="1" fill="#000000" />
<rect x="25" y="21" width="1" height="1" fill="#000000" />
<rect x="2" y="22" width="1" height="1" fill="#000000" />
<rect x="6" y="22" width="1" height="1" fill="#000000" />
<rect x="9" y="22" width="1" height="1" fill="#000000" />
<rect x="18" y="22" width="1" height="1" fill="#000000" />
<rect x="22" y="22" width="1" height="1" fill="#000000" />
<rect x="25" y="22" width="1" height="1" fill="#000000" />
<rect x="2" y="23" width="1" height="1" fill="#000000" />
<rect x="3" y="23" width="1" height="1" fill="#000000" />
<rect x="4" y="23" width="1" height="1" fill="#000000" />
<rect x="5" y="23" width="1" height="1" fill="#000000" />
<rect x="6" y="23" width="1" height="1" fill="#000000" />
<rect x="7" y="23" width="1" height="1" fill="#000000" />
<rect x="8" y="23" width="1" height="1" fill="#000000" />
<rect x="9" y="23" width="1" height="1" fill="#000000" />
<rect x="18" y="23" width="1" height="1" fill="#000000" />
<rect x="19" y="23" width="1" height="1" fill="#000000" />
<rect x="20" y="23" width="1" height="1" fill="#000000" />
<rect x="21" y="23" width="1" height="1" fill="#000000" />
<rect x="22" y="23" width="1" height="1" fill="#000000" />
<rect x="23" y="23" width="1" height="1" fill="#000000" />
<rect x="24" y="23" width="1" height="1" fill="#000000" />
<rect x="25" y="23" width="1" height="1" fill="#000000" />
<rect x="2" y="24" width="1" height="1" fill="#000000" />
<rect x="4" y="24" width="1" height="1" fill="#000000" />
<rect x="7" y="24" width="1" height="1" fill="#000000" />
<rect x="9" y="24" width="1" height="1" fill="#000000" />
<rect x="18" y="24" width="1" height="1" fill="#000000" />
<rect x="20" y="24" width="1" height="1" fill="#000000" />
<rect x="23" y="24" width="1" height="1" fill="#000000" />
<rect x="25" y="24" width="1" height="1" fill="#000000" />
<rect x="2" y="25" width="1" height="1" fill="#000000" />
<rect x="4" y="25" width="1" height="1" fill="#000000" />
<rect x="7" y="25" width="1" height="1" fill="#000000" />
<rect x="9" y="25" width="1" height="1" fill="#000000" />
<rect x="18" y="25" width="1" height="1" fill="#000000" />
<rect x="20" y="25" width="1" height="1" fill="#000000" />
<rect x="23" y="25" width="1" height="1" fill="#000000" />
<rect x="25" y="25" width="1" height="1" fill="#000000" />
<rect x="2" y="26" width="1" height="1" fill="#000000" />
<rect x="4" y="26" width="1" height="1" fill="#000000" />
<rect x="7" y="26" width="1" height="1" fill="#000000" />
<rect x="9" y="26" width="1" height="1" fill="#000000" />
<rect x="18" y="26" width="1" height="1" fill="#000000" />
<rect x="20" y="26" width="1" height="1" fill="#000000" />
<rect x="23" y="26" width="1" height="1" fill="#000000" />
<rect x="25" y="26" width="1" height="1" fill="#000000" />
<rect x="2" y="27" width="1" height="1" fill="#000000" />
<rect x="4" y="27" width="1" height="1" fill="#000000" />
<rect x="7" y="27" width="1" height="1" fill="#000000" />
<rect x="9" y="27" width="1" height="1" fill="#000000" />
<rect x="18" y="27" width="1" height="1" fill="#000000" />
<rect x="20" y="27" width="1" height="1" fill="#000000" />
<rect x="23" y="27" width="1" height="1" fill="#000000" />
<rect x="25" y="27" width="1" height="1" fill="#000000" />
<rect x="2" y="28" width="1" height="1" fill="#000000" />
<rect x="3" y="28" width="1" height="1" fill="#000000" />
<rect x="4" y="28" width="1" height="1" fill="#000000" />
<rect x="7" y="28" width="1" height="1" fill="#000000" />
<rect x="8" y="28" width="1" height="1" fill="#000000" />
<rect x="9" y="28" width="1" height="1" fill="#000000" />
<rect x="18" y="28" width="1" height="1" fill="#000000" />
<rect x="19" y="28" width="1" height="1" fill="#000000" />
<rect x="20" y="28" width="1" height="1" fill="#000000" />
<rect x="23" y="28" width="1" height="1" fill="#000000" />
<rect x="24" y="28" width="1" height="1" fill="#000000" />
<rect x="25" y="28" width="1" height="1" fill="#000000" />
<rect x="2" y="29" width="1" height="1" fill="#000000" />
<rect x="4" y="29" width="1" height="1" fill="#000000" />
<rect x="5" y="29" width="1" height="1" fill="#000000" />
<rect x="7" y="29" width="1" height="1" fill="#000000" />
<rect x="9" y="29" width="1" height="1" fill="#000000" />
<rect x="10" y="29" width="1" height="1" fill="#000000" />
<rect x="18" y="29" width="1" height="1" fill="#000000" />
<rect x="20" y="29" width="1" height="1" fill="#000000" />
<rect x="21" y="29" width="1" height="1" fill="#000000" />
<rect x="23" y="29" width="1" height="1" fill="#000000" />
<rect x="25" y="29" width="1" height="1" fill="#000000" />
<rect x="26" y="29" width="1" height="1" fill="#000000" />
<rect x="2" y="30" width="1" height="1" fill="#000000" />
<rect x="5" y="30" width="1" height="1" fill="#000000" />
<rect x="7" y="30" width="1" height="1" fill="#000000" />
<rect x="10" y="30" width="1" height="1" fill="#000000" />
<rect x="18" y="30" width="1" height="1" fill="#000000" />
<rect x="21" y="30" width="1" height="1" fill="#000000" />
<rect x="23" y="30" width="1" height="1" fill="#000000" />
<rect x="26" y="30" width="1" height="1" fill="#000000" />
<rect x="2" y="31" width="1" height="1" fill="#000000" />
<rect x="3" y="31" width="1" height="1" fill="#000000" />
<rect x="4" y="31" width="1" height="1" fill="#000000" />
<rect x="5" y="31" width="1" height="1" fill="#000000" />
<rect x="7" y="31" width="1" height="1" fill="#000000" />
<rect x="8" y="31" width="1" height="1" fill="#000000" />
<rect x="9" y="31" width="1" height="1" fill="#000000" />
<rect x="10" y="31" width="1" height="1" fill="#000000" />
<rect x="18" y="31" width="1" height="1" fill="#000000" />
<rect x="19" y="31" width="1" height="1" fill="#000000" />
<rect x="20" y="31" width="1" height="1" fill="#000000" />
<rect x="21" y="31" width="1" height="1" fill="#000000" />
<rect x="23" y="31" width="1" height="1" fill="#000000" />
<rect x="24" y="31" width="1" height="1" fill="#000000" />
<rect x="25" y="31" width="1" height="1" fill="#000000" />
<rect x="26" y="31" width="1" height="1" fill="#000000" />
<rect x="3" y="52" width="1" height="1" fill="#000000" />
<rect x="4" y="52" width="1" height="1" fill="#000000" />
<rect x="5" y="52" width="1" height="1" fill="#000000" />
<rect x="6" y="52" width="1" height="1" fill="#000000" />
<rect x="7" y="52" width="1" height="1" fill="#000000" />
<rect x="8" y="52" width="1" height="1" fill="#000000" />
<rect x="19" y="52" width="1" height="1" fill="#000000" />
<rect x="20" y="52" width="1" height="1" fill="#000000" />
<rect x="21" y="52" width="1" height="1" fill="#000000" />
<rect x="22" y="52" width="1" height="1" fill="#000000" />
<rect x="23" y="52" width="1" height="1" fill="#000000" />
<rect x="24" y="52" width="1" height="1" fill="#000000" />
<rect x="3" y="53" width="1" height="1" fill="#000000" />
<rect x="4" y="53" width="1" height="1" fill="#000000" />
<rect x="5" y="53" width="1" height="1" fill="#000000" />
<rect x="6" y="53" width="1" height="1" fill="#000000" />
<rect x="7" y="53" width="1" height="1" fill="#000000" />
<rect x="8" y="53" width="1" height="1" fill="#000000" />
<rect x="19" y="53" width="1" height="1" fill="#000000" />
<rect x="20" y="53" width="1" height="1" fill="#000000" />
<rect x="21" y="53" width="1" height="1" fill="#000000" />
<rect x="22" y="53" width="1" height="1" fill="#000000" />
<rect x="23" y="53" width="1" height="1" fill="#000000" />
<rect x="24" y="53" width="1" height="1" fill="#000000" />
<rect x="3" y="54" width="1" height="1" fill="#000000" />
<rect x="4" y="54" width="1" height="1" fill="#000000" />
<rect x="5" y="54" width="1" height="1" fill="#000000" />
<rect x="7" y="54" width="1" height="1" fill="#000000" />
<rect x="8" y="54" width="1" height="1" fill="#000000" />
<rect x="19" y="54" width="1" height="1" fill="#000000" />
<rect x="20" y="54" width="1" height="1" fill="#000000" />
<rect x="21" y="54" width="1" height="1" fill="#000000" />
<rect x="23" y="54" width="1" height="1" fill="#000000" />
<rect x="24" y="54" width="1" height="1" fill="#000000" />
<rect x="3" y="84" width="1" height="1" fill="#BA8A5A" />
<rect x="4" y="84" width="1" height="1" fill="#CB955F" />
<rect x="5" y="84" width="1" height="1" fill="#D9A066" />
<rect x="6" y="84" width="1" height="1" fill="#D9A066" />
<rect x="7" y="84" width="1" height="1" fill="#D9A066" />
<rect x="8" y="84" width="1" height="1" fill="#D9A066" />
<rect x="19" y="84" width="1" height="1" fill="#BA8A5A" />
<rect x="20" y="84" width="1" height="1" fill="#CB955F" />
<rect x="21" y="84" width="1" height="1" fill="#D9A066" />
<rect x="22" y="84" width="1" height="1" fill="#D9A066" />
<rect x="23" y="84" width="1" height="1" fill="#D9A066" />
<rect x="24" y="84" width="1" height="1" fill="#D9A066" />
<rect x="3" y="85" width="1" height="1" fill="#BA8A5A" />
<rect x="4" y="85" width="1" height="1" fill="#CB955F" />
<rect x="5" y="85" width="1" height="1" fill="#D9A066" />
<rect x="6" y="85" width="1" height="1" fill="#D9A066" />
<rect x="7" y="85" width="1" height="1" fill="#D9A066" />
<rect x="8" y="85" width="1" height="1" fill="#D9A066" />
<rect x="19" y="85" width="1" height="1" fill="#BA8A5A" />
<rect x="20" y="85" width="1" height="1" fill="#CB955F" />
<rect x="21" y="85" width="1" height="1" fill="#D9A066" />
<rect x="22" y="85" width="1" height="1" fill="#D9A066" />
<rect x="23" y="85" width="1" height="1" fill="#D9A066" />
<rect x="24" y="85" width="1" height="1" fill="#D9A066" />
<rect x="3" y="86" width="1" height="1" fill="#BA8A5A" />
<rect x="4" y="86" width="1" height="1" fill="#CB955F" />
<rect x="5" y="86" width="1" height="1" fill="#D9A066" />
<rect x="7" y="86" width="1" height="1" fill="#D9A066" />
<rect x="8" y="86" width="1" height="1" fill="#D9A066" />
<rect x="19" y="86" width="1" height="1" fill="#BA8A5A" />
<rect x="20" y="86" width="1" height="1" fill="#CB955F" />
<rect x="21" y="86" width="1" height="1" fill="#D9A066" />
<rect x="23" y="86" width="1" height="1" fill="#D9A066" />
<rect x="24" y="86" width="1" height="1" fill="#D9A066" />
<rect x="3" y="116" width="1" height="1" fill="#A4A4A4" />
<rect x="4" y="116" width="1" height="1" fill="#BABABA" />
<rect x="5" y="116" width="1" height="1" fill="#FFFFFF" />
<rect x="6" y="116" width="1" height="1" fill="#FFFFFF" />
<rect x="7" y="116" width="1" height="1" fill="#FFFFFF" />
<rect x="8" y="116" width="1" height="1" fill="#FFFFFF" />
<rect x="19" y="116" width="1" height="1" fill="#A4A4A4" />
<rect x="20" y="116" width="1" height="1" fill="#BABABA" />
<rect x="21" y="116" width="1" height="1" fill="#FFFFFF" />
<rect x="22" y="116" width="1" height="1" fill="#FFFFFF" />
<rect x="23" y="116" width="1" height="1" fill="#FFFFFF" />
<rect x="24" y="116" width="1" height="1" fill="#FFFFFF" />
<rect x="3" y="117" width="1" height="1" fill="#A4A4A4" />
<rect x="4" y="117" width="1" height="1" fill="#BABABA" />
<rect x="5" y="117" width="1" height="1" fill="#FFFFFF" />
<rect x="6" y="117" width="1" height="1" fill="#FFFFFF" />
<rect x="7" y="117" width="1" height="1" fill="#FFFFFF" />
<rect x="8" y="117" width="1" height="1" fill="#FFFFFF" />
<rect x="19" y="117" width="1" height="1" fill="#A4A4A4" />
<rect x="20" y="117" width="1" height="1" fill="#BABABA" />
<rect x="21" y="117" width="1" height="1" fill="#FFFFFF" />
<rect x="22" y="117" width="1" height="1" fill="#FFFFFF" />
<rect x="23" y="117" width="1" height="1" fill="#FFFFFF" />
<rect x="24" y="117" width="1" height="1" fill="#FFFFFF" />
<rect x="3" y="118" width="1" height="1" fill="#A4A4A4" />
<rect x="4" y="118" width="1" height="1" fill="#BABABA" />
<rect x="5" y="118" width="1" height="1" fill="#FFFFFF" />
<rect x="7" y="118" width="1" height="1" fill="#FFFFFF" />
<rect x="8" y="118" width="1" height="1" fill="#FFFFFF" />
<rect x="19" y="118" width="1" height="1" fill="#A4A4A4" />
<rect x="20" y="118" width="1" height="1" fill="#BABABA" />
<rect x="21" y="118" width="1" height="1" fill="#FFFFFF" />
<rect x="23" y="118" width="1" height="1" fill="#FFFFFF" />
<rect x="24" y="118" width="1" height="1" fill="#FFFFFF" />
<rect x="3" y="152" width="1" height="1" fill="#8F563B" />
<rect x="8" y="152" width="1" height="1" fill="#8F563B" />
<rect x="19" y="152" width="1" height="1" fill="#8F563B" />
<rect x="24" y="152" width="1" height="1" fill="#8F563B" />
<rect x="3" y="153" width="1" height="1" fill="#8F563B" />
<rect x="8" y="153" width="1" height="1" fill="#8F563B" />
<rect x="19" y="153" width="1" height="1" fill="#8F563B" />
<rect x="24" y="153" width="1" height="1" fill="#8F563B" />
<rect x="3" y="154" width="1" height="1" fill="#8F563B" />
<rect x="8" y="154" width="1" height="1" fill="#8F563B" />
<rect x="19" y="154" width="1" height="1" fill="#8F563B" />
<rect x="24" y="154" width="1" height="1" fill="#8F563B" />
<rect x="3" y="155" width="1" height="1" fill="#8F563B" />
<rect x="8" y="155" width="1" height="1" fill="#8F563B" />
<rect x="19" y="155" width="1" height="1" fill="#8F563B" />
<rect x="24" y="155" width="1" height="1" fill="#8F563B" />
<rect x="3" y="184" width="1" height="1" fill="#EEC39A" />
<rect x="8" y="184" width="1" height="1" fill="#EEC39A" />
<rect x="19" y="184" width="1" height="1" fill="#EEC39A" />
<rect x="24" y="184" width="1" height="1" fill="#EEC39A" />
<rect x="3" y="185" width="1" height="1" fill="#EEC39A" />
<rect x="8" y="185" width="1" height="1" fill="#EEC39A" />
<rect x="19" y="185" width="1" height="1" fill="#EEC39A" />
<rect x="24" y="185" width="1" height="1" fill="#EEC39A" />
<rect x="3" y="186" width="1" height="1" fill="#EEC39A" />
<rect x="8" y="186" width="1" height="1" fill="#EEC39A" />
<rect x="19" y="186" width="1" height="1" fill="#EEC39A" />
<rect x="24" y="186" width="1" height="1" fill="#EEC39A" />
<rect x="3" y="187" width="1" height="1" fill="#EEC39A" />
<rect x="8" y="187" width="1" height="1" fill="#EEC39A" />
<rect x="19" y="187" width="1" height="1" fill="#EEC39A" />
<rect x="24" y="187" width="1" height="1" fill="#EEC39A" />
<rect x="3" y="216" width="1" height="1" fill="#FFDFC0" />
<rect x="8" y="216" width="1" height="1" fill="#FFDFC0" />
<rect x="19" y="216" width="1" height="1" fill="#FFDFC0" />
<rect x="24" y="216" width="1" height="1" fill="#FFDFC0" />
<rect x="3" y="217" width="1" height="1" fill="#FFDFC0" />
<rect x="8" y="217" width="1" height="1" fill="#FFDFC0" />
<rect x="19" y="217" width="1" height="1" fill="#FFDFC0" />
<rect x="24" y="217" width="1" height="1" fill="#FFDFC0" />
<rect x="3" y="218" width="1" height="1" fill="#FFDFC0" />
<rect x="8" y="218" width="1" height="1" fill="#FFDFC0" />
<rect x="19" y="218" width="1" height="1" fill="#FFDFC0" />
<rect x="24" y="218" width="1" height="1" fill="#FFDFC0" />
<rect x="3" y="219" width="1" height="1" fill="#FFDFC0" />
<rect x="8" y="219" width="1" height="1" fill="#FFDFC0" />
<rect x="19" y="219" width="1" height="1" fill="#FFDFC0" />
<rect x="24" y="219" width="1" height="1" fill="#FFDFC0" />
<rect x="3" y="253" width="1" height="1" fill="#000000" />
<rect x="8" y="253" width="1" height="1" fill="#000000" />
<rect x="19" y="253" width="1" height="1" fill="#000000" />
<rect x="24" y="253" width="1" height="1" fill="#000000" />
<rect x="3" y="254" width="1" height="1" fill="#000000" />
<rect x="4" y="254" width="1" height="1" fill="#000000" />
<rect x="8" y="254" width="1" height="1" fill="#000000" />
<rect x="9" y="254" width="1" height="1" fill="#000000" />
<rect x="19" y="254" width="1" height="1" fill="#000000" />
<rect x="20" y="254" width="1" height="1" fill="#000000" />
<rect x="24" y="254" width="1" height="1" fill="#000000" />
<rect x="25" y="254" width="1" height="1" fill="#000000" />
<rect x="3" y="285" width="1" height="1" fill="#5FCDE4" />
<rect x="8" y="285" width="1" height="1" fill="#5FCDE4" />
<rect x="19" y="285" width="1" height="1" fill="#5FCDE4" />
<rect x="24" y="285" width="1" height="1" fill="#5FCDE4" />
<rect x="3" y="286" width="1" height="1" fill="#5FCDE4" />
<rect x="4" y="286" width="1" height="1" fill="#5FCDE4" />
<rect x="8" y="286" width="1" height="1" fill="#5FCDE4" />
<rect x="9" y="286" width="1" height="1" fill="#5FCDE4" />
<rect x="19" y="286" width="1" height="1" fill="#5FCDE4" />
<rect x="20" y="286" width="1" height="1" fill="#5FCDE4" />
<rect x="24" y="286" width="1" height="1" fill="#5FCDE4" />
<rect x="25" y="286" width="1" height="1" fill="#5FCDE4" />
<rect x="3" y="317" width="1" height="1" fill="#FFFFFF" />
<rect x="8" y="317" width="1" height="1" fill="#FFFFFF" />
<rect x="19" y="317" width="1" height="1" fill="#FFFFFF" />
<rect x="24" y="317" width="1" height="1" fill="#FFFFFF" />
<rect x="3" y="318" width="1" height="1" fill="#FFFFFF" />
<rect x="4" y="318" width="1" height="1" fill="#FFFFFF" />
<rect x="8" y="318" width="1" height="1" fill="#FFFFFF" />
<rect x="9" y="318" width="1" height="1" fill="#FFFFFF" />
<rect x="19" y="318" width="1" height="1" fill="#FFFFFF" />
<rect x="20" y="318" width="1" height="1" fill="#FFFFFF" />
<rect x="24" y="318" width="1" height="1" fill="#FFFFFF" />
<rect x="25" y="318" width="1" height="1" fill="#FFFFFF" />
</svg>